<?xml version="1.0" encoding="UTF-8" standalone="no"?>
<!DOCTYPE svg PUBLIC "-//W3C//DTD SVG 1.1//EN" "http://www.w3.org/Graphics/SVG/1.1/DTD/svg11.dtd">
<!-- 由 Microsoft Visio, SVG Export 生成 A05.svg Page-1 -->
<svg xmlns="http://www.w3.org/2000/svg" xmlns:xlink="http://www.w3.org/1999/xlink" xmlns:ev="http://www.w3.org/2001/xml-events"
		xmlns:v="http://schemas.microsoft.com/visio/2003/SVGExtensions/" width="11.6929in" height="8.26772in"
		viewBox="0 0 841.89 595.276" xml:space="preserve" color-interpolation-filters="sRGB" class="st13">
	<v:documentProperties v:langID="2052" v:metric="true" v:viewMarkup="false">
	</v:documentProperties>
	<style type="text/css">
	<![CDATA[
		.st1 {fill:url(#grad7-5);stroke:#000000;stroke-linecap:butt;stroke-width:1.25}
		.st2 {fill:#000000;font-family:Calibri;font-size:1.00001em}
		.st3 {fill:url(#grad11-31);stroke:#000000;stroke-linecap:butt;stroke-width:1.25}
		.st4 {fill:#9a9a9a;fill-opacity:0.5;stroke:#000000;stroke-linecap:butt;stroke-width:0.02}
		.st5 {fill:#000000;stroke:none;stroke-linecap:butt;stroke-width:1.25}
		.st6 {fill:#00ff00;stroke:#000000;stroke-linecap:butt;stroke-width:1.25}
		.st7 {fill:#ffffff;stroke:none;stroke-linecap:butt;stroke-width:7.2}
		.st8 {font-family:黑体;font-size:1em}
		.st9 {fill:#339966;stroke:#000000;stroke-linecap:butt;stroke-width:1.25}
		.st10 {stroke:#000000;stroke-linecap:butt;stroke-width:1.25}
		.st11 {fill:#000000}
		.st12 {fill:#9a9a9a;stroke:#000000;stroke-linecap:butt;stroke-width:1.25}
		.st13 {fill:none;fill-rule:evenodd;font-size:12px;overflow:visible;stroke-linecap:square;stroke-miterlimit:3}
	]]>
	</style>
	<defs id="Patterns_And_Gradients">
		<radialGradient id="grad7-5" cx="0" cy="0" r="1.4">
			<stop offset="0" stop-color="#ffffff" stop-opacity="1"/>
			<stop offset="1" stop-color="#c0c0c0" stop-opacity="1"/>
		</radialGradient>
		<pattern id="grad11-31" x="0" y="0" width="1" height="1" patternContentUnits="objectBoundingBox">
			<path d="M 0 1 L 0 0 L 1 0 z" style="fill:url(#grad0-32)"/>
			<path d="M 0 1 L 1 1 L 1 0 z" style="fill:url(#grad0-33)"/>
		</pattern>
		<linearGradient id="grad0-32" x1="0" y1="0" x2="1" y2="0" gradientTransform="rotate(180 0.5 0.5)">
			<stop offset="0" stop-color="#ffffff" stop-opacity="1"/>
			<stop offset="1" stop-color="#c0c0c0" stop-opacity="1"/>
		</linearGradient>
		<linearGradient id="grad0-33" x1="0" y1="0" x2="1" y2="0" gradientTransform="rotate(90 0.5 0.5)">
			<stop offset="0" stop-color="#ffffff" stop-opacity="1"/>
			<stop offset="1" stop-color="#c0c0c0" stop-opacity="1"/>
		</linearGradient>
	</defs>
	<g v:mID="0" v:index="1" v:groupContext="foregroundPage">
		<title>页-1</title>
		<v:pageProperties v:drawingScale="39.3701" v:pageScale="1.9685" v:drawingUnits="6" v:shadowOffsetX="8.50394"
				v:shadowOffsetY="-8.50394"/>
		<g id="group1-1" transform="translate(45.3543,-278.462)" v:mID="1" v:groupContext="group">
			<title>机柜</title>
			<g id="shape2-2" v:mID="2" v:groupContext="shape" transform="translate(3.54331,0)">
				<title>工作表.2</title>
				<rect x="0" y="584.646" width="75.7134" height="10.6299" class="st1"/>
			</g>
			<g id="shape3-6" v:mID="3" v:groupContext="shape" transform="translate(3.54331,-275.23)">
				<title>工作表.3</title>
				<rect x="0" y="589.606" width="75.7134" height="5.66929" class="st1"/>
			</g>
			<g id="shape4-9" v:mID="4" v:groupContext="shape" transform="translate(3.54331,-10.6299)">
				<title>工作表.4</title>
				<path d="M70.26 595.28 L75.71 595.28 L75.71 330.68 L70.26 330.68 L70.26 595.28 ZM0 595.28 L5.46 595.28 L5.46 330.68
							 L0 330.68 L0 595.28 Z" class="st1"/>
			</g>
			<g id="shape5-12" v:mID="5" v:groupContext="shape">
				<title>工作表.5</title>
				<path d="M79.26 595.28 L82.8 595.28 L82.8 314.38 L79.26 314.38 L79.26 595.28 ZM0 595.28 L3.54 595.28 L3.54 314.38
							 L0 314.38 L0 595.28 Z" class="st1"/>
			</g>
			<g id="shape6-15" v:mID="6" v:groupContext="shape" transform="translate(0,-280.899)">
				<title>工作表.6</title>
				<v:textBlock v:margins="rect(0,0,0,0)" v:tabSpace="42.5197"/>
				<v:textRect cx="41.4" cy="588.074" width="82.81" height="14.4037"/>
				<text x="30.11" y="591.67" class="st2" v:langID="2052"><v:paragraph v:horizAlign="1"/><v:tabList/>42 U</text>			</g>
		</g>
		<g id="group7-17" transform="translate(52.5543,-358.392)" v:mID="7" v:groupContext="group">
			<title>RAID 阵列</title>
			<desc>Uit统一存储无标签</desc>
			<g id="shape8-18" v:mID="8" v:groupContext="shape" transform="translate(-1.70079,0)">
				<title>工作表.8</title>
				<rect x="0" y="576.376" width="71.8016" height="18.9" class="st1"/>
			</g>
			<g id="group9-21" transform="translate(-1.70079,0)" v:mID="9" v:groupContext="group">
				<title>工作表.9</title>
				<g id="shape10-22" v:mID="10" v:groupContext="shape" transform="translate(1.11615,-0.225)">
					<title>工作表.10</title>
					<path d="M0 594.94 L0.58 595.28 L1.17 594.94 L1.17 594.26 L0.58 593.93 L0 594.26 L0 594.94 Z" class="st1"/>
				</g>
				<g id="shape11-25" v:mID="11" v:groupContext="shape" transform="translate(1.11615,-17.325)">
					<title>工作表.11</title>
					<path d="M0 594.94 L0.58 595.28 L1.17 594.94 L1.17 594.26 L0.58 593.93 L0 594.26 L0 594.94 Z" class="st1"/>
				</g>
				<g id="shape12-28" v:mID="12" v:groupContext="shape" transform="translate(0.850394,-3.40157)">
					<title>工作表.12</title>
					<path d="M0 594.43 a0.850394 0.850394 -180 0 0 1.70079 0 L1.7 584.03 a0.850394 0.850394 -180 0 0 -1.70079 0 L0
								 594.43 Z" class="st3"/>
				</g>
			</g>
			<g id="group13-34" transform="translate(66.6992,0)" v:mID="13" v:groupContext="group">
				<title>工作表.13</title>
				<g id="shape14-35" v:mID="14" v:groupContext="shape" transform="translate(1.11615,-0.225)">
					<title>工作表.14</title>
					<path d="M0 594.94 L0.58 595.28 L1.17 594.94 L1.17 594.26 L0.58 593.93 L0 594.26 L0 594.94 Z" class="st1"/>
				</g>
				<g id="shape15-38" v:mID="15" v:groupContext="shape" transform="translate(1.11615,-17.325)">
					<title>工作表.15</title>
					<path d="M0 594.94 L0.58 595.28 L1.17 594.94 L1.17 594.26 L0.58 593.93 L0 594.26 L0 594.94 Z" class="st1"/>
				</g>
				<g id="shape16-41" v:mID="16" v:groupContext="shape" transform="translate(0.850394,-3.40157)">
					<title>工作表.16</title>
					<path d="M0 594.43 a0.850394 0.850394 -180 0 0 1.70079 0 L1.7 584.03 a0.850394 0.850394 -180 0 0 -1.70079 0 L0
								 594.43 Z" class="st3"/>
				</g>
			</g>
			<g id="group17-44" v:mID="17" v:groupContext="group">
				<title>工作表.17</title>
				<g id="shape18-45" v:mID="18" v:groupContext="shape" transform="translate(4.43622,-1.70079)">
					<title>工作表.18</title>
					<path d="M0 595.28 L3.97 595.28 L3.97 579.78 L0 579.78 L0 595.28 ZM3.97 595.28 L7.94 595.28 L7.94 579.78 L3.97
								 579.78 L3.97 595.28 ZM7.94 595.28 L11.91 595.28 L11.91 579.78 L7.94 579.78 L7.94 595.28 ZM11.91
								 595.28 L15.87 595.28 L15.87 579.78 L11.91 579.78 L11.91 595.28 ZM15.87 595.28 L19.84 595.28 L19.84
								 579.78 L15.87 579.78 L15.87 595.28 ZM19.84 595.28 L23.81 595.28 L23.81 579.78 L19.84 579.78 L19.84
								 595.28 ZM23.81 595.28 L27.78 595.28 L27.78 579.78 L23.81 579.78 L23.81 595.28 ZM31.75 595.28 L35.72
								 595.28 L35.72 579.78 L31.75 579.78 L31.75 595.28 ZM35.72 595.28 L39.69 595.28 L39.69 579.78 L35.72
								 579.78 L35.72 595.28 ZM39.69 595.28 L43.65 595.28 L43.65 579.78 L39.69 579.78 L39.69 595.28 ZM43.65
								 595.28 L47.62 595.28 L47.62 579.78 L43.65 579.78 L43.65 595.28 ZM47.62 595.28 L51.59 595.28 L51.59
								 579.78 L47.62 579.78 L47.62 595.28 ZM51.59 595.28 L55.56 595.28 L55.56 579.78 L51.59 579.78 L51.59
								 595.28 ZM55.56 595.28 L59.53 595.28 L59.53 579.78 L55.56 579.78 L55.56 595.28 Z" class="st4"/>
				</g>
				<g id="shape19-47" v:mID="19" v:groupContext="shape" transform="translate(4.43622,-1.70079)">
					<title>工作表.19</title>
					<path d="M0.99 592.18 a0.992126 0.992126 -180 0 0 1.98425 0 L2.98 582.88 a0.992126 0.992126 -180 0 0 -1.98425
								 0 L0.99 592.18 ZM4.96 592.18 a0.992126 0.992126 -180 1 0 1.98425 0 L6.94 582.88 a0.992126 0.992126
								 -180 0 0 -1.98425 0 L4.96 592.18 ZM8.93 592.18 a0.992126 0.992126 -180 0 0 1.98425 0 L10.91 582.88
								 a0.992126 0.992126 -180 0 0 -1.98425 0 L8.93 592.18 ZM12.9 592.18 a0.992126 0.992126 -180 1 0 1.98425
								 0 L14.88 582.88 a0.992126 0.992126 -180 0 0 -1.98425 0 L12.9 592.18 ZM16.87 592.18 a0.992126 0.992126
								 -180 0 0 1.98425 0 L18.85 582.88 a0.992126 0.992126 -180 0 0 -1.98425 0 L16.87 592.18 ZM20.83 592.18
								 a0.992126 0.992126 -180 0 0 1.98425 0 L22.82 582.88 a0.992126 0.992126 -180 0 0 -1.98425 0 L20.83
								 592.18 ZM24.8 592.18 a0.992126 0.992126 -180 0 0 1.98425 0 L26.79 582.88 a0.992126 0.992126 -180
								 0 0 -1.98425 0 L24.8 592.18 ZM32.74 592.18 a0.992126 0.992126 -180 1 0 1.98425 0 L34.72 582.88 a0.992126
								 0.992126 -180 1 0 -1.98425 0 L32.74 592.18 ZM36.71 592.18 a0.992126 0.992126 -180 1 0 1.98425 0
								 L38.69 582.88 a0.992126 0.992126 -180 1 0 -1.98425 0 L36.71 592.18 ZM40.68 592.18 a0.992126 0.992126
								 -180 1 0 1.98425 0 L42.66 582.88 a0.992126 0.992126 -180 1 0 -1.98425 0 L40.68 592.18 ZM44.65 592.18
								 a0.992126 0.992126 -180 1 0 1.98425 0 L46.63 582.88 a0.992126 0.992126 -180 1 0 -1.98425 0 L44.65
								 592.18 ZM48.61 592.18 a0.992126 0.992126 -180 1 0 1.98425 0 L50.6 582.88 a0.992126 0.992126 -180
								 1 0 -1.98425 0 L48.61 592.18 ZM52.58 592.18 a0.992126 0.992126 -180 0 0 1.98425 0 L54.57 582.88
								 a0.992126 0.992126 -180 0 0 -1.98425 0 L52.58 592.18 ZM56.55 592.18 a0.992126 0.992126 -180 1 0
								 1.98425 0 L58.54 582.88 a0.992126 0.992126 -180 1 0 -1.98425 0 L56.55 592.18 Z" class="st5"/>
				</g>
				<g id="shape20-49" v:mID="20" v:groupContext="shape" transform="translate(32.85,-6.075)">
					<title>工作表.20</title>
					<path d="M0.85 594.85 a0.425197 0.425197 -180 1 0 -0.850394 0 a0.425197 0.425197 -180 1 0 0.850394 0 ZM0.85 591.9
								 a0.425197 0.425197 -180 1 0 -0.850394 0 a0.425197 0.425197 -180 1 0 0.850394 0 ZM2.7 594.85 a0.425197
								 0.425197 -180 1 0 -0.850394 0 a0.425197 0.425197 -180 1 0 0.850394 0 ZM2.7 591.9 a0.425197 0.425197
								 -180 1 0 -0.850394 0 a0.425197 0.425197 -180 1 0 0.850394 0 ZM1.78 588.95 a0.425197 0.425197 -180
								 1 0 -0.850394 0 a0.425197 0.425197 -180 1 0 0.850394 0 Z" class="st6"/>
				</g>
			</g>
			<g id="group21-51" transform="translate(0,-18.9)" v:mID="21" v:groupContext="group">
				<title>工作表.21</title>
				<g id="shape22-52" v:mID="22" v:groupContext="shape" transform="translate(4.5,-1.8)">
					<title>工作表.22</title>
				</g>
				<g id="shape23-54" v:mID="23" v:groupContext="shape" transform="translate(4.5,-1.8)">
					<title>工作表.23</title>
				</g>
				<g id="shape24-56" v:mID="24" v:groupContext="shape" transform="translate(32.85,-6.075)">
					<title>工作表.24</title>
				</g>
			</g>
			<g id="group25-58" transform="translate(0,-37.8)" v:mID="25" v:groupContext="group">
				<title>工作表.25</title>
				<g id="shape26-59" v:mID="26" v:groupContext="shape" transform="translate(4.5,-1.8)">
					<title>工作表.26</title>
				</g>
				<g id="shape27-61" v:mID="27" v:groupContext="shape" transform="translate(4.5,-1.8)">
					<title>工作表.27</title>
				</g>
				<g id="shape28-63" v:mID="28" v:groupContext="shape" transform="translate(32.85,-6.075)">
					<title>工作表.28</title>
				</g>
			</g>
			<g id="group29-65" transform="translate(0,-56.7)" v:mID="29" v:groupContext="group">
				<title>工作表.29</title>
				<g id="shape30-66" v:mID="30" v:groupContext="shape" transform="translate(4.5,-1.8)">
					<title>工作表.30</title>
				</g>
				<g id="shape31-68" v:mID="31" v:groupContext="shape" transform="translate(4.5,-1.8)">
					<title>工作表.31</title>
				</g>
				<g id="shape32-70" v:mID="32" v:groupContext="shape" transform="translate(32.85,-6.075)">
					<title>工作表.32</title>
				</g>
			</g>
			<g id="shape33-72" v:mID="33" v:groupContext="shape" transform="translate(-32.8904,0)">
				<title>工作表.33</title>
				<v:textBlock v:margins="rect(0,0,0,0)" v:tabSpace="42.5197"/>
				<v:textRect cx="9.60522" cy="585.826" width="19.22" height="18.9"/>
				<text x="2.72" y="589.43" class="st2" v:langID="2052"><v:paragraph v:horizAlign="2"/><v:tabList/>3 U</text>			</g>
			<g id="shape7-74" v:mID="7" v:groupContext="groupContent">
				<v:textBlock v:margins="rect(0,0,0,0)" v:tabSpace="42.5197"/>
				<v:textRect cx="131.835" cy="585.826" width="113.19" height="15.9788"/>
				<rect v:rectContext="textBkgnd" x="76.5982" y="577.838" width="110.474" height="15.9752" class="st7"/>
				<text x="76.6" y="589.82" class="st2" v:langID="2052"><v:paragraph v:horizAlign="1"/><v:tabList/>Uit<tspan
							class="st8">统一存储</tspan><tspan class="st8">，</tspan><tspan class="st8">无标签</tspan></text>			</g>
		</g>
		<g id="group40-80" transform="translate(52.5543,-383.592)" v:mID="40" v:groupContext="group">
			<title>RAID 阵列.40</title>
			<desc>Uit统一存储无标签</desc>
			<g id="shape41-81" v:mID="41" v:groupContext="shape" transform="translate(-1.70079,0)">
				<title>工作表.41</title>
				<rect x="0" y="576.376" width="71.8016" height="18.9" class="st1"/>
			</g>
			<g id="group42-84" transform="translate(-1.70079,0)" v:mID="42" v:groupContext="group">
				<title>工作表.42</title>
				<g id="shape43-85" v:mID="43" v:groupContext="shape" transform="translate(1.11615,-0.225)">
					<title>工作表.43</title>
					<path d="M0 594.94 L0.58 595.28 L1.17 594.94 L1.17 594.26 L0.58 593.93 L0 594.26 L0 594.94 Z" class="st1"/>
				</g>
				<g id="shape44-88" v:mID="44" v:groupContext="shape" transform="translate(1.11615,-17.325)">
					<title>工作表.44</title>
					<path d="M0 594.94 L0.58 595.28 L1.17 594.94 L1.17 594.26 L0.58 593.93 L0 594.26 L0 594.94 Z" class="st1"/>
				</g>
				<g id="shape45-91" v:mID="45" v:groupContext="shape" transform="translate(0.850394,-3.40157)">
					<title>工作表.45</title>
					<path d="M0 594.43 a0.850394 0.850394 -180 0 0 1.70079 0 L1.7 584.03 a0.850394 0.850394 -180 0 0 -1.70079 0 L0
								 594.43 Z" class="st3"/>
				</g>
			</g>
			<g id="group46-94" transform="translate(66.6992,0)" v:mID="46" v:groupContext="group">
				<title>工作表.46</title>
				<g id="shape47-95" v:mID="47" v:groupContext="shape" transform="translate(1.11615,-0.225)">
					<title>工作表.47</title>
					<path d="M0 594.94 L0.58 595.28 L1.17 594.94 L1.17 594.26 L0.58 593.93 L0 594.26 L0 594.94 Z" class="st1"/>
				</g>
				<g id="shape48-98" v:mID="48" v:groupContext="shape" transform="translate(1.11615,-17.325)">
					<title>工作表.48</title>
					<path d="M0 594.94 L0.58 595.28 L1.17 594.94 L1.17 594.26 L0.58 593.93 L0 594.26 L0 594.94 Z" class="st1"/>
				</g>
				<g id="shape49-101" v:mID="49" v:groupContext="shape" transform="translate(0.850394,-3.40157)">
					<title>工作表.49</title>
					<path d="M0 594.43 a0.850394 0.850394 -180 0 0 1.70079 0 L1.7 584.03 a0.850394 0.850394 -180 0 0 -1.70079 0 L0
								 594.43 Z" class="st3"/>
				</g>
			</g>
			<g id="group50-104" v:mID="50" v:groupContext="group">
				<title>工作表.50</title>
				<g id="shape51-105" v:mID="51" v:groupContext="shape" transform="translate(4.43622,-1.70079)">
					<title>工作表.51</title>
					<path d="M0 595.28 L3.97 595.28 L3.97 579.78 L0 579.78 L0 595.28 ZM3.97 595.28 L7.94 595.28 L7.94 579.78 L3.97
								 579.78 L3.97 595.28 ZM7.94 595.28 L11.91 595.28 L11.91 579.78 L7.94 579.78 L7.94 595.28 ZM11.91
								 595.28 L15.87 595.28 L15.87 579.78 L11.91 579.78 L11.91 595.28 ZM15.87 595.28 L19.84 595.28 L19.84
								 579.78 L15.87 579.78 L15.87 595.28 ZM19.84 595.28 L23.81 595.28 L23.81 579.78 L19.84 579.78 L19.84
								 595.28 ZM23.81 595.28 L27.78 595.28 L27.78 579.78 L23.81 579.78 L23.81 595.28 ZM31.75 595.28 L35.72
								 595.28 L35.72 579.78 L31.75 579.78 L31.75 595.28 ZM35.72 595.28 L39.69 595.28 L39.69 579.78 L35.72
								 579.78 L35.72 595.28 ZM39.69 595.28 L43.65 595.28 L43.65 579.78 L39.69 579.78 L39.69 595.28 ZM43.65
								 595.28 L47.62 595.28 L47.62 579.78 L43.65 579.78 L43.65 595.28 ZM47.62 595.28 L51.59 595.28 L51.59
								 579.78 L47.62 579.78 L47.62 595.28 ZM51.59 595.28 L55.56 595.28 L55.56 579.78 L51.59 579.78 L51.59
								 595.28 ZM55.56 595.28 L59.53 595.28 L59.53 579.78 L55.56 579.78 L55.56 595.28 Z" class="st4"/>
				</g>
				<g id="shape52-107" v:mID="52" v:groupContext="shape" transform="translate(4.43622,-1.70079)">
					<title>工作表.52</title>
					<path d="M0.99 592.18 a0.992126 0.992126 -180 0 0 1.98425 0 L2.98 582.88 a0.992126 0.992126 -180 0 0 -1.98425
								 0 L0.99 592.18 ZM4.96 592.18 a0.992126 0.992126 -180 1 0 1.98425 0 L6.94 582.88 a0.992126 0.992126
								 -180 0 0 -1.98425 0 L4.96 592.18 ZM8.93 592.18 a0.992126 0.992126 -180 0 0 1.98425 0 L10.91 582.88
								 a0.992126 0.992126 -180 0 0 -1.98425 0 L8.93 592.18 ZM12.9 592.18 a0.992126 0.992126 -180 1 0 1.98425
								 0 L14.88 582.88 a0.992126 0.992126 -180 0 0 -1.98425 0 L12.9 592.18 ZM16.87 592.18 a0.992126 0.992126
								 -180 0 0 1.98425 0 L18.85 582.88 a0.992126 0.992126 -180 0 0 -1.98425 0 L16.87 592.18 ZM20.83 592.18
								 a0.992126 0.992126 -180 0 0 1.98425 0 L22.82 582.88 a0.992126 0.992126 -180 0 0 -1.98425 0 L20.83
								 592.18 ZM24.8 592.18 a0.992126 0.992126 -180 0 0 1.98425 0 L26.79 582.88 a0.992126 0.992126 -180
								 0 0 -1.98425 0 L24.8 592.18 ZM32.74 592.18 a0.992126 0.992126 -180 1 0 1.98425 0 L34.72 582.88 a0.992126
								 0.992126 -180 1 0 -1.98425 0 L32.74 592.18 ZM36.71 592.18 a0.992126 0.992126 -180 1 0 1.98425 0
								 L38.69 582.88 a0.992126 0.992126 -180 1 0 -1.98425 0 L36.71 592.18 ZM40.68 592.18 a0.992126 0.992126
								 -180 1 0 1.98425 0 L42.66 582.88 a0.992126 0.992126 -180 1 0 -1.98425 0 L40.68 592.18 ZM44.65 592.18
								 a0.992126 0.992126 -180 1 0 1.98425 0 L46.63 582.88 a0.992126 0.992126 -180 1 0 -1.98425 0 L44.65
								 592.18 ZM48.61 592.18 a0.992126 0.992126 -180 1 0 1.98425 0 L50.6 582.88 a0.992126 0.992126 -180
								 1 0 -1.98425 0 L48.61 592.18 ZM52.58 592.18 a0.992126 0.992126 -180 0 0 1.98425 0 L54.57 582.88
								 a0.992126 0.992126 -180 0 0 -1.98425 0 L52.58 592.18 ZM56.55 592.18 a0.992126 0.992126 -180 1 0
								 1.98425 0 L58.54 582.88 a0.992126 0.992126 -180 1 0 -1.98425 0 L56.55 592.18 Z" class="st5"/>
				</g>
				<g id="shape53-109" v:mID="53" v:groupContext="shape" transform="translate(32.85,-6.075)">
					<title>工作表.53</title>
					<path d="M0.85 594.85 a0.425197 0.425197 -180 1 0 -0.850394 0 a0.425197 0.425197 -180 1 0 0.850394 0 ZM0.85 591.9
								 a0.425197 0.425197 -180 1 0 -0.850394 0 a0.425197 0.425197 -180 1 0 0.850394 0 ZM2.7 594.85 a0.425197
								 0.425197 -180 1 0 -0.850394 0 a0.425197 0.425197 -180 1 0 0.850394 0 ZM2.7 591.9 a0.425197 0.425197
								 -180 1 0 -0.850394 0 a0.425197 0.425197 -180 1 0 0.850394 0 ZM1.78 588.95 a0.425197 0.425197 -180
								 1 0 -0.850394 0 a0.425197 0.425197 -180 1 0 0.850394 0 Z" class="st6"/>
				</g>
			</g>
			<g id="group54-111" transform="translate(0,-18.9)" v:mID="54" v:groupContext="group">
				<title>工作表.54</title>
				<g id="shape55-112" v:mID="55" v:groupContext="shape" transform="translate(4.5,-1.8)">
					<title>工作表.55</title>
				</g>
				<g id="shape56-114" v:mID="56" v:groupContext="shape" transform="translate(4.5,-1.8)">
					<title>工作表.56</title>
				</g>
				<g id="shape57-116" v:mID="57" v:groupContext="shape" transform="translate(32.85,-6.075)">
					<title>工作表.57</title>
				</g>
			</g>
			<g id="group58-118" transform="translate(0,-37.8)" v:mID="58" v:groupContext="group">
				<title>工作表.58</title>
				<g id="shape59-119" v:mID="59" v:groupContext="shape" transform="translate(4.5,-1.8)">
					<title>工作表.59</title>
				</g>
				<g id="shape60-121" v:mID="60" v:groupContext="shape" transform="translate(4.5,-1.8)">
					<title>工作表.60</title>
				</g>
				<g id="shape61-123" v:mID="61" v:groupContext="shape" transform="translate(32.85,-6.075)">
					<title>工作表.61</title>
				</g>
			</g>
			<g id="group62-125" transform="translate(0,-56.7)" v:mID="62" v:groupContext="group">
				<title>工作表.62</title>
				<g id="shape63-126" v:mID="63" v:groupContext="shape" transform="translate(4.5,-1.8)">
					<title>工作表.63</title>
				</g>
				<g id="shape64-128" v:mID="64" v:groupContext="shape" transform="translate(4.5,-1.8)">
					<title>工作表.64</title>
				</g>
				<g id="shape65-130" v:mID="65" v:groupContext="shape" transform="translate(32.85,-6.075)">
					<title>工作表.65</title>
				</g>
			</g>
			<g id="shape66-132" v:mID="66" v:groupContext="shape" transform="translate(-32.8904,0)">
				<title>工作表.66</title>
				<v:textBlock v:margins="rect(0,0,0,0)" v:tabSpace="42.5197"/>
				<v:textRect cx="9.60522" cy="585.826" width="19.22" height="18.9"/>
				<text x="2.72" y="589.43" class="st2" v:langID="2052"><v:paragraph v:horizAlign="2"/><v:tabList/>3 U</text>			</g>
			<g id="shape40-134" v:mID="40" v:groupContext="groupContent">
				<v:textBlock v:margins="rect(0,0,0,0)" v:tabSpace="42.5197"/>
				<v:textRect cx="131.835" cy="585.826" width="113.19" height="15.9788"/>
				<rect v:rectContext="textBkgnd" x="76.5982" y="577.838" width="110.474" height="15.9752" class="st7"/>
				<text x="76.6" y="589.82" class="st2" v:langID="2052"><v:paragraph v:horizAlign="1"/><v:tabList/>Uit<tspan
							class="st8">统一存储</tspan><tspan class="st8">，</tspan><tspan class="st8">无标签</tspan></text>			</g>
		</g>
		<g id="group67-140" transform="translate(52.5543,-408.792)" v:mID="67" v:groupContext="group">
			<title>RAID 阵列.67</title>
			<desc>Uit统一存储无标签</desc>
			<g id="shape68-141" v:mID="68" v:groupContext="shape" transform="translate(-1.70079,0)">
				<title>工作表.68</title>
				<rect x="0" y="576.376" width="71.8016" height="18.9" class="st1"/>
			</g>
			<g id="group69-144" transform="translate(-1.70079,0)" v:mID="69" v:groupContext="group">
				<title>工作表.69</title>
				<g id="shape70-145" v:mID="70" v:groupContext="shape" transform="translate(1.11615,-0.225)">
					<title>工作表.70</title>
					<path d="M0 594.94 L0.58 595.28 L1.17 594.94 L1.17 594.26 L0.58 593.93 L0 594.26 L0 594.94 Z" class="st1"/>
				</g>
				<g id="shape71-148" v:mID="71" v:groupContext="shape" transform="translate(1.11615,-17.325)">
					<title>工作表.71</title>
					<path d="M0 594.94 L0.58 595.28 L1.17 594.94 L1.17 594.26 L0.58 593.93 L0 594.26 L0 594.94 Z" class="st1"/>
				</g>
				<g id="shape72-151" v:mID="72" v:groupContext="shape" transform="translate(0.850394,-3.40157)">
					<title>工作表.72</title>
					<path d="M0 594.43 a0.850394 0.850394 -180 0 0 1.70079 0 L1.7 584.03 a0.850394 0.850394 -180 0 0 -1.70079 0 L0
								 594.43 Z" class="st3"/>
				</g>
			</g>
			<g id="group73-154" transform="translate(66.6992,0)" v:mID="73" v:groupContext="group">
				<title>工作表.73</title>
				<g id="shape74-155" v:mID="74" v:groupContext="shape" transform="translate(1.11615,-0.225)">
					<title>工作表.74</title>
					<path d="M0 594.94 L0.58 595.28 L1.17 594.94 L1.17 594.26 L0.58 593.93 L0 594.26 L0 594.94 Z" class="st1"/>
				</g>
				<g id="shape75-158" v:mID="75" v:groupContext="shape" transform="translate(1.11615,-17.325)">
					<title>工作表.75</title>
					<path d="M0 594.94 L0.58 595.28 L1.17 594.94 L1.17 594.26 L0.58 593.93 L0 594.26 L0 594.94 Z" class="st1"/>
				</g>
				<g id="shape76-161" v:mID="76" v:groupContext="shape" transform="translate(0.850394,-3.40157)">
					<title>工作表.76</title>
					<path d="M0 594.43 a0.850394 0.850394 -180 0 0 1.70079 0 L1.7 584.03 a0.850394 0.850394 -180 0 0 -1.70079 0 L0
								 594.43 Z" class="st3"/>
				</g>
			</g>
			<g id="group77-164" v:mID="77" v:groupContext="group">
				<title>工作表.77</title>
				<g id="shape78-165" v:mID="78" v:groupContext="shape" transform="translate(4.43622,-1.70079)">
					<title>工作表.78</title>
					<path d="M0 595.28 L3.97 595.28 L3.97 579.78 L0 579.78 L0 595.28 ZM3.97 595.28 L7.94 595.28 L7.94 579.78 L3.97
								 579.78 L3.97 595.28 ZM7.94 595.28 L11.91 595.28 L11.91 579.78 L7.94 579.78 L7.94 595.28 ZM11.91
								 595.28 L15.87 595.28 L15.87 579.78 L11.91 579.78 L11.91 595.28 ZM15.87 595.28 L19.84 595.28 L19.84
								 579.78 L15.87 579.78 L15.87 595.28 ZM19.84 595.28 L23.81 595.28 L23.81 579.78 L19.84 579.78 L19.84
								 595.28 ZM23.81 595.28 L27.78 595.28 L27.78 579.78 L23.81 579.78 L23.81 595.28 ZM31.75 595.28 L35.72
								 595.28 L35.72 579.78 L31.75 579.78 L31.75 595.28 ZM35.72 595.28 L39.69 595.28 L39.69 579.78 L35.72
								 579.78 L35.72 595.28 ZM39.69 595.28 L43.65 595.28 L43.65 579.78 L39.69 579.78 L39.69 595.28 ZM43.65
								 595.28 L47.62 595.28 L47.62 579.78 L43.65 579.78 L43.65 595.28 ZM47.62 595.28 L51.59 595.28 L51.59
								 579.78 L47.62 579.78 L47.62 595.28 ZM51.59 595.28 L55.56 595.28 L55.56 579.78 L51.59 579.78 L51.59
								 595.28 ZM55.56 595.28 L59.53 595.28 L59.53 579.78 L55.56 579.78 L55.56 595.28 Z" class="st4"/>
				</g>
				<g id="shape79-167" v:mID="79" v:groupContext="shape" transform="translate(4.43622,-1.70079)">
					<title>工作表.79</title>
					<path d="M0.99 592.18 a0.992126 0.992126 -180 0 0 1.98425 0 L2.98 582.88 a0.992126 0.992126 -180 0 0 -1.98425
								 0 L0.99 592.18 ZM4.96 592.18 a0.992126 0.992126 -180 1 0 1.98425 0 L6.94 582.88 a0.992126 0.992126
								 -180 0 0 -1.98425 0 L4.96 592.18 ZM8.93 592.18 a0.992126 0.992126 -180 0 0 1.98425 0 L10.91 582.88
								 a0.992126 0.992126 -180 0 0 -1.98425 0 L8.93 592.18 ZM12.9 592.18 a0.992126 0.992126 -180 1 0 1.98425
								 0 L14.88 582.88 a0.992126 0.992126 -180 0 0 -1.98425 0 L12.9 592.18 ZM16.87 592.18 a0.992126 0.992126
								 -180 0 0 1.98425 0 L18.85 582.88 a0.992126 0.992126 -180 0 0 -1.98425 0 L16.87 592.18 ZM20.83 592.18
								 a0.992126 0.992126 -180 0 0 1.98425 0 L22.82 582.88 a0.992126 0.992126 -180 0 0 -1.98425 0 L20.83
								 592.18 ZM24.8 592.18 a0.992126 0.992126 -180 0 0 1.98425 0 L26.79 582.88 a0.992126 0.992126 -180
								 0 0 -1.98425 0 L24.8 592.18 ZM32.74 592.18 a0.992126 0.992126 -180 1 0 1.98425 0 L34.72 582.88 a0.992126
								 0.992126 -180 1 0 -1.98425 0 L32.74 592.18 ZM36.71 592.18 a0.992126 0.992126 -180 1 0 1.98425 0
								 L38.69 582.88 a0.992126 0.992126 -180 1 0 -1.98425 0 L36.71 592.18 ZM40.68 592.18 a0.992126 0.992126
								 -180 1 0 1.98425 0 L42.66 582.88 a0.992126 0.992126 -180 1 0 -1.98425 0 L40.68 592.18 ZM44.65 592.18
								 a0.992126 0.992126 -180 1 0 1.98425 0 L46.63 582.88 a0.992126 0.992126 -180 1 0 -1.98425 0 L44.65
								 592.18 ZM48.61 592.18 a0.992126 0.992126 -180 1 0 1.98425 0 L50.6 582.88 a0.992126 0.992126 -180
								 1 0 -1.98425 0 L48.61 592.18 ZM52.58 592.18 a0.992126 0.992126 -180 0 0 1.98425 0 L54.57 582.88
								 a0.992126 0.992126 -180 0 0 -1.98425 0 L52.58 592.18 ZM56.55 592.18 a0.992126 0.992126 -180 1 0
								 1.98425 0 L58.54 582.88 a0.992126 0.992126 -180 1 0 -1.98425 0 L56.55 592.18 Z" class="st5"/>
				</g>
				<g id="shape80-169" v:mID="80" v:groupContext="shape" transform="translate(32.85,-6.075)">
					<title>工作表.80</title>
					<path d="M0.85 594.85 a0.425197 0.425197 -180 1 0 -0.850394 0 a0.425197 0.425197 -180 1 0 0.850394 0 ZM0.85 591.9
								 a0.425197 0.425197 -180 1 0 -0.850394 0 a0.425197 0.425197 -180 1 0 0.850394 0 ZM2.7 594.85 a0.425197
								 0.425197 -180 1 0 -0.850394 0 a0.425197 0.425197 -180 1 0 0.850394 0 ZM2.7 591.9 a0.425197 0.425197
								 -180 1 0 -0.850394 0 a0.425197 0.425197 -180 1 0 0.850394 0 ZM1.78 588.95 a0.425197 0.425197 -180
								 1 0 -0.850394 0 a0.425197 0.425197 -180 1 0 0.850394 0 Z" class="st6"/>
				</g>
			</g>
			<g id="group81-171" transform="translate(0,-18.9)" v:mID="81" v:groupContext="group">
				<title>工作表.81</title>
				<g id="shape82-172" v:mID="82" v:groupContext="shape" transform="translate(4.5,-1.8)">
					<title>工作表.82</title>
				</g>
				<g id="shape83-174" v:mID="83" v:groupContext="shape" transform="translate(4.5,-1.8)">
					<title>工作表.83</title>
				</g>
				<g id="shape84-176" v:mID="84" v:groupContext="shape" transform="translate(32.85,-6.075)">
					<title>工作表.84</title>
				</g>
			</g>
			<g id="group85-178" transform="translate(0,-37.8)" v:mID="85" v:groupContext="group">
				<title>工作表.85</title>
				<g id="shape86-179" v:mID="86" v:groupContext="shape" transform="translate(4.5,-1.8)">
					<title>工作表.86</title>
				</g>
				<g id="shape87-181" v:mID="87" v:groupContext="shape" transform="translate(4.5,-1.8)">
					<title>工作表.87</title>
				</g>
				<g id="shape88-183" v:mID="88" v:groupContext="shape" transform="translate(32.85,-6.075)">
					<title>工作表.88</title>
				</g>
			</g>
			<g id="group89-185" transform="translate(0,-56.7)" v:mID="89" v:groupContext="group">
				<title>工作表.89</title>
				<g id="shape90-186" v:mID="90" v:groupContext="shape" transform="translate(4.5,-1.8)">
					<title>工作表.90</title>
				</g>
				<g id="shape91-188" v:mID="91" v:groupContext="shape" transform="translate(4.5,-1.8)">
					<title>工作表.91</title>
				</g>
				<g id="shape92-190" v:mID="92" v:groupContext="shape" transform="translate(32.85,-6.075)">
					<title>工作表.92</title>
				</g>
			</g>
			<g id="shape93-192" v:mID="93" v:groupContext="shape" transform="translate(-32.8904,0)">
				<title>工作表.93</title>
				<v:textBlock v:margins="rect(0,0,0,0)" v:tabSpace="42.5197"/>
				<v:textRect cx="9.60522" cy="585.826" width="19.22" height="18.9"/>
				<text x="2.72" y="589.43" class="st2" v:langID="2052"><v:paragraph v:horizAlign="2"/><v:tabList/>3 U</text>			</g>
			<g id="shape67-194" v:mID="67" v:groupContext="groupContent">
				<v:textBlock v:margins="rect(0,0,0,0)" v:tabSpace="42.5197"/>
				<v:textRect cx="131.835" cy="585.826" width="113.19" height="15.9788"/>
				<rect v:rectContext="textBkgnd" x="76.5982" y="577.838" width="110.474" height="15.9752" class="st7"/>
				<text x="76.6" y="589.82" class="st2" v:langID="2052"><v:paragraph v:horizAlign="1"/><v:tabList/>Uit<tspan
							class="st8">统一存储</tspan><tspan class="st8">，</tspan><tspan class="st8">无标签</tspan></text>			</g>
		</g>
		<g id="group94-200" transform="translate(52.5543,-433.992)" v:mID="94" v:groupContext="group">
			<title>RAID 阵列.94</title>
			<desc>IBM DS5020阵列柜资产标签末位0040</desc>
			<g id="shape95-201" v:mID="95" v:groupContext="shape" transform="translate(-1.70079,0)">
				<title>工作表.95</title>
				<rect x="0" y="576.376" width="71.8016" height="18.9" class="st1"/>
			</g>
			<g id="group96-204" transform="translate(-1.70079,0)" v:mID="96" v:groupContext="group">
				<title>工作表.96</title>
				<g id="shape97-205" v:mID="97" v:groupContext="shape" transform="translate(1.11615,-0.225)">
					<title>工作表.97</title>
					<path d="M0 594.94 L0.58 595.28 L1.17 594.94 L1.17 594.26 L0.58 593.93 L0 594.26 L0 594.94 Z" class="st1"/>
				</g>
				<g id="shape98-208" v:mID="98" v:groupContext="shape" transform="translate(1.11615,-17.325)">
					<title>工作表.98</title>
					<path d="M0 594.94 L0.58 595.28 L1.17 594.94 L1.17 594.26 L0.58 593.93 L0 594.26 L0 594.94 Z" class="st1"/>
				</g>
				<g id="shape99-211" v:mID="99" v:groupContext="shape" transform="translate(0.850394,-3.40157)">
					<title>工作表.99</title>
					<path d="M0 594.43 a0.850394 0.850394 -180 0 0 1.70079 0 L1.7 584.03 a0.850394 0.850394 -180 0 0 -1.70079 0 L0
								 594.43 Z" class="st3"/>
				</g>
			</g>
			<g id="group100-214" transform="translate(66.6992,0)" v:mID="100" v:groupContext="group">
				<title>工作表.100</title>
				<g id="shape101-215" v:mID="101" v:groupContext="shape" transform="translate(1.11615,-0.225)">
					<title>工作表.101</title>
					<path d="M0 594.94 L0.58 595.28 L1.17 594.94 L1.17 594.26 L0.58 593.93 L0 594.26 L0 594.94 Z" class="st1"/>
				</g>
				<g id="shape102-218" v:mID="102" v:groupContext="shape" transform="translate(1.11615,-17.325)">
					<title>工作表.102</title>
					<path d="M0 594.94 L0.58 595.28 L1.17 594.94 L1.17 594.26 L0.58 593.93 L0 594.26 L0 594.94 Z" class="st1"/>
				</g>
				<g id="shape103-221" v:mID="103" v:groupContext="shape" transform="translate(0.850394,-3.40157)">
					<title>工作表.103</title>
					<path d="M0 594.43 a0.850394 0.850394 -180 0 0 1.70079 0 L1.7 584.03 a0.850394 0.850394 -180 0 0 -1.70079 0 L0
								 594.43 Z" class="st3"/>
				</g>
			</g>
			<g id="group104-224" v:mID="104" v:groupContext="group">
				<title>工作表.104</title>
				<g id="shape105-225" v:mID="105" v:groupContext="shape" transform="translate(4.43622,-1.70079)">
					<title>工作表.105</title>
					<path d="M0 595.28 L3.97 595.28 L3.97 579.78 L0 579.78 L0 595.28 ZM3.97 595.28 L7.94 595.28 L7.94 579.78 L3.97
								 579.78 L3.97 595.28 ZM7.94 595.28 L11.91 595.28 L11.91 579.78 L7.94 579.78 L7.94 595.28 ZM11.91
								 595.28 L15.87 595.28 L15.87 579.78 L11.91 579.78 L11.91 595.28 ZM15.87 595.28 L19.84 595.28 L19.84
								 579.78 L15.87 579.78 L15.87 595.28 ZM19.84 595.28 L23.81 595.28 L23.81 579.78 L19.84 579.78 L19.84
								 595.28 ZM23.81 595.28 L27.78 595.28 L27.78 579.78 L23.81 579.78 L23.81 595.28 ZM31.75 595.28 L35.72
								 595.28 L35.72 579.78 L31.75 579.78 L31.75 595.28 ZM35.72 595.28 L39.69 595.28 L39.69 579.78 L35.72
								 579.78 L35.72 595.28 ZM39.69 595.28 L43.65 595.28 L43.65 579.78 L39.69 579.78 L39.69 595.28 ZM43.65
								 595.28 L47.62 595.28 L47.62 579.78 L43.65 579.78 L43.65 595.28 ZM47.62 595.28 L51.59 595.28 L51.59
								 579.78 L47.62 579.78 L47.62 595.28 ZM51.59 595.28 L55.56 595.28 L55.56 579.78 L51.59 579.78 L51.59
								 595.28 ZM55.56 595.28 L59.53 595.28 L59.53 579.78 L55.56 579.78 L55.56 595.28 Z" class="st4"/>
				</g>
				<g id="shape106-227" v:mID="106" v:groupContext="shape" transform="translate(4.43622,-1.70079)">
					<title>工作表.106</title>
					<path d="M0.99 592.18 a0.992126 0.992126 -180 0 0 1.98425 0 L2.98 582.88 a0.992126 0.992126 -180 0 0 -1.98425
								 0 L0.99 592.18 ZM4.96 592.18 a0.992126 0.992126 -180 1 0 1.98425 0 L6.94 582.88 a0.992126 0.992126
								 -180 0 0 -1.98425 0 L4.96 592.18 ZM8.93 592.18 a0.992126 0.992126 -180 0 0 1.98425 0 L10.91 582.88
								 a0.992126 0.992126 -180 0 0 -1.98425 0 L8.93 592.18 ZM12.9 592.18 a0.992126 0.992126 -180 1 0 1.98425
								 0 L14.88 582.88 a0.992126 0.992126 -180 0 0 -1.98425 0 L12.9 592.18 ZM16.87 592.18 a0.992126 0.992126
								 -180 0 0 1.98425 0 L18.85 582.88 a0.992126 0.992126 -180 0 0 -1.98425 0 L16.87 592.18 ZM20.83 592.18
								 a0.992126 0.992126 -180 0 0 1.98425 0 L22.82 582.88 a0.992126 0.992126 -180 0 0 -1.98425 0 L20.83
								 592.18 ZM24.8 592.18 a0.992126 0.992126 -180 0 0 1.98425 0 L26.79 582.88 a0.992126 0.992126 -180
								 0 0 -1.98425 0 L24.8 592.18 ZM32.74 592.18 a0.992126 0.992126 -180 1 0 1.98425 0 L34.72 582.88 a0.992126
								 0.992126 -180 1 0 -1.98425 0 L32.74 592.18 ZM36.71 592.18 a0.992126 0.992126 -180 1 0 1.98425 0
								 L38.69 582.88 a0.992126 0.992126 -180 1 0 -1.98425 0 L36.71 592.18 ZM40.68 592.18 a0.992126 0.992126
								 -180 1 0 1.98425 0 L42.66 582.88 a0.992126 0.992126 -180 1 0 -1.98425 0 L40.68 592.18 ZM44.65 592.18
								 a0.992126 0.992126 -180 1 0 1.98425 0 L46.63 582.88 a0.992126 0.992126 -180 1 0 -1.98425 0 L44.65
								 592.18 ZM48.61 592.18 a0.992126 0.992126 -180 1 0 1.98425 0 L50.6 582.88 a0.992126 0.992126 -180
								 1 0 -1.98425 0 L48.61 592.18 ZM52.58 592.18 a0.992126 0.992126 -180 0 0 1.98425 0 L54.57 582.88
								 a0.992126 0.992126 -180 0 0 -1.98425 0 L52.58 592.18 ZM56.55 592.18 a0.992126 0.992126 -180 1 0
								 1.98425 0 L58.54 582.88 a0.992126 0.992126 -180 1 0 -1.98425 0 L56.55 592.18 Z" class="st5"/>
				</g>
				<g id="shape107-229" v:mID="107" v:groupContext="shape" transform="translate(32.85,-6.075)">
					<title>工作表.107</title>
					<path d="M0.85 594.85 a0.425197 0.425197 -180 1 0 -0.850394 0 a0.425197 0.425197 -180 1 0 0.850394 0 ZM0.85 591.9
								 a0.425197 0.425197 -180 1 0 -0.850394 0 a0.425197 0.425197 -180 1 0 0.850394 0 ZM2.7 594.85 a0.425197
								 0.425197 -180 1 0 -0.850394 0 a0.425197 0.425197 -180 1 0 0.850394 0 ZM2.7 591.9 a0.425197 0.425197
								 -180 1 0 -0.850394 0 a0.425197 0.425197 -180 1 0 0.850394 0 ZM1.78 588.95 a0.425197 0.425197 -180
								 1 0 -0.850394 0 a0.425197 0.425197 -180 1 0 0.850394 0 Z" class="st6"/>
				</g>
			</g>
			<g id="group108-231" transform="translate(0,-18.9)" v:mID="108" v:groupContext="group">
				<title>工作表.108</title>
				<g id="shape109-232" v:mID="109" v:groupContext="shape" transform="translate(4.5,-1.8)">
					<title>工作表.109</title>
				</g>
				<g id="shape110-234" v:mID="110" v:groupContext="shape" transform="translate(4.5,-1.8)">
					<title>工作表.110</title>
				</g>
				<g id="shape111-236" v:mID="111" v:groupContext="shape" transform="translate(32.85,-6.075)">
					<title>工作表.111</title>
				</g>
			</g>
			<g id="group112-238" transform="translate(0,-37.8)" v:mID="112" v:groupContext="group">
				<title>工作表.112</title>
				<g id="shape113-239" v:mID="113" v:groupContext="shape" transform="translate(4.5,-1.8)">
					<title>工作表.113</title>
				</g>
				<g id="shape114-241" v:mID="114" v:groupContext="shape" transform="translate(4.5,-1.8)">
					<title>工作表.114</title>
				</g>
				<g id="shape115-243" v:mID="115" v:groupContext="shape" transform="translate(32.85,-6.075)">
					<title>工作表.115</title>
				</g>
			</g>
			<g id="group116-245" transform="translate(0,-56.7)" v:mID="116" v:groupContext="group">
				<title>工作表.116</title>
				<g id="shape117-246" v:mID="117" v:groupContext="shape" transform="translate(4.5,-1.8)">
					<title>工作表.117</title>
				</g>
				<g id="shape118-248" v:mID="118" v:groupContext="shape" transform="translate(4.5,-1.8)">
					<title>工作表.118</title>
				</g>
				<g id="shape119-250" v:mID="119" v:groupContext="shape" transform="translate(32.85,-6.075)">
					<title>工作表.119</title>
				</g>
			</g>
			<g id="shape120-252" v:mID="120" v:groupContext="shape" transform="translate(-32.8904,0)">
				<title>工作表.120</title>
				<v:textBlock v:margins="rect(0,0,0,0)" v:tabSpace="42.5197"/>
				<v:textRect cx="9.60522" cy="585.826" width="19.22" height="18.9"/>
				<text x="2.72" y="589.43" class="st2" v:langID="2052"><v:paragraph v:horizAlign="2"/><v:tabList/>3 U</text>			</g>
			<g id="shape94-254" v:mID="94" v:groupContext="groupContent">
				<v:textBlock v:margins="rect(0,0,0,0)" v:tabSpace="42.5197"/>
				<v:textRect cx="178.637" cy="585.826" width="206.8" height="15.9788"/>
				<rect v:rectContext="textBkgnd" x="76.5982" y="577.838" width="204.077" height="15.9752" class="st7"/>
				<text x="76.6" y="589.82" class="st2" v:langID="2052"><v:paragraph v:horizAlign="1"/><v:tabList/>IBM DS5020<tspan
							class="st8">阵列柜</tspan><tspan class="st8">，</tspan><tspan class="st8">资产标签末位</tspan>0040</text>			</g>
		</g>
		<g id="group121-260" transform="translate(52.5543,-459.192)" v:mID="121" v:groupContext="group">
			<title>服务器</title>
			<desc>IBM p550小型机资产标签末位9031</desc>
			<g id="shape122-261" v:mID="122" v:groupContext="shape" transform="translate(1.70079,0)">
				<title>工作表.122</title>
				<rect x="0" y="570.076" width="64.9984" height="25.2" class="st1"/>
			</g>
			<g id="shape123-264" v:mID="123" v:groupContext="shape" transform="translate(46.8,-13.4463)">
				<title>工作表.123</title>
				<rect x="0" y="592.99" width="9" height="2.286" class="st9"/>
			</g>
			<g id="group124-266" transform="translate(-1.70079,0)" v:mID="124" v:groupContext="group">
				<title>工作表.124</title>
				<g id="shape125-267" v:mID="125" v:groupContext="shape">
					<title>工作表.125</title>
					<rect x="0" y="588.976" width="3.40157" height="6.3" class="st1"/>
				</g>
				<g id="shape126-270" v:mID="126" v:groupContext="shape" transform="translate(1.11615,-0.225)">
					<title>工作表.126</title>
					<path d="M0 594.94 L0.58 595.28 L1.17 594.94 L1.17 594.26 L0.58 593.93 L0 594.26 L0 594.94 Z" class="st1"/>
				</g>
				<g id="shape127-273" v:mID="127" v:groupContext="shape" transform="translate(1.11615,-4.725)">
					<title>工作表.127</title>
					<path d="M0 594.94 L0.58 595.28 L1.17 594.94 L1.17 594.26 L0.58 593.93 L0 594.26 L0 594.94 Z" class="st1"/>
				</g>
			</g>
			<g id="group128-276" transform="translate(66.6992,0)" v:mID="128" v:groupContext="group">
				<title>工作表.128</title>
				<g id="shape129-277" v:mID="129" v:groupContext="shape">
					<title>工作表.129</title>
					<rect x="0" y="588.976" width="3.40157" height="6.3" class="st1"/>
				</g>
				<g id="shape130-280" v:mID="130" v:groupContext="shape" transform="translate(1.11615,-0.225)">
					<title>工作表.130</title>
					<path d="M0 594.94 L0.58 595.28 L1.17 594.94 L1.17 594.26 L0.58 593.93 L0 594.26 L0 594.94 Z" class="st1"/>
				</g>
				<g id="shape131-283" v:mID="131" v:groupContext="shape" transform="translate(1.11615,-4.725)">
					<title>工作表.131</title>
					<path d="M0 594.94 L0.58 595.28 L1.17 594.94 L1.17 594.26 L0.58 593.93 L0 594.26 L0 594.94 Z" class="st1"/>
				</g>
			</g>
			<g id="group132-286" transform="translate(-1.70079,-18.9)" v:mID="132" v:groupContext="group">
				<title>工作表.132</title>
				<g id="shape133-287" v:mID="133" v:groupContext="shape">
					<title>工作表.133</title>
					<rect x="0" y="588.976" width="3.40157" height="6.3" class="st1"/>
				</g>
				<g id="shape134-290" v:mID="134" v:groupContext="shape" transform="translate(1.11615,-0.225)">
					<title>工作表.134</title>
					<path d="M0 594.94 L0.58 595.28 L1.17 594.94 L1.17 594.26 L0.58 593.93 L0 594.26 L0 594.94 Z" class="st1"/>
				</g>
				<g id="shape135-293" v:mID="135" v:groupContext="shape" transform="translate(1.11615,-4.725)">
					<title>工作表.135</title>
					<path d="M0 594.94 L0.58 595.28 L1.17 594.94 L1.17 594.26 L0.58 593.93 L0 594.26 L0 594.94 Z" class="st1"/>
				</g>
			</g>
			<g id="group136-296" transform="translate(66.6992,-18.9)" v:mID="136" v:groupContext="group">
				<title>工作表.136</title>
				<g id="shape137-297" v:mID="137" v:groupContext="shape">
					<title>工作表.137</title>
					<rect x="0" y="588.976" width="3.40157" height="6.3" class="st1"/>
				</g>
				<g id="shape138-300" v:mID="138" v:groupContext="shape" transform="translate(1.11615,-0.225)">
					<title>工作表.138</title>
					<path d="M0 594.94 L0.58 595.28 L1.17 594.94 L1.17 594.26 L0.58 593.93 L0 594.26 L0 594.94 Z" class="st1"/>
				</g>
				<g id="shape139-303" v:mID="139" v:groupContext="shape" transform="translate(1.11615,-4.725)">
					<title>工作表.139</title>
					<path d="M0 594.94 L0.58 595.28 L1.17 594.94 L1.17 594.26 L0.58 593.93 L0 594.26 L0 594.94 Z" class="st1"/>
				</g>
			</g>
			<g id="shape140-306" v:mID="140" v:groupContext="shape" transform="translate(5.24409,0)">
				<title>工作表.140</title>
				<path d="M30.73 586.77 L57.91 586.77 L57.91 576 L30.73 576 L30.73 586.77" class="st10"/>
				<path d="M36.04 584.96 L56.14 584.96 L56.14 577.81 L36.04 577.81 L36.04 584.96" class="st10"/>
				<path d="M37.81 583.37 L54.37 583.37 L54.37 578.69 L37.81 578.69 L37.81 583.37" class="st10"/>
				<path d="M0 593.15 L57.91 593.15" class="st10"/>
				<path d="M0 574.33 L0 570.08" class="st10"/>
				<path d="M57.91 574.33 L57.91 570.08" class="st10"/>
				<path d="M30.73 586.77 L36.04 584.96" class="st10"/>
				<path d="M30.73 576 L36.04 577.81" class="st10"/>
				<path d="M57.91 586.77 L56.14 584.96" class="st10"/>
				<path d="M57.91 576 L56.14 577.81" class="st10"/>
				<path d="M43.43 578.69 L43.43 577.81" class="st10"/>
				<path d="M50.38 578.69 L50.38 577.81" class="st10"/>
			</g>
			<g id="shape141-320" v:mID="141" v:groupContext="shape" transform="translate(5.24409,-8.50394)">
				<title>工作表.141</title>
				<path d="M0 595.28 L0.45 593.23 L28.5 593.23 L28.96 595.28 L28.96 593.01 L0 593.01 L0 595.28 ZM0 591.02 L0.45 588.98
							 L28.5 588.98 L28.96 591.02 L28.96 588.76 L0 588.76 L0 591.02 ZM0 586.77 L0.45 584.73 L28.5 584.73 L28.96
							 586.77 L28.96 584.5 L0 584.5 L0 586.77 Z" class="st11"/>
				<path d="M0 595.28 L28.96 595.28 L28.96 593.01 L0 593.01 L0 595.28" class="st10"/>
				<path d="M0 595.28 L0.45 593.23 L28.5 593.23 L28.96 595.28 L28.96 593.01 L0 593.01 L0 595.28" class="st10"/>
				<path d="M0 591.02 L28.96 591.02 L28.96 588.76 L0 588.76 L0 591.02" class="st10"/>
				<path d="M0 591.02 L0.45 588.98 L28.5 588.98 L28.96 591.02 L28.96 588.76 L0 588.76 L0 591.02" class="st10"/>
				<path d="M0 586.77 L28.96 586.77 L28.96 584.5 L0 584.5 L0 586.77" class="st10"/>
				<path d="M0 586.77 L0.45 584.73 L28.5 584.73 L28.96 586.77 L28.96 584.5 L0 584.5 L0 586.77" class="st10"/>
			</g>
			<g id="shape142-328" v:mID="142" v:groupContext="shape" transform="translate(44.8299,-11.2305)">
				<title>工作表.142</title>
				<path d="M0 594.6 a0.675 0.675 -180 1 1 1.35 0 a0.675 0.675 -180 1 1 -1.35 0 ZM2.03 594.6 a0.675 0.675 -180 1 1 1.35
							 0 a0.675 0.675 -180 1 1 -1.35 0 ZM4.73 595.28 L6.07 595.28 L6.07 593.93 L4.73 593.93 a0.675 0.675 -180
							 1 0 9.76996E-015 1.35 ZM6.07 595.28 L7.42 595.28 a0.675 0.675 -180 0 0 0 -1.35 L6.07 593.93 L6.07 595.28
							 ZM9.45 595.28 L10.8 595.28 L10.8 593.93 L9.45 593.93 a0.675 0.675 -180 1 0 8.88178E-015 1.35 ZM10.8
							 595.28 L12.15 595.28 a0.675 0.675 -180 0 0 0 -1.35 L10.8 593.93 L10.8 595.28 Z" class="st12"/>
			</g>
			<g id="shape143-330" v:mID="143" v:groupContext="shape" transform="translate(5.24409,0)">
				<title>工作表.143</title>
				<path d="M0 591.02 L0.45 588.98 L57.46 588.98 L57.91 591.02 L57.91 588.76 L0 588.76 L0 591.02 ZM0 574.02 L0.45 571.97
							 L57.46 571.97 L57.91 574.02 L57.91 571.75 L0 571.75 L0 574.02 Z" class="st11"/>
				<path d="M0 591.02 L57.91 591.02 L57.91 588.76 L0 588.76 L0 591.02" class="st10"/>
				<path d="M0 591.02 L0.45 588.98 L57.46 588.98 L57.91 591.02 L57.91 588.76 L0 588.76 L0 591.02" class="st10"/>
				<path d="M0 574.02 L57.91 574.02 L57.91 571.75 L0 571.75 L0 574.02" class="st10"/>
				<path d="M0 574.02 L0.45 571.97 L57.46 571.97 L57.91 574.02 L57.91 571.75 L0 571.75 L0 574.02" class="st10"/>
			</g>
			<g id="shape144-336" v:mID="144" v:groupContext="shape" transform="translate(-32.8904,0)">
				<title>工作表.144</title>
				<v:textBlock v:margins="rect(0,0,0,0)" v:tabSpace="42.5197"/>
				<v:textRect cx="9.60522" cy="582.676" width="19.22" height="25.2"/>
				<text x="2.72" y="586.28" class="st2" v:langID="2052"><v:paragraph v:horizAlign="2"/><v:tabList/>4 U</text>			</g>
			<g id="shape121-338" v:mID="121" v:groupContext="groupContent">
				<v:textBlock v:margins="rect(0,0,0,0)" v:tabSpace="42.5197"/>
				<v:textRect cx="172.3" cy="582.676" width="194.12" height="15.9788"/>
				<rect v:rectContext="textBkgnd" x="76.5982" y="574.688" width="191.404" height="15.9752" class="st7"/>
				<text x="76.6" y="586.67" class="st2" v:langID="2052"><v:paragraph v:horizAlign="1"/><v:tabList/>IBM p550<tspan
							class="st8">小型机</tspan><tspan class="st8">，</tspan><tspan class="st8">资产标签末位</tspan>9031</text>			</g>
		</g>
		<g id="group145-344" transform="translate(52.5543,-490.692)" v:mID="145" v:groupContext="group">
			<title>服务器.145</title>
			<desc>IBM p550小型机资产标签末位9032</desc>
			<g id="shape146-345" v:mID="146" v:groupContext="shape" transform="translate(1.70079,0)">
				<title>工作表.146</title>
				<rect x="0" y="570.076" width="64.9984" height="25.2" class="st1"/>
			</g>
			<g id="shape147-348" v:mID="147" v:groupContext="shape" transform="translate(46.8,-13.4463)">
				<title>工作表.147</title>
				<rect x="0" y="592.99" width="9" height="2.286" class="st9"/>
			</g>
			<g id="group148-350" transform="translate(-1.70079,0)" v:mID="148" v:groupContext="group">
				<title>工作表.148</title>
				<g id="shape149-351" v:mID="149" v:groupContext="shape">
					<title>工作表.149</title>
					<rect x="0" y="588.976" width="3.40157" height="6.3" class="st1"/>
				</g>
				<g id="shape150-354" v:mID="150" v:groupContext="shape" transform="translate(1.11615,-0.225)">
					<title>工作表.150</title>
					<path d="M0 594.94 L0.58 595.28 L1.17 594.94 L1.17 594.26 L0.58 593.93 L0 594.26 L0 594.94 Z" class="st1"/>
				</g>
				<g id="shape151-357" v:mID="151" v:groupContext="shape" transform="translate(1.11615,-4.725)">
					<title>工作表.151</title>
					<path d="M0 594.94 L0.58 595.28 L1.17 594.94 L1.17 594.26 L0.58 593.93 L0 594.26 L0 594.94 Z" class="st1"/>
				</g>
			</g>
			<g id="group152-360" transform="translate(66.6992,0)" v:mID="152" v:groupContext="group">
				<title>工作表.152</title>
				<g id="shape153-361" v:mID="153" v:groupContext="shape">
					<title>工作表.153</title>
					<rect x="0" y="588.976" width="3.40157" height="6.3" class="st1"/>
				</g>
				<g id="shape154-364" v:mID="154" v:groupContext="shape" transform="translate(1.11615,-0.225)">
					<title>工作表.154</title>
					<path d="M0 594.94 L0.58 595.28 L1.17 594.94 L1.17 594.26 L0.58 593.93 L0 594.26 L0 594.94 Z" class="st1"/>
				</g>
				<g id="shape155-367" v:mID="155" v:groupContext="shape" transform="translate(1.11615,-4.725)">
					<title>工作表.155</title>
					<path d="M0 594.94 L0.58 595.28 L1.17 594.94 L1.17 594.26 L0.58 593.93 L0 594.26 L0 594.94 Z" class="st1"/>
				</g>
			</g>
			<g id="group156-370" transform="translate(-1.70079,-18.9)" v:mID="156" v:groupContext="group">
				<title>工作表.156</title>
				<g id="shape157-371" v:mID="157" v:groupContext="shape">
					<title>工作表.157</title>
					<rect x="0" y="588.976" width="3.40157" height="6.3" class="st1"/>
				</g>
				<g id="shape158-374" v:mID="158" v:groupContext="shape" transform="translate(1.11615,-0.225)">
					<title>工作表.158</title>
					<path d="M0 594.94 L0.58 595.28 L1.17 594.94 L1.17 594.26 L0.58 593.93 L0 594.26 L0 594.94 Z" class="st1"/>
				</g>
				<g id="shape159-377" v:mID="159" v:groupContext="shape" transform="translate(1.11615,-4.725)">
					<title>工作表.159</title>
					<path d="M0 594.94 L0.58 595.28 L1.17 594.94 L1.17 594.26 L0.58 593.93 L0 594.26 L0 594.94 Z" class="st1"/>
				</g>
			</g>
			<g id="group160-380" transform="translate(66.6992,-18.9)" v:mID="160" v:groupContext="group">
				<title>工作表.160</title>
				<g id="shape161-381" v:mID="161" v:groupContext="shape">
					<title>工作表.161</title>
					<rect x="0" y="588.976" width="3.40157" height="6.3" class="st1"/>
				</g>
				<g id="shape162-384" v:mID="162" v:groupContext="shape" transform="translate(1.11615,-0.225)">
					<title>工作表.162</title>
					<path d="M0 594.94 L0.58 595.28 L1.17 594.94 L1.17 594.26 L0.58 593.93 L0 594.26 L0 594.94 Z" class="st1"/>
				</g>
				<g id="shape163-387" v:mID="163" v:groupContext="shape" transform="translate(1.11615,-4.725)">
					<title>工作表.163</title>
					<path d="M0 594.94 L0.58 595.28 L1.17 594.94 L1.17 594.26 L0.58 593.93 L0 594.26 L0 594.94 Z" class="st1"/>
				</g>
			</g>
			<g id="shape164-390" v:mID="164" v:groupContext="shape" transform="translate(5.24409,0)">
				<title>工作表.164</title>
				<path d="M30.73 586.77 L57.91 586.77 L57.91 576 L30.73 576 L30.73 586.77" class="st10"/>
				<path d="M36.04 584.96 L56.14 584.96 L56.14 577.81 L36.04 577.81 L36.04 584.96" class="st10"/>
				<path d="M37.81 583.37 L54.37 583.37 L54.37 578.69 L37.81 578.69 L37.81 583.37" class="st10"/>
				<path d="M0 593.15 L57.91 593.15" class="st10"/>
				<path d="M0 574.33 L0 570.08" class="st10"/>
				<path d="M57.91 574.33 L57.91 570.08" class="st10"/>
				<path d="M30.73 586.77 L36.04 584.96" class="st10"/>
				<path d="M30.73 576 L36.04 577.81" class="st10"/>
				<path d="M57.91 586.77 L56.14 584.96" class="st10"/>
				<path d="M57.91 576 L56.14 577.81" class="st10"/>
				<path d="M43.43 578.69 L43.43 577.81" class="st10"/>
				<path d="M50.38 578.69 L50.38 577.81" class="st10"/>
			</g>
			<g id="shape165-404" v:mID="165" v:groupContext="shape" transform="translate(5.24409,-8.50394)">
				<title>工作表.165</title>
				<path d="M0 595.28 L0.45 593.23 L28.5 593.23 L28.96 595.28 L28.96 593.01 L0 593.01 L0 595.28 ZM0 591.02 L0.45 588.98
							 L28.5 588.98 L28.96 591.02 L28.96 588.76 L0 588.76 L0 591.02 ZM0 586.77 L0.45 584.73 L28.5 584.73 L28.96
							 586.77 L28.96 584.5 L0 584.5 L0 586.77 Z" class="st11"/>
				<path d="M0 595.28 L28.96 595.28 L28.96 593.01 L0 593.01 L0 595.28" class="st10"/>
				<path d="M0 595.28 L0.45 593.23 L28.5 593.23 L28.96 595.28 L28.96 593.01 L0 593.01 L0 595.28" class="st10"/>
				<path d="M0 591.02 L28.96 591.02 L28.96 588.76 L0 588.76 L0 591.02" class="st10"/>
				<path d="M0 591.02 L0.45 588.98 L28.5 588.98 L28.96 591.02 L28.96 588.76 L0 588.76 L0 591.02" class="st10"/>
				<path d="M0 586.77 L28.96 586.77 L28.96 584.5 L0 584.5 L0 586.77" class="st10"/>
				<path d="M0 586.77 L0.45 584.73 L28.5 584.73 L28.96 586.77 L28.96 584.5 L0 584.5 L0 586.77" class="st10"/>
			</g>
			<g id="shape166-412" v:mID="166" v:groupContext="shape" transform="translate(44.8299,-11.2305)">
				<title>工作表.166</title>
				<path d="M0 594.6 a0.675 0.675 -180 1 1 1.35 0 a0.675 0.675 -180 1 1 -1.35 0 ZM2.03 594.6 a0.675 0.675 -180 1 1 1.35
							 0 a0.675 0.675 -180 1 1 -1.35 0 ZM4.73 595.28 L6.07 595.28 L6.07 593.93 L4.73 593.93 a0.675 0.675 -180
							 1 0 9.76996E-015 1.35 ZM6.07 595.28 L7.42 595.28 a0.675 0.675 -180 0 0 0 -1.35 L6.07 593.93 L6.07 595.28
							 ZM9.45 595.28 L10.8 595.28 L10.8 593.93 L9.45 593.93 a0.675 0.675 -180 1 0 8.88178E-015 1.35 ZM10.8
							 595.28 L12.15 595.28 a0.675 0.675 -180 0 0 0 -1.35 L10.8 593.93 L10.8 595.28 Z" class="st12"/>
			</g>
			<g id="shape167-414" v:mID="167" v:groupContext="shape" transform="translate(5.24409,0)">
				<title>工作表.167</title>
				<path d="M0 591.02 L0.45 588.98 L57.46 588.98 L57.91 591.02 L57.91 588.76 L0 588.76 L0 591.02 ZM0 574.02 L0.45 571.97
							 L57.46 571.97 L57.91 574.02 L57.91 571.75 L0 571.75 L0 574.02 Z" class="st11"/>
				<path d="M0 591.02 L57.91 591.02 L57.91 588.76 L0 588.76 L0 591.02" class="st10"/>
				<path d="M0 591.02 L0.45 588.98 L57.46 588.98 L57.91 591.02 L57.91 588.76 L0 588.76 L0 591.02" class="st10"/>
				<path d="M0 574.02 L57.91 574.02 L57.91 571.75 L0 571.75 L0 574.02" class="st10"/>
				<path d="M0 574.02 L0.45 571.97 L57.46 571.97 L57.91 574.02 L57.91 571.75 L0 571.75 L0 574.02" class="st10"/>
			</g>
			<g id="shape168-420" v:mID="168" v:groupContext="shape" transform="translate(-32.8904,0)">
				<title>工作表.168</title>
				<v:textBlock v:margins="rect(0,0,0,0)" v:tabSpace="42.5197"/>
				<v:textRect cx="9.60522" cy="582.676" width="19.22" height="25.2"/>
				<text x="2.72" y="586.28" class="st2" v:langID="2052"><v:paragraph v:horizAlign="2"/><v:tabList/>4 U</text>			</g>
			<g id="shape145-422" v:mID="145" v:groupContext="groupContent">
				<v:textBlock v:margins="rect(0,0,0,0)" v:tabSpace="42.5197"/>
				<v:textRect cx="172.3" cy="582.676" width="194.12" height="15.9788"/>
				<rect v:rectContext="textBkgnd" x="76.5982" y="574.688" width="191.404" height="15.9752" class="st7"/>
				<text x="76.6" y="586.67" class="st2" v:langID="2052"><v:paragraph v:horizAlign="1"/><v:tabList/>IBM p550<tspan
							class="st8">小型机</tspan><tspan class="st8">，</tspan><tspan class="st8">资产标签末位</tspan>9032</text>			</g>
		</g>
	</g>
</svg>
