<?xml version="1.0" encoding="UTF-8" standalone="no"?>
<!DOCTYPE svg PUBLIC "-//W3C//DTD SVG 1.1//EN" "http://www.w3.org/Graphics/SVG/1.1/DTD/svg11.dtd">
<!-- 由 Microsoft Visio, SVG Export 生成 A06.svg Page-1 -->
<svg xmlns="http://www.w3.org/2000/svg" xmlns:xlink="http://www.w3.org/1999/xlink" xmlns:ev="http://www.w3.org/2001/xml-events"
		xmlns:v="http://schemas.microsoft.com/visio/2003/SVGExtensions/" width="11.6929in" height="8.26772in"
		viewBox="0 0 841.89 595.276" xml:space="preserve" color-interpolation-filters="sRGB" class="st15">
	<v:documentProperties v:langID="2052" v:metric="true" v:viewMarkup="false">
	</v:documentProperties>
	<style type="text/css">
	<![CDATA[
		.st1 {fill:url(#grad7-5);stroke:#000000;stroke-linecap:butt;stroke-width:1.25}
		.st2 {fill:#000000;font-family:Calibri;font-size:1.00001em}
		.st3 {fill:#339966;stroke:#000000;stroke-linecap:butt;stroke-width:1.25}
		.st4 {stroke:#000000;stroke-linecap:butt;stroke-width:1.25}
		.st5 {fill:#000000}
		.st6 {fill:#9a9a9a;stroke:#000000;stroke-linecap:butt;stroke-width:1.25}
		.st7 {fill:#ffffff;stroke:none;stroke-linecap:butt;stroke-width:7.2}
		.st8 {fill:#000000;font-family:黑体;font-size:1.00001em}
		.st9 {font-family:Calibri;font-size:1em}
		.st10 {fill:url(#grad11-535);stroke:#000000;stroke-linecap:butt;stroke-width:1.25}
		.st11 {fill:#9a9a9a;fill-opacity:0.5;stroke:#000000;stroke-linecap:butt;stroke-width:0.02}
		.st12 {fill:#000000;stroke:none;stroke-linecap:butt;stroke-width:1.25}
		.st13 {fill:#00ff00;stroke:#000000;stroke-linecap:butt;stroke-width:1.25}
		.st14 {font-family:黑体;font-size:1em}
		.st15 {fill:none;fill-rule:evenodd;font-size:12px;overflow:visible;stroke-linecap:square;stroke-miterlimit:3}
	]]>
	</style>
	<defs id="Patterns_And_Gradients">
		<radialGradient id="grad7-5" cx="0" cy="0" r="1.4">
			<stop offset="0" stop-color="#ffffff" stop-opacity="1"/>
			<stop offset="1" stop-color="#c0c0c0" stop-opacity="1"/>
		</radialGradient>
		<pattern id="grad11-535" x="0" y="0" width="1" height="1" patternContentUnits="objectBoundingBox">
			<path d="M 0 1 L 0 0 L 1 0 z" style="fill:url(#grad0-536)"/>
			<path d="M 0 1 L 1 1 L 1 0 z" style="fill:url(#grad0-537)"/>
		</pattern>
		<linearGradient id="grad0-536" x1="0" y1="0" x2="1" y2="0" gradientTransform="rotate(180 0.5 0.5)">
			<stop offset="0" stop-color="#ffffff" stop-opacity="1"/>
			<stop offset="1" stop-color="#c0c0c0" stop-opacity="1"/>
		</linearGradient>
		<linearGradient id="grad0-537" x1="0" y1="0" x2="1" y2="0" gradientTransform="rotate(90 0.5 0.5)">
			<stop offset="0" stop-color="#ffffff" stop-opacity="1"/>
			<stop offset="1" stop-color="#c0c0c0" stop-opacity="1"/>
		</linearGradient>
	</defs>
	<g v:mID="0" v:index="1" v:groupContext="foregroundPage">
		<title>页-1</title>
		<v:pageProperties v:drawingScale="39.3701" v:pageScale="1.9685" v:drawingUnits="6" v:shadowOffsetX="8.50394"
				v:shadowOffsetY="-8.50394"/>
		<g id="group1-1" transform="translate(56.6929,-271.857)" v:mID="1" v:groupContext="group">
			<title>机柜</title>
			<g id="shape2-2" v:mID="2" v:groupContext="shape" transform="translate(3.54331,0)">
				<title>工作表.2</title>
				<rect x="0" y="584.646" width="75.7134" height="10.6299" class="st1"/>
			</g>
			<g id="shape3-6" v:mID="3" v:groupContext="shape" transform="translate(3.54331,-275.23)">
				<title>工作表.3</title>
				<rect x="0" y="589.606" width="75.7134" height="5.66929" class="st1"/>
			</g>
			<g id="shape4-9" v:mID="4" v:groupContext="shape" transform="translate(3.54331,-10.6299)">
				<title>工作表.4</title>
				<path d="M70.26 595.28 L75.71 595.28 L75.71 330.68 L70.26 330.68 L70.26 595.28 ZM0 595.28 L5.46 595.28 L5.46 330.68
							 L0 330.68 L0 595.28 Z" class="st1"/>
			</g>
			<g id="shape5-12" v:mID="5" v:groupContext="shape">
				<title>工作表.5</title>
				<path d="M79.26 595.28 L82.8 595.28 L82.8 314.38 L79.26 314.38 L79.26 595.28 ZM0 595.28 L3.54 595.28 L3.54 314.38
							 L0 314.38 L0 595.28 Z" class="st1"/>
			</g>
			<g id="shape6-15" v:mID="6" v:groupContext="shape" transform="translate(0,-280.899)">
				<title>工作表.6</title>
				<v:textBlock v:margins="rect(0,0,0,0)" v:tabSpace="42.5197"/>
				<v:textRect cx="41.4" cy="588.074" width="82.81" height="14.4037"/>
				<text x="30.11" y="591.67" class="st2" v:langID="2052"><v:paragraph v:horizAlign="1"/><v:tabList/>42 U</text>			</g>
		</g>
		<g id="group13-17" transform="translate(63.8929,-301.387)" v:mID="13" v:groupContext="group">
			<title>服务器</title>
			<desc>无标签10.96.93.9</desc>
			<g id="shape14-18" v:mID="14" v:groupContext="shape" transform="translate(1.70079,0)">
				<title>工作表.14</title>
				<rect x="0" y="570.076" width="64.9984" height="25.2" class="st1"/>
			</g>
			<g id="shape15-21" v:mID="15" v:groupContext="shape" transform="translate(46.8,-13.4463)">
				<title>工作表.15</title>
				<rect x="0" y="592.99" width="9" height="2.286" class="st3"/>
			</g>
			<g id="group16-23" transform="translate(-1.70079,0)" v:mID="16" v:groupContext="group">
				<title>工作表.16</title>
				<g id="shape17-24" v:mID="17" v:groupContext="shape">
					<title>工作表.17</title>
					<rect x="0" y="588.976" width="3.40157" height="6.3" class="st1"/>
				</g>
				<g id="shape18-27" v:mID="18" v:groupContext="shape" transform="translate(1.11615,-0.225)">
					<title>工作表.18</title>
					<path d="M0 594.94 L0.58 595.28 L1.17 594.94 L1.17 594.26 L0.58 593.93 L0 594.26 L0 594.94 Z" class="st1"/>
				</g>
				<g id="shape19-30" v:mID="19" v:groupContext="shape" transform="translate(1.11615,-4.725)">
					<title>工作表.19</title>
					<path d="M0 594.94 L0.58 595.28 L1.17 594.94 L1.17 594.26 L0.58 593.93 L0 594.26 L0 594.94 Z" class="st1"/>
				</g>
			</g>
			<g id="group20-33" transform="translate(66.6992,0)" v:mID="20" v:groupContext="group">
				<title>工作表.20</title>
				<g id="shape21-34" v:mID="21" v:groupContext="shape">
					<title>工作表.21</title>
					<rect x="0" y="588.976" width="3.40157" height="6.3" class="st1"/>
				</g>
				<g id="shape22-37" v:mID="22" v:groupContext="shape" transform="translate(1.11615,-0.225)">
					<title>工作表.22</title>
					<path d="M0 594.94 L0.58 595.28 L1.17 594.94 L1.17 594.26 L0.58 593.93 L0 594.26 L0 594.94 Z" class="st1"/>
				</g>
				<g id="shape23-40" v:mID="23" v:groupContext="shape" transform="translate(1.11615,-4.725)">
					<title>工作表.23</title>
					<path d="M0 594.94 L0.58 595.28 L1.17 594.94 L1.17 594.26 L0.58 593.93 L0 594.26 L0 594.94 Z" class="st1"/>
				</g>
			</g>
			<g id="group24-43" transform="translate(-1.70079,-18.9)" v:mID="24" v:groupContext="group">
				<title>工作表.24</title>
				<g id="shape25-44" v:mID="25" v:groupContext="shape">
					<title>工作表.25</title>
					<rect x="0" y="588.976" width="3.40157" height="6.3" class="st1"/>
				</g>
				<g id="shape26-47" v:mID="26" v:groupContext="shape" transform="translate(1.11615,-0.225)">
					<title>工作表.26</title>
					<path d="M0 594.94 L0.58 595.28 L1.17 594.94 L1.17 594.26 L0.58 593.93 L0 594.26 L0 594.94 Z" class="st1"/>
				</g>
				<g id="shape27-50" v:mID="27" v:groupContext="shape" transform="translate(1.11615,-4.725)">
					<title>工作表.27</title>
					<path d="M0 594.94 L0.58 595.28 L1.17 594.94 L1.17 594.26 L0.58 593.93 L0 594.26 L0 594.94 Z" class="st1"/>
				</g>
			</g>
			<g id="group28-53" transform="translate(66.6992,-18.9)" v:mID="28" v:groupContext="group">
				<title>工作表.28</title>
				<g id="shape29-54" v:mID="29" v:groupContext="shape">
					<title>工作表.29</title>
					<rect x="0" y="588.976" width="3.40157" height="6.3" class="st1"/>
				</g>
				<g id="shape30-57" v:mID="30" v:groupContext="shape" transform="translate(1.11615,-0.225)">
					<title>工作表.30</title>
					<path d="M0 594.94 L0.58 595.28 L1.17 594.94 L1.17 594.26 L0.58 593.93 L0 594.26 L0 594.94 Z" class="st1"/>
				</g>
				<g id="shape31-60" v:mID="31" v:groupContext="shape" transform="translate(1.11615,-4.725)">
					<title>工作表.31</title>
					<path d="M0 594.94 L0.58 595.28 L1.17 594.94 L1.17 594.26 L0.58 593.93 L0 594.26 L0 594.94 Z" class="st1"/>
				</g>
			</g>
			<g id="shape32-63" v:mID="32" v:groupContext="shape" transform="translate(5.24409,0)">
				<title>工作表.32</title>
				<path d="M30.73 586.77 L57.91 586.77 L57.91 576 L30.73 576 L30.73 586.77" class="st4"/>
				<path d="M36.04 584.96 L56.14 584.96 L56.14 577.81 L36.04 577.81 L36.04 584.96" class="st4"/>
				<path d="M37.81 583.37 L54.37 583.37 L54.37 578.69 L37.81 578.69 L37.81 583.37" class="st4"/>
				<path d="M0 593.15 L57.91 593.15" class="st4"/>
				<path d="M0 574.33 L0 570.08" class="st4"/>
				<path d="M57.91 574.33 L57.91 570.08" class="st4"/>
				<path d="M30.73 586.77 L36.04 584.96" class="st4"/>
				<path d="M30.73 576 L36.04 577.81" class="st4"/>
				<path d="M57.91 586.77 L56.14 584.96" class="st4"/>
				<path d="M57.91 576 L56.14 577.81" class="st4"/>
				<path d="M43.43 578.69 L43.43 577.81" class="st4"/>
				<path d="M50.38 578.69 L50.38 577.81" class="st4"/>
			</g>
			<g id="shape33-77" v:mID="33" v:groupContext="shape" transform="translate(5.24409,-8.50394)">
				<title>工作表.33</title>
				<path d="M0 595.28 L0.45 593.23 L28.5 593.23 L28.96 595.28 L28.96 593.01 L0 593.01 L0 595.28 ZM0 591.02 L0.45 588.98
							 L28.5 588.98 L28.96 591.02 L28.96 588.76 L0 588.76 L0 591.02 ZM0 586.77 L0.45 584.73 L28.5 584.73 L28.96
							 586.77 L28.96 584.5 L0 584.5 L0 586.77 Z" class="st5"/>
				<path d="M0 595.28 L28.96 595.28 L28.96 593.01 L0 593.01 L0 595.28" class="st4"/>
				<path d="M0 595.28 L0.45 593.23 L28.5 593.23 L28.96 595.28 L28.96 593.01 L0 593.01 L0 595.28" class="st4"/>
				<path d="M0 591.02 L28.96 591.02 L28.96 588.76 L0 588.76 L0 591.02" class="st4"/>
				<path d="M0 591.02 L0.45 588.98 L28.5 588.98 L28.96 591.02 L28.96 588.76 L0 588.76 L0 591.02" class="st4"/>
				<path d="M0 586.77 L28.96 586.77 L28.96 584.5 L0 584.5 L0 586.77" class="st4"/>
				<path d="M0 586.77 L0.45 584.73 L28.5 584.73 L28.96 586.77 L28.96 584.5 L0 584.5 L0 586.77" class="st4"/>
			</g>
			<g id="shape34-85" v:mID="34" v:groupContext="shape" transform="translate(44.8299,-11.2305)">
				<title>工作表.34</title>
				<path d="M0 594.6 a0.675 0.675 -180 1 1 1.35 0 a0.675 0.675 -180 1 1 -1.35 0 ZM2.03 594.6 a0.675 0.675 -180 1 1 1.35
							 0 a0.675 0.675 -180 1 1 -1.35 0 ZM4.73 595.28 L6.07 595.28 L6.07 593.93 L4.73 593.93 a0.675 0.675 -180
							 1 0 9.76996E-015 1.35 ZM6.07 595.28 L7.42 595.28 a0.675 0.675 -180 0 0 0 -1.35 L6.07 593.93 L6.07 595.28
							 ZM9.45 595.28 L10.8 595.28 L10.8 593.93 L9.45 593.93 a0.675 0.675 -180 1 0 8.88178E-015 1.35 ZM10.8
							 595.28 L12.15 595.28 a0.675 0.675 -180 0 0 0 -1.35 L10.8 593.93 L10.8 595.28 Z" class="st6"/>
			</g>
			<g id="shape35-87" v:mID="35" v:groupContext="shape" transform="translate(5.24409,0)">
				<title>工作表.35</title>
				<path d="M0 591.02 L0.45 588.98 L57.46 588.98 L57.91 591.02 L57.91 588.76 L0 588.76 L0 591.02 ZM0 574.02 L0.45 571.97
							 L57.46 571.97 L57.91 574.02 L57.91 571.75 L0 571.75 L0 574.02 Z" class="st5"/>
				<path d="M0 591.02 L57.91 591.02 L57.91 588.76 L0 588.76 L0 591.02" class="st4"/>
				<path d="M0 591.02 L0.45 588.98 L57.46 588.98 L57.91 591.02 L57.91 588.76 L0 588.76 L0 591.02" class="st4"/>
				<path d="M0 574.02 L57.91 574.02 L57.91 571.75 L0 571.75 L0 574.02" class="st4"/>
				<path d="M0 574.02 L0.45 571.97 L57.46 571.97 L57.91 574.02 L57.91 571.75 L0 571.75 L0 574.02" class="st4"/>
			</g>
			<g id="shape36-93" v:mID="36" v:groupContext="shape" transform="translate(-32.8904,0)">
				<title>工作表.36</title>
				<v:textBlock v:margins="rect(0,0,0,0)" v:tabSpace="42.5197"/>
				<v:textRect cx="9.60522" cy="582.676" width="19.22" height="25.2"/>
				<text x="2.72" y="586.28" class="st2" v:langID="2052"><v:paragraph v:horizAlign="2"/><v:tabList/>4 U</text>			</g>
			<g id="shape13-95" v:mID="13" v:groupContext="groupContent">
				<v:textBlock v:margins="rect(0,0,0,0)" v:tabSpace="42.5197"/>
				<v:textRect cx="126.429" cy="582.676" width="102.38" height="15.9788"/>
				<rect v:rectContext="textBkgnd" x="76.5982" y="574.688" width="99.6622" height="15.9752" class="st7"/>
				<text x="76.6" y="586.67" class="st8" v:langID="2052"><v:paragraph v:horizAlign="1"/><v:tabList/>无标签：<tspan
							class="st9">10</tspan><tspan class="st9">.</tspan><tspan class="st9">96</tspan><tspan class="st9">.</tspan><tspan
							class="st9">93</tspan><tspan class="st9">.</tspan><tspan class="st9">9</tspan></text>			</g>
		</g>
		<g id="group37-105" transform="translate(63.8929,-332.887)" v:mID="37" v:groupContext="group">
			<title>服务器.37</title>
			<desc>工业视频监控10.96.93.10</desc>
			<g id="shape38-106" v:mID="38" v:groupContext="shape" transform="translate(1.70079,0)">
				<title>工作表.38</title>
				<rect x="0" y="570.076" width="64.9984" height="25.2" class="st1"/>
			</g>
			<g id="shape39-109" v:mID="39" v:groupContext="shape" transform="translate(46.8,-13.4463)">
				<title>工作表.39</title>
				<rect x="0" y="592.99" width="9" height="2.286" class="st3"/>
			</g>
			<g id="group40-111" transform="translate(-1.70079,0)" v:mID="40" v:groupContext="group">
				<title>工作表.40</title>
				<g id="shape41-112" v:mID="41" v:groupContext="shape">
					<title>工作表.41</title>
					<rect x="0" y="588.976" width="3.40157" height="6.3" class="st1"/>
				</g>
				<g id="shape42-115" v:mID="42" v:groupContext="shape" transform="translate(1.11615,-0.225)">
					<title>工作表.42</title>
					<path d="M0 594.94 L0.58 595.28 L1.17 594.94 L1.17 594.26 L0.58 593.93 L0 594.26 L0 594.94 Z" class="st1"/>
				</g>
				<g id="shape43-118" v:mID="43" v:groupContext="shape" transform="translate(1.11615,-4.725)">
					<title>工作表.43</title>
					<path d="M0 594.94 L0.58 595.28 L1.17 594.94 L1.17 594.26 L0.58 593.93 L0 594.26 L0 594.94 Z" class="st1"/>
				</g>
			</g>
			<g id="group44-121" transform="translate(66.6992,0)" v:mID="44" v:groupContext="group">
				<title>工作表.44</title>
				<g id="shape45-122" v:mID="45" v:groupContext="shape">
					<title>工作表.45</title>
					<rect x="0" y="588.976" width="3.40157" height="6.3" class="st1"/>
				</g>
				<g id="shape46-125" v:mID="46" v:groupContext="shape" transform="translate(1.11615,-0.225)">
					<title>工作表.46</title>
					<path d="M0 594.94 L0.58 595.28 L1.17 594.94 L1.17 594.26 L0.58 593.93 L0 594.26 L0 594.94 Z" class="st1"/>
				</g>
				<g id="shape47-128" v:mID="47" v:groupContext="shape" transform="translate(1.11615,-4.725)">
					<title>工作表.47</title>
					<path d="M0 594.94 L0.58 595.28 L1.17 594.94 L1.17 594.26 L0.58 593.93 L0 594.26 L0 594.94 Z" class="st1"/>
				</g>
			</g>
			<g id="group48-131" transform="translate(-1.70079,-18.9)" v:mID="48" v:groupContext="group">
				<title>工作表.48</title>
				<g id="shape49-132" v:mID="49" v:groupContext="shape">
					<title>工作表.49</title>
					<rect x="0" y="588.976" width="3.40157" height="6.3" class="st1"/>
				</g>
				<g id="shape50-135" v:mID="50" v:groupContext="shape" transform="translate(1.11615,-0.225)">
					<title>工作表.50</title>
					<path d="M0 594.94 L0.58 595.28 L1.17 594.94 L1.17 594.26 L0.58 593.93 L0 594.26 L0 594.94 Z" class="st1"/>
				</g>
				<g id="shape51-138" v:mID="51" v:groupContext="shape" transform="translate(1.11615,-4.725)">
					<title>工作表.51</title>
					<path d="M0 594.94 L0.58 595.28 L1.17 594.94 L1.17 594.26 L0.58 593.93 L0 594.26 L0 594.94 Z" class="st1"/>
				</g>
			</g>
			<g id="group52-141" transform="translate(66.6992,-18.9)" v:mID="52" v:groupContext="group">
				<title>工作表.52</title>
				<g id="shape53-142" v:mID="53" v:groupContext="shape">
					<title>工作表.53</title>
					<rect x="0" y="588.976" width="3.40157" height="6.3" class="st1"/>
				</g>
				<g id="shape54-145" v:mID="54" v:groupContext="shape" transform="translate(1.11615,-0.225)">
					<title>工作表.54</title>
					<path d="M0 594.94 L0.58 595.28 L1.17 594.94 L1.17 594.26 L0.58 593.93 L0 594.26 L0 594.94 Z" class="st1"/>
				</g>
				<g id="shape55-148" v:mID="55" v:groupContext="shape" transform="translate(1.11615,-4.725)">
					<title>工作表.55</title>
					<path d="M0 594.94 L0.58 595.28 L1.17 594.94 L1.17 594.26 L0.58 593.93 L0 594.26 L0 594.94 Z" class="st1"/>
				</g>
			</g>
			<g id="shape56-151" v:mID="56" v:groupContext="shape" transform="translate(5.24409,0)">
				<title>工作表.56</title>
				<path d="M30.73 586.77 L57.91 586.77 L57.91 576 L30.73 576 L30.73 586.77" class="st4"/>
				<path d="M36.04 584.96 L56.14 584.96 L56.14 577.81 L36.04 577.81 L36.04 584.96" class="st4"/>
				<path d="M37.81 583.37 L54.37 583.37 L54.37 578.69 L37.81 578.69 L37.81 583.37" class="st4"/>
				<path d="M0 593.15 L57.91 593.15" class="st4"/>
				<path d="M0 574.33 L0 570.08" class="st4"/>
				<path d="M57.91 574.33 L57.91 570.08" class="st4"/>
				<path d="M30.73 586.77 L36.04 584.96" class="st4"/>
				<path d="M30.73 576 L36.04 577.81" class="st4"/>
				<path d="M57.91 586.77 L56.14 584.96" class="st4"/>
				<path d="M57.91 576 L56.14 577.81" class="st4"/>
				<path d="M43.43 578.69 L43.43 577.81" class="st4"/>
				<path d="M50.38 578.69 L50.38 577.81" class="st4"/>
			</g>
			<g id="shape57-165" v:mID="57" v:groupContext="shape" transform="translate(5.24409,-8.50394)">
				<title>工作表.57</title>
				<path d="M0 595.28 L0.45 593.23 L28.5 593.23 L28.96 595.28 L28.96 593.01 L0 593.01 L0 595.28 ZM0 591.02 L0.45 588.98
							 L28.5 588.98 L28.96 591.02 L28.96 588.76 L0 588.76 L0 591.02 ZM0 586.77 L0.45 584.73 L28.5 584.73 L28.96
							 586.77 L28.96 584.5 L0 584.5 L0 586.77 Z" class="st5"/>
				<path d="M0 595.28 L28.96 595.28 L28.96 593.01 L0 593.01 L0 595.28" class="st4"/>
				<path d="M0 595.28 L0.45 593.23 L28.5 593.23 L28.96 595.28 L28.96 593.01 L0 593.01 L0 595.28" class="st4"/>
				<path d="M0 591.02 L28.96 591.02 L28.96 588.76 L0 588.76 L0 591.02" class="st4"/>
				<path d="M0 591.02 L0.45 588.98 L28.5 588.98 L28.96 591.02 L28.96 588.76 L0 588.76 L0 591.02" class="st4"/>
				<path d="M0 586.77 L28.96 586.77 L28.96 584.5 L0 584.5 L0 586.77" class="st4"/>
				<path d="M0 586.77 L0.45 584.73 L28.5 584.73 L28.96 586.77 L28.96 584.5 L0 584.5 L0 586.77" class="st4"/>
			</g>
			<g id="shape58-173" v:mID="58" v:groupContext="shape" transform="translate(44.8299,-11.2305)">
				<title>工作表.58</title>
				<path d="M0 594.6 a0.675 0.675 -180 1 1 1.35 0 a0.675 0.675 -180 1 1 -1.35 0 ZM2.03 594.6 a0.675 0.675 -180 1 1 1.35
							 0 a0.675 0.675 -180 1 1 -1.35 0 ZM4.73 595.28 L6.07 595.28 L6.07 593.93 L4.73 593.93 a0.675 0.675 -180
							 1 0 9.76996E-015 1.35 ZM6.07 595.28 L7.42 595.28 a0.675 0.675 -180 0 0 0 -1.35 L6.07 593.93 L6.07 595.28
							 ZM9.45 595.28 L10.8 595.28 L10.8 593.93 L9.45 593.93 a0.675 0.675 -180 1 0 8.88178E-015 1.35 ZM10.8
							 595.28 L12.15 595.28 a0.675 0.675 -180 0 0 0 -1.35 L10.8 593.93 L10.8 595.28 Z" class="st6"/>
			</g>
			<g id="shape59-175" v:mID="59" v:groupContext="shape" transform="translate(5.24409,0)">
				<title>工作表.59</title>
				<path d="M0 591.02 L0.45 588.98 L57.46 588.98 L57.91 591.02 L57.91 588.76 L0 588.76 L0 591.02 ZM0 574.02 L0.45 571.97
							 L57.46 571.97 L57.91 574.02 L57.91 571.75 L0 571.75 L0 574.02 Z" class="st5"/>
				<path d="M0 591.02 L57.91 591.02 L57.91 588.76 L0 588.76 L0 591.02" class="st4"/>
				<path d="M0 591.02 L0.45 588.98 L57.46 588.98 L57.91 591.02 L57.91 588.76 L0 588.76 L0 591.02" class="st4"/>
				<path d="M0 574.02 L57.91 574.02 L57.91 571.75 L0 571.75 L0 574.02" class="st4"/>
				<path d="M0 574.02 L0.45 571.97 L57.46 571.97 L57.91 574.02 L57.91 571.75 L0 571.75 L0 574.02" class="st4"/>
			</g>
			<g id="shape60-181" v:mID="60" v:groupContext="shape" transform="translate(-32.8904,0)">
				<title>工作表.60</title>
				<v:textBlock v:margins="rect(0,0,0,0)" v:tabSpace="42.5197"/>
				<v:textRect cx="9.60522" cy="582.676" width="19.22" height="25.2"/>
				<text x="2.72" y="586.28" class="st2" v:langID="2052"><v:paragraph v:horizAlign="2"/><v:tabList/>4 U</text>			</g>
			<g id="shape37-183" v:mID="37" v:groupContext="groupContent">
				<v:textBlock v:margins="rect(0,0,0,0)" v:tabSpace="42.5197"/>
				<v:textRect cx="147.47" cy="582.676" width="144.47" height="15.9788"/>
				<rect v:rectContext="textBkgnd" x="76.5982" y="574.688" width="141.745" height="15.9752" class="st7"/>
				<text x="76.6" y="586.67" class="st8" v:langID="2052"><v:paragraph v:horizAlign="1"/><v:tabList/>工业视频监控：<tspan
							class="st9">10</tspan><tspan class="st9">.</tspan><tspan class="st9">96</tspan><tspan class="st9">.</tspan><tspan
							class="st9">93</tspan><tspan class="st9">.</tspan><tspan class="st9">10</tspan></text>			</g>
		</g>
		<g id="group61-193" transform="translate(63.8929,-364.387)" v:mID="61" v:groupContext="group">
			<title>服务器.61</title>
			<desc>无标签10.96.93.8</desc>
			<g id="shape62-194" v:mID="62" v:groupContext="shape" transform="translate(1.70079,0)">
				<title>工作表.62</title>
				<rect x="0" y="582.676" width="64.9984" height="12.6" class="st1"/>
			</g>
			<g id="shape63-197" v:mID="63" v:groupContext="shape" transform="translate(46.8,-6.85573)">
				<title>工作表.63</title>
				<rect x="0" y="592.99" width="9" height="2.286" class="st3"/>
			</g>
			<g id="group64-199" transform="translate(-1.70079,0)" v:mID="64" v:groupContext="group">
				<title>工作表.64</title>
				<g id="shape65-200" v:mID="65" v:groupContext="shape">
					<title>工作表.65</title>
					<rect x="0" y="588.976" width="3.40157" height="6.3" class="st1"/>
				</g>
				<g id="shape66-203" v:mID="66" v:groupContext="shape" transform="translate(1.11615,-0.225)">
					<title>工作表.66</title>
					<path d="M0 594.94 L0.58 595.28 L1.17 594.94 L1.17 594.26 L0.58 593.93 L0 594.26 L0 594.94 Z" class="st1"/>
				</g>
				<g id="shape67-206" v:mID="67" v:groupContext="shape" transform="translate(1.11615,-4.725)">
					<title>工作表.67</title>
					<path d="M0 594.94 L0.58 595.28 L1.17 594.94 L1.17 594.26 L0.58 593.93 L0 594.26 L0 594.94 Z" class="st1"/>
				</g>
			</g>
			<g id="group68-209" transform="translate(66.6992,0)" v:mID="68" v:groupContext="group">
				<title>工作表.68</title>
				<g id="shape69-210" v:mID="69" v:groupContext="shape">
					<title>工作表.69</title>
					<rect x="0" y="588.976" width="3.40157" height="6.3" class="st1"/>
				</g>
				<g id="shape70-213" v:mID="70" v:groupContext="shape" transform="translate(1.11615,-0.225)">
					<title>工作表.70</title>
					<path d="M0 594.94 L0.58 595.28 L1.17 594.94 L1.17 594.26 L0.58 593.93 L0 594.26 L0 594.94 Z" class="st1"/>
				</g>
				<g id="shape71-216" v:mID="71" v:groupContext="shape" transform="translate(1.11615,-4.725)">
					<title>工作表.71</title>
					<path d="M0 594.94 L0.58 595.28 L1.17 594.94 L1.17 594.26 L0.58 593.93 L0 594.26 L0 594.94 Z" class="st1"/>
				</g>
			</g>
			<g id="group72-219" transform="translate(-1.70079,-6.3)" v:mID="72" v:groupContext="group">
				<title>工作表.72</title>
				<g id="shape73-220" v:mID="73" v:groupContext="shape">
					<title>工作表.73</title>
					<rect x="0" y="588.976" width="3.40157" height="6.3" class="st1"/>
				</g>
				<g id="shape74-223" v:mID="74" v:groupContext="shape" transform="translate(1.11615,-0.225)">
					<title>工作表.74</title>
					<path d="M0 594.94 L0.58 595.28 L1.17 594.94 L1.17 594.26 L0.58 593.93 L0 594.26 L0 594.94 Z" class="st1"/>
				</g>
				<g id="shape75-226" v:mID="75" v:groupContext="shape" transform="translate(1.11615,-4.725)">
					<title>工作表.75</title>
					<path d="M0 594.94 L0.58 595.28 L1.17 594.94 L1.17 594.26 L0.58 593.93 L0 594.26 L0 594.94 Z" class="st1"/>
				</g>
			</g>
			<g id="group76-229" transform="translate(66.6992,-6.3)" v:mID="76" v:groupContext="group">
				<title>工作表.76</title>
				<g id="shape77-230" v:mID="77" v:groupContext="shape">
					<title>工作表.77</title>
					<rect x="0" y="588.976" width="3.40157" height="6.3" class="st1"/>
				</g>
				<g id="shape78-233" v:mID="78" v:groupContext="shape" transform="translate(1.11615,-0.225)">
					<title>工作表.78</title>
					<path d="M0 594.94 L0.58 595.28 L1.17 594.94 L1.17 594.26 L0.58 593.93 L0 594.26 L0 594.94 Z" class="st1"/>
				</g>
				<g id="shape79-236" v:mID="79" v:groupContext="shape" transform="translate(1.11615,-4.725)">
					<title>工作表.79</title>
					<path d="M0 594.94 L0.58 595.28 L1.17 594.94 L1.17 594.26 L0.58 593.93 L0 594.26 L0 594.94 Z" class="st1"/>
				</g>
			</g>
			<g id="shape80-239" v:mID="80" v:groupContext="shape" transform="translate(5.24409,0)">
				<title>工作表.80</title>
				<path d="M30.73 591.02 L57.91 591.02 L57.91 584.5 L30.73 584.5 L30.73 591.02" class="st4"/>
				<path d="M36.04 590.57 L56.14 590.57 L56.14 584.96 L36.04 584.96 L36.04 590.57" class="st4"/>
				<path d="M37.81 589.54 L54.37 589.54 L54.37 585.28 L37.81 585.28 L37.81 589.54" class="st4"/>
				<path d="M0 593.15 L57.91 593.15" class="st4"/>
				<path d="M0 586.93 L0 582.68" class="st4"/>
				<path d="M57.91 586.93 L57.91 582.68" class="st4"/>
				<path d="M30.73 591.02 L36.04 590.57" class="st4"/>
				<path d="M30.73 584.5 L36.04 584.96" class="st4"/>
				<path d="M57.91 591.02 L56.14 590.57" class="st4"/>
				<path d="M57.91 584.5 L56.14 584.96" class="st4"/>
				<path d="M43.43 585.28 L43.43 584.96" class="st4"/>
				<path d="M50.38 585.28 L50.38 584.96" class="st4"/>
			</g>
			<g id="shape81-253" v:mID="81" v:groupContext="shape" transform="translate(5.24409,-4.25197)">
				<title>工作表.81</title>
				<path d="M0 595.28 L0.45 593.23 L28.5 593.23 L28.96 595.28 L28.96 593.01 L0 593.01 L0 595.28 ZM0 591.02 L0.45 588.98
							 L28.5 588.98 L28.96 591.02 L28.96 588.76 L0 588.76 L0 591.02 Z" class="st5"/>
				<path d="M0 595.28 L28.96 595.28 L28.96 593.01 L0 593.01 L0 595.28" class="st4"/>
				<path d="M0 595.28 L0.45 593.23 L28.5 593.23 L28.96 595.28 L28.96 593.01 L0 593.01 L0 595.28" class="st4"/>
				<path d="M0 591.02 L28.96 591.02 L28.96 588.76 L0 588.76 L0 591.02" class="st4"/>
				<path d="M0 591.02 L0.45 588.98 L28.5 588.98 L28.96 591.02 L28.96 588.76 L0 588.76 L0 591.02" class="st4"/>
			</g>
			<g id="shape82-259" v:mID="82" v:groupContext="shape" transform="translate(44.8299,-5.06516)">
				<title>工作表.82</title>
				<path d="M0 594.6 a0.675 0.675 -180 1 1 1.35 0 a0.675 0.675 -180 1 1 -1.35 0 ZM2.03 594.6 a0.675 0.675 -180 1 1 1.35
							 0 a0.675 0.675 -180 1 1 -1.35 0 ZM4.73 595.28 L6.07 595.28 L6.07 593.93 L4.73 593.93 a0.675 0.675 -180
							 1 0 9.76996E-015 1.35 ZM6.07 595.28 L7.42 595.28 a0.675 0.675 -180 0 0 0 -1.35 L6.07 593.93 L6.07 595.28
							 ZM9.45 595.28 L10.8 595.28 L10.8 593.93 L9.45 593.93 a0.675 0.675 -180 1 0 8.88178E-015 1.35 ZM10.8
							 595.28 L12.15 595.28 a0.675 0.675 -180 0 0 0 -1.35 L10.8 593.93 L10.8 595.28 Z" class="st6"/>
			</g>
			<g id="shape83-261" v:mID="83" v:groupContext="shape" transform="translate(5.24409,0)">
				<title>工作表.83</title>
			</g>
			<g id="shape84-263" v:mID="84" v:groupContext="shape" transform="translate(-32.8904,0)">
				<title>工作表.84</title>
				<v:textBlock v:margins="rect(0,0,0,0)" v:tabSpace="42.5197"/>
				<v:textRect cx="9.60522" cy="588.976" width="19.22" height="12.6"/>
				<text x="2.72" y="592.58" class="st2" v:langID="2052"><v:paragraph v:horizAlign="2"/><v:tabList/>2 U</text>			</g>
			<g id="shape61-265" v:mID="61" v:groupContext="groupContent">
				<v:textBlock v:margins="rect(0,0,0,0)" v:tabSpace="42.5197"/>
				<v:textRect cx="126.429" cy="588.976" width="102.38" height="15.9788"/>
				<rect v:rectContext="textBkgnd" x="76.5982" y="580.988" width="99.6622" height="15.9752" class="st7"/>
				<text x="76.6" y="592.97" class="st8" v:langID="2052"><v:paragraph v:horizAlign="1"/><v:tabList/>无标签：<tspan
							class="st9">10</tspan><tspan class="st9">.</tspan><tspan class="st9">96</tspan><tspan class="st9">.</tspan><tspan
							class="st9">93</tspan><tspan class="st9">.</tspan><tspan class="st9">8</tspan></text>			</g>
		</g>
		<g id="group85-275" transform="translate(63.8929,-383.287)" v:mID="85" v:groupContext="group">
			<title>服务器.85</title>
			<desc>无标签10.96.93.7</desc>
			<g id="shape86-276" v:mID="86" v:groupContext="shape" transform="translate(1.70079,0)">
				<title>工作表.86</title>
				<rect x="0" y="582.676" width="64.9984" height="12.6" class="st1"/>
			</g>
			<g id="shape87-279" v:mID="87" v:groupContext="shape" transform="translate(46.8,-6.85573)">
				<title>工作表.87</title>
				<rect x="0" y="592.99" width="9" height="2.286" class="st3"/>
			</g>
			<g id="group88-281" transform="translate(-1.70079,0)" v:mID="88" v:groupContext="group">
				<title>工作表.88</title>
				<g id="shape89-282" v:mID="89" v:groupContext="shape">
					<title>工作表.89</title>
					<rect x="0" y="588.976" width="3.40157" height="6.3" class="st1"/>
				</g>
				<g id="shape90-285" v:mID="90" v:groupContext="shape" transform="translate(1.11615,-0.225)">
					<title>工作表.90</title>
					<path d="M0 594.94 L0.58 595.28 L1.17 594.94 L1.17 594.26 L0.58 593.93 L0 594.26 L0 594.94 Z" class="st1"/>
				</g>
				<g id="shape91-288" v:mID="91" v:groupContext="shape" transform="translate(1.11615,-4.725)">
					<title>工作表.91</title>
					<path d="M0 594.94 L0.58 595.28 L1.17 594.94 L1.17 594.26 L0.58 593.93 L0 594.26 L0 594.94 Z" class="st1"/>
				</g>
			</g>
			<g id="group92-291" transform="translate(66.6992,0)" v:mID="92" v:groupContext="group">
				<title>工作表.92</title>
				<g id="shape93-292" v:mID="93" v:groupContext="shape">
					<title>工作表.93</title>
					<rect x="0" y="588.976" width="3.40157" height="6.3" class="st1"/>
				</g>
				<g id="shape94-295" v:mID="94" v:groupContext="shape" transform="translate(1.11615,-0.225)">
					<title>工作表.94</title>
					<path d="M0 594.94 L0.58 595.28 L1.17 594.94 L1.17 594.26 L0.58 593.93 L0 594.26 L0 594.94 Z" class="st1"/>
				</g>
				<g id="shape95-298" v:mID="95" v:groupContext="shape" transform="translate(1.11615,-4.725)">
					<title>工作表.95</title>
					<path d="M0 594.94 L0.58 595.28 L1.17 594.94 L1.17 594.26 L0.58 593.93 L0 594.26 L0 594.94 Z" class="st1"/>
				</g>
			</g>
			<g id="group96-301" transform="translate(-1.70079,-6.3)" v:mID="96" v:groupContext="group">
				<title>工作表.96</title>
				<g id="shape97-302" v:mID="97" v:groupContext="shape">
					<title>工作表.97</title>
					<rect x="0" y="588.976" width="3.40157" height="6.3" class="st1"/>
				</g>
				<g id="shape98-305" v:mID="98" v:groupContext="shape" transform="translate(1.11615,-0.225)">
					<title>工作表.98</title>
					<path d="M0 594.94 L0.58 595.28 L1.17 594.94 L1.17 594.26 L0.58 593.93 L0 594.26 L0 594.94 Z" class="st1"/>
				</g>
				<g id="shape99-308" v:mID="99" v:groupContext="shape" transform="translate(1.11615,-4.725)">
					<title>工作表.99</title>
					<path d="M0 594.94 L0.58 595.28 L1.17 594.94 L1.17 594.26 L0.58 593.93 L0 594.26 L0 594.94 Z" class="st1"/>
				</g>
			</g>
			<g id="group100-311" transform="translate(66.6992,-6.3)" v:mID="100" v:groupContext="group">
				<title>工作表.100</title>
				<g id="shape101-312" v:mID="101" v:groupContext="shape">
					<title>工作表.101</title>
					<rect x="0" y="588.976" width="3.40157" height="6.3" class="st1"/>
				</g>
				<g id="shape102-315" v:mID="102" v:groupContext="shape" transform="translate(1.11615,-0.225)">
					<title>工作表.102</title>
					<path d="M0 594.94 L0.58 595.28 L1.17 594.94 L1.17 594.26 L0.58 593.93 L0 594.26 L0 594.94 Z" class="st1"/>
				</g>
				<g id="shape103-318" v:mID="103" v:groupContext="shape" transform="translate(1.11615,-4.725)">
					<title>工作表.103</title>
					<path d="M0 594.94 L0.58 595.28 L1.17 594.94 L1.17 594.26 L0.58 593.93 L0 594.26 L0 594.94 Z" class="st1"/>
				</g>
			</g>
			<g id="shape104-321" v:mID="104" v:groupContext="shape" transform="translate(5.24409,0)">
				<title>工作表.104</title>
				<path d="M30.73 591.02 L57.91 591.02 L57.91 584.5 L30.73 584.5 L30.73 591.02" class="st4"/>
				<path d="M36.04 590.57 L56.14 590.57 L56.14 584.96 L36.04 584.96 L36.04 590.57" class="st4"/>
				<path d="M37.81 589.54 L54.37 589.54 L54.37 585.28 L37.81 585.28 L37.81 589.54" class="st4"/>
				<path d="M0 593.15 L57.91 593.15" class="st4"/>
				<path d="M0 586.93 L0 582.68" class="st4"/>
				<path d="M57.91 586.93 L57.91 582.68" class="st4"/>
				<path d="M30.73 591.02 L36.04 590.57" class="st4"/>
				<path d="M30.73 584.5 L36.04 584.96" class="st4"/>
				<path d="M57.91 591.02 L56.14 590.57" class="st4"/>
				<path d="M57.91 584.5 L56.14 584.96" class="st4"/>
				<path d="M43.43 585.28 L43.43 584.96" class="st4"/>
				<path d="M50.38 585.28 L50.38 584.96" class="st4"/>
			</g>
			<g id="shape105-335" v:mID="105" v:groupContext="shape" transform="translate(5.24409,-4.25197)">
				<title>工作表.105</title>
				<path d="M0 595.28 L0.45 593.23 L28.5 593.23 L28.96 595.28 L28.96 593.01 L0 593.01 L0 595.28 ZM0 591.02 L0.45 588.98
							 L28.5 588.98 L28.96 591.02 L28.96 588.76 L0 588.76 L0 591.02 Z" class="st5"/>
				<path d="M0 595.28 L28.96 595.28 L28.96 593.01 L0 593.01 L0 595.28" class="st4"/>
				<path d="M0 595.28 L0.45 593.23 L28.5 593.23 L28.96 595.28 L28.96 593.01 L0 593.01 L0 595.28" class="st4"/>
				<path d="M0 591.02 L28.96 591.02 L28.96 588.76 L0 588.76 L0 591.02" class="st4"/>
				<path d="M0 591.02 L0.45 588.98 L28.5 588.98 L28.96 591.02 L28.96 588.76 L0 588.76 L0 591.02" class="st4"/>
			</g>
			<g id="shape106-341" v:mID="106" v:groupContext="shape" transform="translate(44.8299,-5.06516)">
				<title>工作表.106</title>
				<path d="M0 594.6 a0.675 0.675 -180 1 1 1.35 0 a0.675 0.675 -180 1 1 -1.35 0 ZM2.03 594.6 a0.675 0.675 -180 1 1 1.35
							 0 a0.675 0.675 -180 1 1 -1.35 0 ZM4.73 595.28 L6.07 595.28 L6.07 593.93 L4.73 593.93 a0.675 0.675 -180
							 1 0 9.76996E-015 1.35 ZM6.07 595.28 L7.42 595.28 a0.675 0.675 -180 0 0 0 -1.35 L6.07 593.93 L6.07 595.28
							 ZM9.45 595.28 L10.8 595.28 L10.8 593.93 L9.45 593.93 a0.675 0.675 -180 1 0 8.88178E-015 1.35 ZM10.8
							 595.28 L12.15 595.28 a0.675 0.675 -180 0 0 0 -1.35 L10.8 593.93 L10.8 595.28 Z" class="st6"/>
			</g>
			<g id="shape107-343" v:mID="107" v:groupContext="shape" transform="translate(5.24409,0)">
				<title>工作表.107</title>
			</g>
			<g id="shape108-345" v:mID="108" v:groupContext="shape" transform="translate(-32.8904,0)">
				<title>工作表.108</title>
				<v:textBlock v:margins="rect(0,0,0,0)" v:tabSpace="42.5197"/>
				<v:textRect cx="9.60522" cy="588.976" width="19.22" height="12.6"/>
				<text x="2.72" y="592.58" class="st2" v:langID="2052"><v:paragraph v:horizAlign="2"/><v:tabList/>2 U</text>			</g>
			<g id="shape85-347" v:mID="85" v:groupContext="groupContent">
				<v:textBlock v:margins="rect(0,0,0,0)" v:tabSpace="42.5197"/>
				<v:textRect cx="126.429" cy="588.976" width="102.38" height="15.9788"/>
				<rect v:rectContext="textBkgnd" x="76.5982" y="580.988" width="99.6622" height="15.9752" class="st7"/>
				<text x="76.6" y="592.97" class="st8" v:langID="2052"><v:paragraph v:horizAlign="1"/><v:tabList/>无标签：<tspan
							class="st9">10</tspan><tspan class="st9">.</tspan><tspan class="st9">96</tspan><tspan class="st9">.</tspan><tspan
							class="st9">93</tspan><tspan class="st9">.</tspan><tspan class="st9">7</tspan></text>			</g>
		</g>
		<g id="group109-357" transform="translate(63.8929,-402.187)" v:mID="109" v:groupContext="group">
			<title>服务器.109</title>
			<desc>无标签10.96.93.6</desc>
			<g id="shape110-358" v:mID="110" v:groupContext="shape" transform="translate(1.70079,0)">
				<title>工作表.110</title>
				<rect x="0" y="582.676" width="64.9984" height="12.6" class="st1"/>
			</g>
			<g id="shape111-361" v:mID="111" v:groupContext="shape" transform="translate(46.8,-6.85573)">
				<title>工作表.111</title>
				<rect x="0" y="592.99" width="9" height="2.286" class="st3"/>
			</g>
			<g id="group112-363" transform="translate(-1.70079,0)" v:mID="112" v:groupContext="group">
				<title>工作表.112</title>
				<g id="shape113-364" v:mID="113" v:groupContext="shape">
					<title>工作表.113</title>
					<rect x="0" y="588.976" width="3.40157" height="6.3" class="st1"/>
				</g>
				<g id="shape114-367" v:mID="114" v:groupContext="shape" transform="translate(1.11615,-0.225)">
					<title>工作表.114</title>
					<path d="M0 594.94 L0.58 595.28 L1.17 594.94 L1.17 594.26 L0.58 593.93 L0 594.26 L0 594.94 Z" class="st1"/>
				</g>
				<g id="shape115-370" v:mID="115" v:groupContext="shape" transform="translate(1.11615,-4.725)">
					<title>工作表.115</title>
					<path d="M0 594.94 L0.58 595.28 L1.17 594.94 L1.17 594.26 L0.58 593.93 L0 594.26 L0 594.94 Z" class="st1"/>
				</g>
			</g>
			<g id="group116-373" transform="translate(66.6992,0)" v:mID="116" v:groupContext="group">
				<title>工作表.116</title>
				<g id="shape117-374" v:mID="117" v:groupContext="shape">
					<title>工作表.117</title>
					<rect x="0" y="588.976" width="3.40157" height="6.3" class="st1"/>
				</g>
				<g id="shape118-377" v:mID="118" v:groupContext="shape" transform="translate(1.11615,-0.225)">
					<title>工作表.118</title>
					<path d="M0 594.94 L0.58 595.28 L1.17 594.94 L1.17 594.26 L0.58 593.93 L0 594.26 L0 594.94 Z" class="st1"/>
				</g>
				<g id="shape119-380" v:mID="119" v:groupContext="shape" transform="translate(1.11615,-4.725)">
					<title>工作表.119</title>
					<path d="M0 594.94 L0.58 595.28 L1.17 594.94 L1.17 594.26 L0.58 593.93 L0 594.26 L0 594.94 Z" class="st1"/>
				</g>
			</g>
			<g id="group120-383" transform="translate(-1.70079,-6.3)" v:mID="120" v:groupContext="group">
				<title>工作表.120</title>
				<g id="shape121-384" v:mID="121" v:groupContext="shape">
					<title>工作表.121</title>
					<rect x="0" y="588.976" width="3.40157" height="6.3" class="st1"/>
				</g>
				<g id="shape122-387" v:mID="122" v:groupContext="shape" transform="translate(1.11615,-0.225)">
					<title>工作表.122</title>
					<path d="M0 594.94 L0.58 595.28 L1.17 594.94 L1.17 594.26 L0.58 593.93 L0 594.26 L0 594.94 Z" class="st1"/>
				</g>
				<g id="shape123-390" v:mID="123" v:groupContext="shape" transform="translate(1.11615,-4.725)">
					<title>工作表.123</title>
					<path d="M0 594.94 L0.58 595.28 L1.17 594.94 L1.17 594.26 L0.58 593.93 L0 594.26 L0 594.94 Z" class="st1"/>
				</g>
			</g>
			<g id="group124-393" transform="translate(66.6992,-6.3)" v:mID="124" v:groupContext="group">
				<title>工作表.124</title>
				<g id="shape125-394" v:mID="125" v:groupContext="shape">
					<title>工作表.125</title>
					<rect x="0" y="588.976" width="3.40157" height="6.3" class="st1"/>
				</g>
				<g id="shape126-397" v:mID="126" v:groupContext="shape" transform="translate(1.11615,-0.225)">
					<title>工作表.126</title>
					<path d="M0 594.94 L0.58 595.28 L1.17 594.94 L1.17 594.26 L0.58 593.93 L0 594.26 L0 594.94 Z" class="st1"/>
				</g>
				<g id="shape127-400" v:mID="127" v:groupContext="shape" transform="translate(1.11615,-4.725)">
					<title>工作表.127</title>
					<path d="M0 594.94 L0.58 595.28 L1.17 594.94 L1.17 594.26 L0.58 593.93 L0 594.26 L0 594.94 Z" class="st1"/>
				</g>
			</g>
			<g id="shape128-403" v:mID="128" v:groupContext="shape" transform="translate(5.24409,0)">
				<title>工作表.128</title>
				<path d="M30.73 591.02 L57.91 591.02 L57.91 584.5 L30.73 584.5 L30.73 591.02" class="st4"/>
				<path d="M36.04 590.57 L56.14 590.57 L56.14 584.96 L36.04 584.96 L36.04 590.57" class="st4"/>
				<path d="M37.81 589.54 L54.37 589.54 L54.37 585.28 L37.81 585.28 L37.81 589.54" class="st4"/>
				<path d="M0 593.15 L57.91 593.15" class="st4"/>
				<path d="M0 586.93 L0 582.68" class="st4"/>
				<path d="M57.91 586.93 L57.91 582.68" class="st4"/>
				<path d="M30.73 591.02 L36.04 590.57" class="st4"/>
				<path d="M30.73 584.5 L36.04 584.96" class="st4"/>
				<path d="M57.91 591.02 L56.14 590.57" class="st4"/>
				<path d="M57.91 584.5 L56.14 584.96" class="st4"/>
				<path d="M43.43 585.28 L43.43 584.96" class="st4"/>
				<path d="M50.38 585.28 L50.38 584.96" class="st4"/>
			</g>
			<g id="shape129-417" v:mID="129" v:groupContext="shape" transform="translate(5.24409,-4.25197)">
				<title>工作表.129</title>
				<path d="M0 595.28 L0.45 593.23 L28.5 593.23 L28.96 595.28 L28.96 593.01 L0 593.01 L0 595.28 ZM0 591.02 L0.45 588.98
							 L28.5 588.98 L28.96 591.02 L28.96 588.76 L0 588.76 L0 591.02 Z" class="st5"/>
				<path d="M0 595.28 L28.96 595.28 L28.96 593.01 L0 593.01 L0 595.28" class="st4"/>
				<path d="M0 595.28 L0.45 593.23 L28.5 593.23 L28.96 595.28 L28.96 593.01 L0 593.01 L0 595.28" class="st4"/>
				<path d="M0 591.02 L28.96 591.02 L28.96 588.76 L0 588.76 L0 591.02" class="st4"/>
				<path d="M0 591.02 L0.45 588.98 L28.5 588.98 L28.96 591.02 L28.96 588.76 L0 588.76 L0 591.02" class="st4"/>
			</g>
			<g id="shape130-423" v:mID="130" v:groupContext="shape" transform="translate(44.8299,-5.06516)">
				<title>工作表.130</title>
				<path d="M0 594.6 a0.675 0.675 -180 1 1 1.35 0 a0.675 0.675 -180 1 1 -1.35 0 ZM2.03 594.6 a0.675 0.675 -180 1 1 1.35
							 0 a0.675 0.675 -180 1 1 -1.35 0 ZM4.73 595.28 L6.07 595.28 L6.07 593.93 L4.73 593.93 a0.675 0.675 -180
							 1 0 9.76996E-015 1.35 ZM6.07 595.28 L7.42 595.28 a0.675 0.675 -180 0 0 0 -1.35 L6.07 593.93 L6.07 595.28
							 ZM9.45 595.28 L10.8 595.28 L10.8 593.93 L9.45 593.93 a0.675 0.675 -180 1 0 8.88178E-015 1.35 ZM10.8
							 595.28 L12.15 595.28 a0.675 0.675 -180 0 0 0 -1.35 L10.8 593.93 L10.8 595.28 Z" class="st6"/>
			</g>
			<g id="shape131-425" v:mID="131" v:groupContext="shape" transform="translate(5.24409,0)">
				<title>工作表.131</title>
			</g>
			<g id="shape132-427" v:mID="132" v:groupContext="shape" transform="translate(-32.8904,0)">
				<title>工作表.132</title>
				<v:textBlock v:margins="rect(0,0,0,0)" v:tabSpace="42.5197"/>
				<v:textRect cx="9.60522" cy="588.976" width="19.22" height="12.6"/>
				<text x="2.72" y="592.58" class="st2" v:langID="2052"><v:paragraph v:horizAlign="2"/><v:tabList/>2 U</text>			</g>
			<g id="shape109-429" v:mID="109" v:groupContext="groupContent">
				<v:textBlock v:margins="rect(0,0,0,0)" v:tabSpace="42.5197"/>
				<v:textRect cx="126.429" cy="588.976" width="102.38" height="15.9788"/>
				<rect v:rectContext="textBkgnd" x="76.5982" y="580.988" width="99.6622" height="15.9752" class="st7"/>
				<text x="76.6" y="592.97" class="st8" v:langID="2052"><v:paragraph v:horizAlign="1"/><v:tabList/>无标签：<tspan
							class="st9">10</tspan><tspan class="st9">.</tspan><tspan class="st9">96</tspan><tspan class="st9">.</tspan><tspan
							class="st9">93</tspan><tspan class="st9">.</tspan><tspan class="st9">6</tspan></text>			</g>
		</g>
		<g id="group133-439" transform="translate(63.8929,-421.087)" v:mID="133" v:groupContext="group">
			<title>服务器.133</title>
			<desc>无标签10.96.93.4</desc>
			<g id="shape134-440" v:mID="134" v:groupContext="shape" transform="translate(1.70079,0)">
				<title>工作表.134</title>
				<rect x="0" y="582.676" width="64.9984" height="12.6" class="st1"/>
			</g>
			<g id="shape135-443" v:mID="135" v:groupContext="shape" transform="translate(46.8,-6.85573)">
				<title>工作表.135</title>
				<rect x="0" y="592.99" width="9" height="2.286" class="st3"/>
			</g>
			<g id="group136-445" transform="translate(-1.70079,0)" v:mID="136" v:groupContext="group">
				<title>工作表.136</title>
				<g id="shape137-446" v:mID="137" v:groupContext="shape">
					<title>工作表.137</title>
					<rect x="0" y="588.976" width="3.40157" height="6.3" class="st1"/>
				</g>
				<g id="shape138-449" v:mID="138" v:groupContext="shape" transform="translate(1.11615,-0.225)">
					<title>工作表.138</title>
					<path d="M0 594.94 L0.58 595.28 L1.17 594.94 L1.17 594.26 L0.58 593.93 L0 594.26 L0 594.94 Z" class="st1"/>
				</g>
				<g id="shape139-452" v:mID="139" v:groupContext="shape" transform="translate(1.11615,-4.725)">
					<title>工作表.139</title>
					<path d="M0 594.94 L0.58 595.28 L1.17 594.94 L1.17 594.26 L0.58 593.93 L0 594.26 L0 594.94 Z" class="st1"/>
				</g>
			</g>
			<g id="group140-455" transform="translate(66.6992,0)" v:mID="140" v:groupContext="group">
				<title>工作表.140</title>
				<g id="shape141-456" v:mID="141" v:groupContext="shape">
					<title>工作表.141</title>
					<rect x="0" y="588.976" width="3.40157" height="6.3" class="st1"/>
				</g>
				<g id="shape142-459" v:mID="142" v:groupContext="shape" transform="translate(1.11615,-0.225)">
					<title>工作表.142</title>
					<path d="M0 594.94 L0.58 595.28 L1.17 594.94 L1.17 594.26 L0.58 593.93 L0 594.26 L0 594.94 Z" class="st1"/>
				</g>
				<g id="shape143-462" v:mID="143" v:groupContext="shape" transform="translate(1.11615,-4.725)">
					<title>工作表.143</title>
					<path d="M0 594.94 L0.58 595.28 L1.17 594.94 L1.17 594.26 L0.58 593.93 L0 594.26 L0 594.94 Z" class="st1"/>
				</g>
			</g>
			<g id="group144-465" transform="translate(-1.70079,-6.3)" v:mID="144" v:groupContext="group">
				<title>工作表.144</title>
				<g id="shape145-466" v:mID="145" v:groupContext="shape">
					<title>工作表.145</title>
					<rect x="0" y="588.976" width="3.40157" height="6.3" class="st1"/>
				</g>
				<g id="shape146-469" v:mID="146" v:groupContext="shape" transform="translate(1.11615,-0.225)">
					<title>工作表.146</title>
					<path d="M0 594.94 L0.58 595.28 L1.17 594.94 L1.17 594.26 L0.58 593.93 L0 594.26 L0 594.94 Z" class="st1"/>
				</g>
				<g id="shape147-472" v:mID="147" v:groupContext="shape" transform="translate(1.11615,-4.725)">
					<title>工作表.147</title>
					<path d="M0 594.94 L0.58 595.28 L1.17 594.94 L1.17 594.26 L0.58 593.93 L0 594.26 L0 594.94 Z" class="st1"/>
				</g>
			</g>
			<g id="group148-475" transform="translate(66.6992,-6.3)" v:mID="148" v:groupContext="group">
				<title>工作表.148</title>
				<g id="shape149-476" v:mID="149" v:groupContext="shape">
					<title>工作表.149</title>
					<rect x="0" y="588.976" width="3.40157" height="6.3" class="st1"/>
				</g>
				<g id="shape150-479" v:mID="150" v:groupContext="shape" transform="translate(1.11615,-0.225)">
					<title>工作表.150</title>
					<path d="M0 594.94 L0.58 595.28 L1.17 594.94 L1.17 594.26 L0.58 593.93 L0 594.26 L0 594.94 Z" class="st1"/>
				</g>
				<g id="shape151-482" v:mID="151" v:groupContext="shape" transform="translate(1.11615,-4.725)">
					<title>工作表.151</title>
					<path d="M0 594.94 L0.58 595.28 L1.17 594.94 L1.17 594.26 L0.58 593.93 L0 594.26 L0 594.94 Z" class="st1"/>
				</g>
			</g>
			<g id="shape152-485" v:mID="152" v:groupContext="shape" transform="translate(5.24409,0)">
				<title>工作表.152</title>
				<path d="M30.73 591.02 L57.91 591.02 L57.91 584.5 L30.73 584.5 L30.73 591.02" class="st4"/>
				<path d="M36.04 590.57 L56.14 590.57 L56.14 584.96 L36.04 584.96 L36.04 590.57" class="st4"/>
				<path d="M37.81 589.54 L54.37 589.54 L54.37 585.28 L37.81 585.28 L37.81 589.54" class="st4"/>
				<path d="M0 593.15 L57.91 593.15" class="st4"/>
				<path d="M0 586.93 L0 582.68" class="st4"/>
				<path d="M57.91 586.93 L57.91 582.68" class="st4"/>
				<path d="M30.73 591.02 L36.04 590.57" class="st4"/>
				<path d="M30.73 584.5 L36.04 584.96" class="st4"/>
				<path d="M57.91 591.02 L56.14 590.57" class="st4"/>
				<path d="M57.91 584.5 L56.14 584.96" class="st4"/>
				<path d="M43.43 585.28 L43.43 584.96" class="st4"/>
				<path d="M50.38 585.28 L50.38 584.96" class="st4"/>
			</g>
			<g id="shape153-499" v:mID="153" v:groupContext="shape" transform="translate(5.24409,-4.25197)">
				<title>工作表.153</title>
				<path d="M0 595.28 L0.45 593.23 L28.5 593.23 L28.96 595.28 L28.96 593.01 L0 593.01 L0 595.28 ZM0 591.02 L0.45 588.98
							 L28.5 588.98 L28.96 591.02 L28.96 588.76 L0 588.76 L0 591.02 Z" class="st5"/>
				<path d="M0 595.28 L28.96 595.28 L28.96 593.01 L0 593.01 L0 595.28" class="st4"/>
				<path d="M0 595.28 L0.45 593.23 L28.5 593.23 L28.96 595.28 L28.96 593.01 L0 593.01 L0 595.28" class="st4"/>
				<path d="M0 591.02 L28.96 591.02 L28.96 588.76 L0 588.76 L0 591.02" class="st4"/>
				<path d="M0 591.02 L0.45 588.98 L28.5 588.98 L28.96 591.02 L28.96 588.76 L0 588.76 L0 591.02" class="st4"/>
			</g>
			<g id="shape154-505" v:mID="154" v:groupContext="shape" transform="translate(44.8299,-5.06516)">
				<title>工作表.154</title>
				<path d="M0 594.6 a0.675 0.675 -180 1 1 1.35 0 a0.675 0.675 -180 1 1 -1.35 0 ZM2.03 594.6 a0.675 0.675 -180 1 1 1.35
							 0 a0.675 0.675 -180 1 1 -1.35 0 ZM4.73 595.28 L6.07 595.28 L6.07 593.93 L4.73 593.93 a0.675 0.675 -180
							 1 0 9.76996E-015 1.35 ZM6.07 595.28 L7.42 595.28 a0.675 0.675 -180 0 0 0 -1.35 L6.07 593.93 L6.07 595.28
							 ZM9.45 595.28 L10.8 595.28 L10.8 593.93 L9.45 593.93 a0.675 0.675 -180 1 0 8.88178E-015 1.35 ZM10.8
							 595.28 L12.15 595.28 a0.675 0.675 -180 0 0 0 -1.35 L10.8 593.93 L10.8 595.28 Z" class="st6"/>
			</g>
			<g id="shape155-507" v:mID="155" v:groupContext="shape" transform="translate(5.24409,0)">
				<title>工作表.155</title>
			</g>
			<g id="shape156-509" v:mID="156" v:groupContext="shape" transform="translate(-32.8904,0)">
				<title>工作表.156</title>
				<v:textBlock v:margins="rect(0,0,0,0)" v:tabSpace="42.5197"/>
				<v:textRect cx="9.60522" cy="588.976" width="19.22" height="12.6"/>
				<text x="2.72" y="592.58" class="st2" v:langID="2052"><v:paragraph v:horizAlign="2"/><v:tabList/>2 U</text>			</g>
			<g id="shape133-511" v:mID="133" v:groupContext="groupContent">
				<v:textBlock v:margins="rect(0,0,0,0)" v:tabSpace="42.5197"/>
				<v:textRect cx="126.429" cy="588.976" width="102.38" height="15.9788"/>
				<rect v:rectContext="textBkgnd" x="76.5982" y="580.988" width="99.6622" height="15.9752" class="st7"/>
				<text x="76.6" y="592.97" class="st8" v:langID="2052"><v:paragraph v:horizAlign="1"/><v:tabList/>无标签：<tspan
							class="st9">10</tspan><tspan class="st9">.</tspan><tspan class="st9">96</tspan><tspan class="st9">.</tspan><tspan
							class="st9">93</tspan><tspan class="st9">.</tspan><tspan class="st9">4</tspan></text>			</g>
		</g>
		<g id="group181-521" transform="translate(63.8929,-439.987)" v:mID="181" v:groupContext="group">
			<title>RAID 阵列</title>
			<desc>Uit统一存储无标签</desc>
			<g id="shape182-522" v:mID="182" v:groupContext="shape" transform="translate(-1.70079,0)">
				<title>工作表.182</title>
				<rect x="0" y="576.376" width="71.8016" height="18.9" class="st1"/>
			</g>
			<g id="group183-525" transform="translate(-1.70079,0)" v:mID="183" v:groupContext="group">
				<title>工作表.183</title>
				<g id="shape184-526" v:mID="184" v:groupContext="shape" transform="translate(1.11615,-0.225)">
					<title>工作表.184</title>
					<path d="M0 594.94 L0.58 595.28 L1.17 594.94 L1.17 594.26 L0.58 593.93 L0 594.26 L0 594.94 Z" class="st1"/>
				</g>
				<g id="shape185-529" v:mID="185" v:groupContext="shape" transform="translate(1.11615,-17.325)">
					<title>工作表.185</title>
					<path d="M0 594.94 L0.58 595.28 L1.17 594.94 L1.17 594.26 L0.58 593.93 L0 594.26 L0 594.94 Z" class="st1"/>
				</g>
				<g id="shape186-532" v:mID="186" v:groupContext="shape" transform="translate(0.850394,-3.40157)">
					<title>工作表.186</title>
					<path d="M0 594.43 a0.850394 0.850394 -180 0 0 1.70079 0 L1.7 584.03 a0.850394 0.850394 -180 0 0 -1.70079 0 L0
								 594.43 Z" class="st10"/>
				</g>
			</g>
			<g id="group187-538" transform="translate(66.6992,0)" v:mID="187" v:groupContext="group">
				<title>工作表.187</title>
				<g id="shape188-539" v:mID="188" v:groupContext="shape" transform="translate(1.11615,-0.225)">
					<title>工作表.188</title>
					<path d="M0 594.94 L0.58 595.28 L1.17 594.94 L1.17 594.26 L0.58 593.93 L0 594.26 L0 594.94 Z" class="st1"/>
				</g>
				<g id="shape189-542" v:mID="189" v:groupContext="shape" transform="translate(1.11615,-17.325)">
					<title>工作表.189</title>
					<path d="M0 594.94 L0.58 595.28 L1.17 594.94 L1.17 594.26 L0.58 593.93 L0 594.26 L0 594.94 Z" class="st1"/>
				</g>
				<g id="shape190-545" v:mID="190" v:groupContext="shape" transform="translate(0.850394,-3.40157)">
					<title>工作表.190</title>
					<path d="M0 594.43 a0.850394 0.850394 -180 0 0 1.70079 0 L1.7 584.03 a0.850394 0.850394 -180 0 0 -1.70079 0 L0
								 594.43 Z" class="st10"/>
				</g>
			</g>
			<g id="group191-548" v:mID="191" v:groupContext="group">
				<title>工作表.191</title>
				<g id="shape192-549" v:mID="192" v:groupContext="shape" transform="translate(4.43622,-1.70079)">
					<title>工作表.192</title>
					<path d="M0 595.28 L3.97 595.28 L3.97 579.78 L0 579.78 L0 595.28 ZM3.97 595.28 L7.94 595.28 L7.94 579.78 L3.97
								 579.78 L3.97 595.28 ZM7.94 595.28 L11.91 595.28 L11.91 579.78 L7.94 579.78 L7.94 595.28 ZM11.91
								 595.28 L15.87 595.28 L15.87 579.78 L11.91 579.78 L11.91 595.28 ZM15.87 595.28 L19.84 595.28 L19.84
								 579.78 L15.87 579.78 L15.87 595.28 ZM19.84 595.28 L23.81 595.28 L23.81 579.78 L19.84 579.78 L19.84
								 595.28 ZM23.81 595.28 L27.78 595.28 L27.78 579.78 L23.81 579.78 L23.81 595.28 ZM31.75 595.28 L35.72
								 595.28 L35.72 579.78 L31.75 579.78 L31.75 595.28 ZM35.72 595.28 L39.69 595.28 L39.69 579.78 L35.72
								 579.78 L35.72 595.28 ZM39.69 595.28 L43.65 595.28 L43.65 579.78 L39.69 579.78 L39.69 595.28 ZM43.65
								 595.28 L47.62 595.28 L47.62 579.78 L43.65 579.78 L43.65 595.28 ZM47.62 595.28 L51.59 595.28 L51.59
								 579.78 L47.62 579.78 L47.62 595.28 ZM51.59 595.28 L55.56 595.28 L55.56 579.78 L51.59 579.78 L51.59
								 595.28 ZM55.56 595.28 L59.53 595.28 L59.53 579.78 L55.56 579.78 L55.56 595.28 Z" class="st11"/>
				</g>
				<g id="shape193-551" v:mID="193" v:groupContext="shape" transform="translate(4.43622,-1.70079)">
					<title>工作表.193</title>
					<path d="M0.99 592.18 a0.992126 0.992126 -180 0 0 1.98425 0 L2.98 582.88 a0.992126 0.992126 -180 0 0 -1.98425
								 0 L0.99 592.18 ZM4.96 592.18 a0.992126 0.992126 -180 1 0 1.98425 0 L6.94 582.88 a0.992126 0.992126
								 -180 0 0 -1.98425 0 L4.96 592.18 ZM8.93 592.18 a0.992126 0.992126 -180 0 0 1.98425 0 L10.91 582.88
								 a0.992126 0.992126 -180 0 0 -1.98425 0 L8.93 592.18 ZM12.9 592.18 a0.992126 0.992126 -180 1 0 1.98425
								 0 L14.88 582.88 a0.992126 0.992126 -180 0 0 -1.98425 0 L12.9 592.18 ZM16.87 592.18 a0.992126 0.992126
								 -180 0 0 1.98425 0 L18.85 582.88 a0.992126 0.992126 -180 0 0 -1.98425 0 L16.87 592.18 ZM20.83 592.18
								 a0.992126 0.992126 -180 0 0 1.98425 0 L22.82 582.88 a0.992126 0.992126 -180 0 0 -1.98425 0 L20.83
								 592.18 ZM24.8 592.18 a0.992126 0.992126 -180 0 0 1.98425 0 L26.79 582.88 a0.992126 0.992126 -180
								 0 0 -1.98425 0 L24.8 592.18 ZM32.74 592.18 a0.992126 0.992126 -180 1 0 1.98425 0 L34.72 582.88 a0.992126
								 0.992126 -180 1 0 -1.98425 0 L32.74 592.18 ZM36.71 592.18 a0.992126 0.992126 -180 1 0 1.98425 0
								 L38.69 582.88 a0.992126 0.992126 -180 1 0 -1.98425 0 L36.71 592.18 ZM40.68 592.18 a0.992126 0.992126
								 -180 1 0 1.98425 0 L42.66 582.88 a0.992126 0.992126 -180 1 0 -1.98425 0 L40.68 592.18 ZM44.65 592.18
								 a0.992126 0.992126 -180 1 0 1.98425 0 L46.63 582.88 a0.992126 0.992126 -180 1 0 -1.98425 0 L44.65
								 592.18 ZM48.61 592.18 a0.992126 0.992126 -180 1 0 1.98425 0 L50.6 582.88 a0.992126 0.992126 -180
								 1 0 -1.98425 0 L48.61 592.18 ZM52.58 592.18 a0.992126 0.992126 -180 0 0 1.98425 0 L54.57 582.88
								 a0.992126 0.992126 -180 0 0 -1.98425 0 L52.58 592.18 ZM56.55 592.18 a0.992126 0.992126 -180 1 0
								 1.98425 0 L58.54 582.88 a0.992126 0.992126 -180 1 0 -1.98425 0 L56.55 592.18 Z" class="st12"/>
				</g>
				<g id="shape194-553" v:mID="194" v:groupContext="shape" transform="translate(32.85,-6.075)">
					<title>工作表.194</title>
					<path d="M0.85 594.85 a0.425197 0.425197 -180 1 0 -0.850394 0 a0.425197 0.425197 -180 1 0 0.850394 0 ZM0.85 591.9
								 a0.425197 0.425197 -180 1 0 -0.850394 0 a0.425197 0.425197 -180 1 0 0.850394 0 ZM2.7 594.85 a0.425197
								 0.425197 -180 1 0 -0.850394 0 a0.425197 0.425197 -180 1 0 0.850394 0 ZM2.7 591.9 a0.425197 0.425197
								 -180 1 0 -0.850394 0 a0.425197 0.425197 -180 1 0 0.850394 0 ZM1.78 588.95 a0.425197 0.425197 -180
								 1 0 -0.850394 0 a0.425197 0.425197 -180 1 0 0.850394 0 Z" class="st13"/>
				</g>
			</g>
			<g id="group195-555" transform="translate(0,-18.9)" v:mID="195" v:groupContext="group">
				<title>工作表.195</title>
				<g id="shape196-556" v:mID="196" v:groupContext="shape" transform="translate(4.5,-1.8)">
					<title>工作表.196</title>
				</g>
				<g id="shape197-558" v:mID="197" v:groupContext="shape" transform="translate(4.5,-1.8)">
					<title>工作表.197</title>
				</g>
				<g id="shape198-560" v:mID="198" v:groupContext="shape" transform="translate(32.85,-6.075)">
					<title>工作表.198</title>
				</g>
			</g>
			<g id="group199-562" transform="translate(0,-37.8)" v:mID="199" v:groupContext="group">
				<title>工作表.199</title>
				<g id="shape200-563" v:mID="200" v:groupContext="shape" transform="translate(4.5,-1.8)">
					<title>工作表.200</title>
				</g>
				<g id="shape201-565" v:mID="201" v:groupContext="shape" transform="translate(4.5,-1.8)">
					<title>工作表.201</title>
				</g>
				<g id="shape202-567" v:mID="202" v:groupContext="shape" transform="translate(32.85,-6.075)">
					<title>工作表.202</title>
				</g>
			</g>
			<g id="group203-569" transform="translate(0,-56.7)" v:mID="203" v:groupContext="group">
				<title>工作表.203</title>
				<g id="shape204-570" v:mID="204" v:groupContext="shape" transform="translate(4.5,-1.8)">
					<title>工作表.204</title>
				</g>
				<g id="shape205-572" v:mID="205" v:groupContext="shape" transform="translate(4.5,-1.8)">
					<title>工作表.205</title>
				</g>
				<g id="shape206-574" v:mID="206" v:groupContext="shape" transform="translate(32.85,-6.075)">
					<title>工作表.206</title>
				</g>
			</g>
			<g id="shape207-576" v:mID="207" v:groupContext="shape" transform="translate(-32.8904,0)">
				<title>工作表.207</title>
				<v:textBlock v:margins="rect(0,0,0,0)" v:tabSpace="42.5197"/>
				<v:textRect cx="9.60522" cy="585.826" width="19.22" height="18.9"/>
				<text x="2.72" y="589.43" class="st2" v:langID="2052"><v:paragraph v:horizAlign="2"/><v:tabList/>3 U</text>			</g>
			<g id="shape181-578" v:mID="181" v:groupContext="groupContent">
				<v:textBlock v:margins="rect(0,0,0,0)" v:tabSpace="42.5197"/>
				<v:textRect cx="131.835" cy="585.826" width="113.19" height="15.9788"/>
				<rect v:rectContext="textBkgnd" x="76.5982" y="577.838" width="110.474" height="15.9752" class="st7"/>
				<text x="76.6" y="589.82" class="st2" v:langID="2052"><v:paragraph v:horizAlign="1"/><v:tabList/>Uit<tspan
							class="st14">统一存储</tspan><tspan class="st14">，</tspan><tspan class="st14">无标签</tspan></text>			</g>
		</g>
		<g id="group208-584" transform="translate(63.8929,-465.187)" v:mID="208" v:groupContext="group">
			<title>RAID 阵列.208</title>
			<desc>Uit统一存储无标签</desc>
			<g id="shape209-585" v:mID="209" v:groupContext="shape" transform="translate(-1.70079,0)">
				<title>工作表.209</title>
				<rect x="0" y="576.376" width="71.8016" height="18.9" class="st1"/>
			</g>
			<g id="group210-588" transform="translate(-1.70079,0)" v:mID="210" v:groupContext="group">
				<title>工作表.210</title>
				<g id="shape211-589" v:mID="211" v:groupContext="shape" transform="translate(1.11615,-0.225)">
					<title>工作表.211</title>
					<path d="M0 594.94 L0.58 595.28 L1.17 594.94 L1.17 594.26 L0.58 593.93 L0 594.26 L0 594.94 Z" class="st1"/>
				</g>
				<g id="shape212-592" v:mID="212" v:groupContext="shape" transform="translate(1.11615,-17.325)">
					<title>工作表.212</title>
					<path d="M0 594.94 L0.58 595.28 L1.17 594.94 L1.17 594.26 L0.58 593.93 L0 594.26 L0 594.94 Z" class="st1"/>
				</g>
				<g id="shape213-595" v:mID="213" v:groupContext="shape" transform="translate(0.850394,-3.40157)">
					<title>工作表.213</title>
					<path d="M0 594.43 a0.850394 0.850394 -180 0 0 1.70079 0 L1.7 584.03 a0.850394 0.850394 -180 0 0 -1.70079 0 L0
								 594.43 Z" class="st10"/>
				</g>
			</g>
			<g id="group214-598" transform="translate(66.6992,0)" v:mID="214" v:groupContext="group">
				<title>工作表.214</title>
				<g id="shape215-599" v:mID="215" v:groupContext="shape" transform="translate(1.11615,-0.225)">
					<title>工作表.215</title>
					<path d="M0 594.94 L0.58 595.28 L1.17 594.94 L1.17 594.26 L0.58 593.93 L0 594.26 L0 594.94 Z" class="st1"/>
				</g>
				<g id="shape216-602" v:mID="216" v:groupContext="shape" transform="translate(1.11615,-17.325)">
					<title>工作表.216</title>
					<path d="M0 594.94 L0.58 595.28 L1.17 594.94 L1.17 594.26 L0.58 593.93 L0 594.26 L0 594.94 Z" class="st1"/>
				</g>
				<g id="shape217-605" v:mID="217" v:groupContext="shape" transform="translate(0.850394,-3.40157)">
					<title>工作表.217</title>
					<path d="M0 594.43 a0.850394 0.850394 -180 0 0 1.70079 0 L1.7 584.03 a0.850394 0.850394 -180 0 0 -1.70079 0 L0
								 594.43 Z" class="st10"/>
				</g>
			</g>
			<g id="group218-608" v:mID="218" v:groupContext="group">
				<title>工作表.218</title>
				<g id="shape219-609" v:mID="219" v:groupContext="shape" transform="translate(4.43622,-1.70079)">
					<title>工作表.219</title>
					<path d="M0 595.28 L3.97 595.28 L3.97 579.78 L0 579.78 L0 595.28 ZM3.97 595.28 L7.94 595.28 L7.94 579.78 L3.97
								 579.78 L3.97 595.28 ZM7.94 595.28 L11.91 595.28 L11.91 579.78 L7.94 579.78 L7.94 595.28 ZM11.91
								 595.28 L15.87 595.28 L15.87 579.78 L11.91 579.78 L11.91 595.28 ZM15.87 595.28 L19.84 595.28 L19.84
								 579.78 L15.87 579.78 L15.87 595.28 ZM19.84 595.28 L23.81 595.28 L23.81 579.78 L19.84 579.78 L19.84
								 595.28 ZM23.81 595.28 L27.78 595.28 L27.78 579.78 L23.81 579.78 L23.81 595.28 ZM31.75 595.28 L35.72
								 595.28 L35.72 579.78 L31.75 579.78 L31.75 595.28 ZM35.72 595.28 L39.69 595.28 L39.69 579.78 L35.72
								 579.78 L35.72 595.28 ZM39.69 595.28 L43.65 595.28 L43.65 579.78 L39.69 579.78 L39.69 595.28 ZM43.65
								 595.28 L47.62 595.28 L47.62 579.78 L43.65 579.78 L43.65 595.28 ZM47.62 595.28 L51.59 595.28 L51.59
								 579.78 L47.62 579.78 L47.62 595.28 ZM51.59 595.28 L55.56 595.28 L55.56 579.78 L51.59 579.78 L51.59
								 595.28 ZM55.56 595.28 L59.53 595.28 L59.53 579.78 L55.56 579.78 L55.56 595.28 Z" class="st11"/>
				</g>
				<g id="shape220-611" v:mID="220" v:groupContext="shape" transform="translate(4.43622,-1.70079)">
					<title>工作表.220</title>
					<path d="M0.99 592.18 a0.992126 0.992126 -180 0 0 1.98425 0 L2.98 582.88 a0.992126 0.992126 -180 0 0 -1.98425
								 0 L0.99 592.18 ZM4.96 592.18 a0.992126 0.992126 -180 1 0 1.98425 0 L6.94 582.88 a0.992126 0.992126
								 -180 0 0 -1.98425 0 L4.96 592.18 ZM8.93 592.18 a0.992126 0.992126 -180 0 0 1.98425 0 L10.91 582.88
								 a0.992126 0.992126 -180 0 0 -1.98425 0 L8.93 592.18 ZM12.9 592.18 a0.992126 0.992126 -180 1 0 1.98425
								 0 L14.88 582.88 a0.992126 0.992126 -180 0 0 -1.98425 0 L12.9 592.18 ZM16.87 592.18 a0.992126 0.992126
								 -180 0 0 1.98425 0 L18.85 582.88 a0.992126 0.992126 -180 0 0 -1.98425 0 L16.87 592.18 ZM20.83 592.18
								 a0.992126 0.992126 -180 0 0 1.98425 0 L22.82 582.88 a0.992126 0.992126 -180 0 0 -1.98425 0 L20.83
								 592.18 ZM24.8 592.18 a0.992126 0.992126 -180 0 0 1.98425 0 L26.79 582.88 a0.992126 0.992126 -180
								 0 0 -1.98425 0 L24.8 592.18 ZM32.74 592.18 a0.992126 0.992126 -180 1 0 1.98425 0 L34.72 582.88 a0.992126
								 0.992126 -180 1 0 -1.98425 0 L32.74 592.18 ZM36.71 592.18 a0.992126 0.992126 -180 1 0 1.98425 0
								 L38.69 582.88 a0.992126 0.992126 -180 1 0 -1.98425 0 L36.71 592.18 ZM40.68 592.18 a0.992126 0.992126
								 -180 1 0 1.98425 0 L42.66 582.88 a0.992126 0.992126 -180 1 0 -1.98425 0 L40.68 592.18 ZM44.65 592.18
								 a0.992126 0.992126 -180 1 0 1.98425 0 L46.63 582.88 a0.992126 0.992126 -180 1 0 -1.98425 0 L44.65
								 592.18 ZM48.61 592.18 a0.992126 0.992126 -180 1 0 1.98425 0 L50.6 582.88 a0.992126 0.992126 -180
								 1 0 -1.98425 0 L48.61 592.18 ZM52.58 592.18 a0.992126 0.992126 -180 0 0 1.98425 0 L54.57 582.88
								 a0.992126 0.992126 -180 0 0 -1.98425 0 L52.58 592.18 ZM56.55 592.18 a0.992126 0.992126 -180 1 0
								 1.98425 0 L58.54 582.88 a0.992126 0.992126 -180 1 0 -1.98425 0 L56.55 592.18 Z" class="st12"/>
				</g>
				<g id="shape221-613" v:mID="221" v:groupContext="shape" transform="translate(32.85,-6.075)">
					<title>工作表.221</title>
					<path d="M0.85 594.85 a0.425197 0.425197 -180 1 0 -0.850394 0 a0.425197 0.425197 -180 1 0 0.850394 0 ZM0.85 591.9
								 a0.425197 0.425197 -180 1 0 -0.850394 0 a0.425197 0.425197 -180 1 0 0.850394 0 ZM2.7 594.85 a0.425197
								 0.425197 -180 1 0 -0.850394 0 a0.425197 0.425197 -180 1 0 0.850394 0 ZM2.7 591.9 a0.425197 0.425197
								 -180 1 0 -0.850394 0 a0.425197 0.425197 -180 1 0 0.850394 0 ZM1.78 588.95 a0.425197 0.425197 -180
								 1 0 -0.850394 0 a0.425197 0.425197 -180 1 0 0.850394 0 Z" class="st13"/>
				</g>
			</g>
			<g id="group222-615" transform="translate(0,-18.9)" v:mID="222" v:groupContext="group">
				<title>工作表.222</title>
				<g id="shape223-616" v:mID="223" v:groupContext="shape" transform="translate(4.5,-1.8)">
					<title>工作表.223</title>
				</g>
				<g id="shape224-618" v:mID="224" v:groupContext="shape" transform="translate(4.5,-1.8)">
					<title>工作表.224</title>
				</g>
				<g id="shape225-620" v:mID="225" v:groupContext="shape" transform="translate(32.85,-6.075)">
					<title>工作表.225</title>
				</g>
			</g>
			<g id="group226-622" transform="translate(0,-37.8)" v:mID="226" v:groupContext="group">
				<title>工作表.226</title>
				<g id="shape227-623" v:mID="227" v:groupContext="shape" transform="translate(4.5,-1.8)">
					<title>工作表.227</title>
				</g>
				<g id="shape228-625" v:mID="228" v:groupContext="shape" transform="translate(4.5,-1.8)">
					<title>工作表.228</title>
				</g>
				<g id="shape229-627" v:mID="229" v:groupContext="shape" transform="translate(32.85,-6.075)">
					<title>工作表.229</title>
				</g>
			</g>
			<g id="group230-629" transform="translate(0,-56.7)" v:mID="230" v:groupContext="group">
				<title>工作表.230</title>
				<g id="shape231-630" v:mID="231" v:groupContext="shape" transform="translate(4.5,-1.8)">
					<title>工作表.231</title>
				</g>
				<g id="shape232-632" v:mID="232" v:groupContext="shape" transform="translate(4.5,-1.8)">
					<title>工作表.232</title>
				</g>
				<g id="shape233-634" v:mID="233" v:groupContext="shape" transform="translate(32.85,-6.075)">
					<title>工作表.233</title>
				</g>
			</g>
			<g id="shape234-636" v:mID="234" v:groupContext="shape" transform="translate(-32.8904,0)">
				<title>工作表.234</title>
				<v:textBlock v:margins="rect(0,0,0,0)" v:tabSpace="42.5197"/>
				<v:textRect cx="9.60522" cy="585.826" width="19.22" height="18.9"/>
				<text x="2.72" y="589.43" class="st2" v:langID="2052"><v:paragraph v:horizAlign="2"/><v:tabList/>3 U</text>			</g>
			<g id="shape208-638" v:mID="208" v:groupContext="groupContent">
				<v:textBlock v:margins="rect(0,0,0,0)" v:tabSpace="42.5197"/>
				<v:textRect cx="131.835" cy="585.826" width="113.19" height="15.9788"/>
				<rect v:rectContext="textBkgnd" x="76.5982" y="577.838" width="110.474" height="15.9752" class="st7"/>
				<text x="76.6" y="589.82" class="st2" v:langID="2052"><v:paragraph v:horizAlign="1"/><v:tabList/>Uit<tspan
							class="st14">统一存储</tspan><tspan class="st14">，</tspan><tspan class="st14">无标签</tspan></text>			</g>
		</g>
		<g id="group235-644" transform="translate(63.8929,-490.387)" v:mID="235" v:groupContext="group">
			<title>RAID 阵列.235</title>
			<desc>Uit统一存储无标签</desc>
			<g id="shape236-645" v:mID="236" v:groupContext="shape" transform="translate(-1.70079,0)">
				<title>工作表.236</title>
				<rect x="0" y="576.376" width="71.8016" height="18.9" class="st1"/>
			</g>
			<g id="group237-648" transform="translate(-1.70079,0)" v:mID="237" v:groupContext="group">
				<title>工作表.237</title>
				<g id="shape238-649" v:mID="238" v:groupContext="shape" transform="translate(1.11615,-0.225)">
					<title>工作表.238</title>
					<path d="M0 594.94 L0.58 595.28 L1.17 594.94 L1.17 594.26 L0.58 593.93 L0 594.26 L0 594.94 Z" class="st1"/>
				</g>
				<g id="shape239-652" v:mID="239" v:groupContext="shape" transform="translate(1.11615,-17.325)">
					<title>工作表.239</title>
					<path d="M0 594.94 L0.58 595.28 L1.17 594.94 L1.17 594.26 L0.58 593.93 L0 594.26 L0 594.94 Z" class="st1"/>
				</g>
				<g id="shape240-655" v:mID="240" v:groupContext="shape" transform="translate(0.850394,-3.40157)">
					<title>工作表.240</title>
					<path d="M0 594.43 a0.850394 0.850394 -180 0 0 1.70079 0 L1.7 584.03 a0.850394 0.850394 -180 0 0 -1.70079 0 L0
								 594.43 Z" class="st10"/>
				</g>
			</g>
			<g id="group241-658" transform="translate(66.6992,0)" v:mID="241" v:groupContext="group">
				<title>工作表.241</title>
				<g id="shape242-659" v:mID="242" v:groupContext="shape" transform="translate(1.11615,-0.225)">
					<title>工作表.242</title>
					<path d="M0 594.94 L0.58 595.28 L1.17 594.94 L1.17 594.26 L0.58 593.93 L0 594.26 L0 594.94 Z" class="st1"/>
				</g>
				<g id="shape243-662" v:mID="243" v:groupContext="shape" transform="translate(1.11615,-17.325)">
					<title>工作表.243</title>
					<path d="M0 594.94 L0.58 595.28 L1.17 594.94 L1.17 594.26 L0.58 593.93 L0 594.26 L0 594.94 Z" class="st1"/>
				</g>
				<g id="shape244-665" v:mID="244" v:groupContext="shape" transform="translate(0.850394,-3.40157)">
					<title>工作表.244</title>
					<path d="M0 594.43 a0.850394 0.850394 -180 0 0 1.70079 0 L1.7 584.03 a0.850394 0.850394 -180 0 0 -1.70079 0 L0
								 594.43 Z" class="st10"/>
				</g>
			</g>
			<g id="group245-668" v:mID="245" v:groupContext="group">
				<title>工作表.245</title>
				<g id="shape246-669" v:mID="246" v:groupContext="shape" transform="translate(4.43622,-1.70079)">
					<title>工作表.246</title>
					<path d="M0 595.28 L3.97 595.28 L3.97 579.78 L0 579.78 L0 595.28 ZM3.97 595.28 L7.94 595.28 L7.94 579.78 L3.97
								 579.78 L3.97 595.28 ZM7.94 595.28 L11.91 595.28 L11.91 579.78 L7.94 579.78 L7.94 595.28 ZM11.91
								 595.28 L15.87 595.28 L15.87 579.78 L11.91 579.78 L11.91 595.28 ZM15.87 595.28 L19.84 595.28 L19.84
								 579.78 L15.87 579.78 L15.87 595.28 ZM19.84 595.28 L23.81 595.28 L23.81 579.78 L19.84 579.78 L19.84
								 595.28 ZM23.81 595.28 L27.78 595.28 L27.78 579.78 L23.81 579.78 L23.81 595.28 ZM31.75 595.28 L35.72
								 595.28 L35.72 579.78 L31.75 579.78 L31.75 595.28 ZM35.72 595.28 L39.69 595.28 L39.69 579.78 L35.72
								 579.78 L35.72 595.28 ZM39.69 595.28 L43.65 595.28 L43.65 579.78 L39.69 579.78 L39.69 595.28 ZM43.65
								 595.28 L47.62 595.28 L47.62 579.78 L43.65 579.78 L43.65 595.28 ZM47.62 595.28 L51.59 595.28 L51.59
								 579.78 L47.62 579.78 L47.62 595.28 ZM51.59 595.28 L55.56 595.28 L55.56 579.78 L51.59 579.78 L51.59
								 595.28 ZM55.56 595.28 L59.53 595.28 L59.53 579.78 L55.56 579.78 L55.56 595.28 Z" class="st11"/>
				</g>
				<g id="shape247-671" v:mID="247" v:groupContext="shape" transform="translate(4.43622,-1.70079)">
					<title>工作表.247</title>
					<path d="M0.99 592.18 a0.992126 0.992126 -180 0 0 1.98425 0 L2.98 582.88 a0.992126 0.992126 -180 0 0 -1.98425
								 0 L0.99 592.18 ZM4.96 592.18 a0.992126 0.992126 -180 1 0 1.98425 0 L6.94 582.88 a0.992126 0.992126
								 -180 0 0 -1.98425 0 L4.96 592.18 ZM8.93 592.18 a0.992126 0.992126 -180 0 0 1.98425 0 L10.91 582.88
								 a0.992126 0.992126 -180 0 0 -1.98425 0 L8.93 592.18 ZM12.9 592.18 a0.992126 0.992126 -180 1 0 1.98425
								 0 L14.88 582.88 a0.992126 0.992126 -180 0 0 -1.98425 0 L12.9 592.18 ZM16.87 592.18 a0.992126 0.992126
								 -180 0 0 1.98425 0 L18.85 582.88 a0.992126 0.992126 -180 0 0 -1.98425 0 L16.87 592.18 ZM20.83 592.18
								 a0.992126 0.992126 -180 0 0 1.98425 0 L22.82 582.88 a0.992126 0.992126 -180 0 0 -1.98425 0 L20.83
								 592.18 ZM24.8 592.18 a0.992126 0.992126 -180 0 0 1.98425 0 L26.79 582.88 a0.992126 0.992126 -180
								 0 0 -1.98425 0 L24.8 592.18 ZM32.74 592.18 a0.992126 0.992126 -180 1 0 1.98425 0 L34.72 582.88 a0.992126
								 0.992126 -180 1 0 -1.98425 0 L32.74 592.18 ZM36.71 592.18 a0.992126 0.992126 -180 1 0 1.98425 0
								 L38.69 582.88 a0.992126 0.992126 -180 1 0 -1.98425 0 L36.71 592.18 ZM40.68 592.18 a0.992126 0.992126
								 -180 1 0 1.98425 0 L42.66 582.88 a0.992126 0.992126 -180 1 0 -1.98425 0 L40.68 592.18 ZM44.65 592.18
								 a0.992126 0.992126 -180 1 0 1.98425 0 L46.63 582.88 a0.992126 0.992126 -180 1 0 -1.98425 0 L44.65
								 592.18 ZM48.61 592.18 a0.992126 0.992126 -180 1 0 1.98425 0 L50.6 582.88 a0.992126 0.992126 -180
								 1 0 -1.98425 0 L48.61 592.18 ZM52.58 592.18 a0.992126 0.992126 -180 0 0 1.98425 0 L54.57 582.88
								 a0.992126 0.992126 -180 0 0 -1.98425 0 L52.58 592.18 ZM56.55 592.18 a0.992126 0.992126 -180 1 0
								 1.98425 0 L58.54 582.88 a0.992126 0.992126 -180 1 0 -1.98425 0 L56.55 592.18 Z" class="st12"/>
				</g>
				<g id="shape248-673" v:mID="248" v:groupContext="shape" transform="translate(32.85,-6.075)">
					<title>工作表.248</title>
					<path d="M0.85 594.85 a0.425197 0.425197 -180 1 0 -0.850394 0 a0.425197 0.425197 -180 1 0 0.850394 0 ZM0.85 591.9
								 a0.425197 0.425197 -180 1 0 -0.850394 0 a0.425197 0.425197 -180 1 0 0.850394 0 ZM2.7 594.85 a0.425197
								 0.425197 -180 1 0 -0.850394 0 a0.425197 0.425197 -180 1 0 0.850394 0 ZM2.7 591.9 a0.425197 0.425197
								 -180 1 0 -0.850394 0 a0.425197 0.425197 -180 1 0 0.850394 0 ZM1.78 588.95 a0.425197 0.425197 -180
								 1 0 -0.850394 0 a0.425197 0.425197 -180 1 0 0.850394 0 Z" class="st13"/>
				</g>
			</g>
			<g id="group249-675" transform="translate(0,-18.9)" v:mID="249" v:groupContext="group">
				<title>工作表.249</title>
				<g id="shape250-676" v:mID="250" v:groupContext="shape" transform="translate(4.5,-1.8)">
					<title>工作表.250</title>
				</g>
				<g id="shape251-678" v:mID="251" v:groupContext="shape" transform="translate(4.5,-1.8)">
					<title>工作表.251</title>
				</g>
				<g id="shape252-680" v:mID="252" v:groupContext="shape" transform="translate(32.85,-6.075)">
					<title>工作表.252</title>
				</g>
			</g>
			<g id="group253-682" transform="translate(0,-37.8)" v:mID="253" v:groupContext="group">
				<title>工作表.253</title>
				<g id="shape254-683" v:mID="254" v:groupContext="shape" transform="translate(4.5,-1.8)">
					<title>工作表.254</title>
				</g>
				<g id="shape255-685" v:mID="255" v:groupContext="shape" transform="translate(4.5,-1.8)">
					<title>工作表.255</title>
				</g>
				<g id="shape256-687" v:mID="256" v:groupContext="shape" transform="translate(32.85,-6.075)">
					<title>工作表.256</title>
				</g>
			</g>
			<g id="group257-689" transform="translate(0,-56.7)" v:mID="257" v:groupContext="group">
				<title>工作表.257</title>
				<g id="shape258-690" v:mID="258" v:groupContext="shape" transform="translate(4.5,-1.8)">
					<title>工作表.258</title>
				</g>
				<g id="shape259-692" v:mID="259" v:groupContext="shape" transform="translate(4.5,-1.8)">
					<title>工作表.259</title>
				</g>
				<g id="shape260-694" v:mID="260" v:groupContext="shape" transform="translate(32.85,-6.075)">
					<title>工作表.260</title>
				</g>
			</g>
			<g id="shape261-696" v:mID="261" v:groupContext="shape" transform="translate(-32.8904,0)">
				<title>工作表.261</title>
				<v:textBlock v:margins="rect(0,0,0,0)" v:tabSpace="42.5197"/>
				<v:textRect cx="9.60522" cy="585.826" width="19.22" height="18.9"/>
				<text x="2.72" y="589.43" class="st2" v:langID="2052"><v:paragraph v:horizAlign="2"/><v:tabList/>3 U</text>			</g>
			<g id="shape235-698" v:mID="235" v:groupContext="groupContent">
				<v:textBlock v:margins="rect(0,0,0,0)" v:tabSpace="42.5197"/>
				<v:textRect cx="131.835" cy="585.826" width="113.19" height="15.9788"/>
				<rect v:rectContext="textBkgnd" x="76.5982" y="577.838" width="110.474" height="15.9752" class="st7"/>
				<text x="76.6" y="589.82" class="st2" v:langID="2052"><v:paragraph v:horizAlign="1"/><v:tabList/>Uit<tspan
							class="st14">统一存储</tspan><tspan class="st14">，</tspan><tspan class="st14">无标签</tspan></text>			</g>
		</g>
	</g>
</svg>
