<?xml version="1.0" encoding="UTF-8" standalone="no"?>
<!DOCTYPE svg PUBLIC "-//W3C//DTD SVG 1.1//EN" "http://www.w3.org/Graphics/SVG/1.1/DTD/svg11.dtd">
<!-- 由 Microsoft Visio, SVG Export 生成 A12.svg Page-1 -->
<svg xmlns="http://www.w3.org/2000/svg" xmlns:xlink="http://www.w3.org/1999/xlink" xmlns:ev="http://www.w3.org/2001/xml-events"
		xmlns:v="http://schemas.microsoft.com/visio/2003/SVGExtensions/" width="11.6929in" height="8.26772in"
		viewBox="0 0 841.89 595.276" xml:space="preserve" color-interpolation-filters="sRGB" class="st15">
	<v:documentProperties v:langID="2052" v:metric="true" v:viewMarkup="false">
	</v:documentProperties>
	<style type="text/css">
	<![CDATA[
		.st1 {fill:url(#grad7-5);stroke:#000000;stroke-linecap:butt;stroke-width:1.25}
		.st2 {fill:#000000;font-family:Calibri;font-size:1.00001em}
		.st3 {fill:#339966;stroke:#000000;stroke-linecap:butt;stroke-width:1.25}
		.st4 {stroke:#000000;stroke-linecap:butt;stroke-width:1.25}
		.st5 {fill:#000000}
		.st6 {fill:#9a9a9a;stroke:#000000;stroke-linecap:butt;stroke-width:1.25}
		.st7 {fill:#ffffff;stroke:none;stroke-linecap:butt;stroke-width:7.2}
		.st8 {fill:#000000;font-family:黑体;font-size:1.00001em}
		.st9 {font-family:Calibri;font-size:1em}
		.st10 {fill:#ff00ff;fill-opacity:0}
		.st11 {stroke:#000000;stroke-linecap:round;stroke-linejoin:round;stroke-opacity:0;stroke-width:0.1}
		.st12 {fill:url(#grad7-5);stroke:#000000;stroke-linecap:round;stroke-linejoin:round;stroke-width:0.1}
		.st13 {fill:url(#grad0-257);stroke:#000000;stroke-linecap:round;stroke-linejoin:round;stroke-width:0.1}
		.st14 {fill:url(#grad10-264);stroke:#000000;stroke-linecap:round;stroke-linejoin:round;stroke-width:0.1}
		.st15 {fill:none;fill-rule:evenodd;font-size:12px;overflow:visible;stroke-linecap:square;stroke-miterlimit:3}
	]]>
	</style>
	<defs id="Patterns_And_Gradients">
		<radialGradient id="grad7-5" cx="0" cy="0" r="1.4">
			<stop offset="0" stop-color="#ffffff" stop-opacity="1"/>
			<stop offset="1" stop-color="#c0c0c0" stop-opacity="1"/>
		</radialGradient>
		<linearGradient id="grad0-257" x1="0" y1="0" x2="1" y2="0" gradientTransform="rotate(90 0.5 0.5)">
			<stop offset="0.01" stop-color="#c0c0c0" stop-opacity="1"/>
			<stop offset="0.5" stop-color="#ffffff" stop-opacity="1"/>
			<stop offset="1" stop-color="#c0c0c0" stop-opacity="1"/>
		</linearGradient>
		<pattern id="grad10-264" x="0" y="0" width="1" height="1" patternContentUnits="objectBoundingBox">
			<path d="M 0.5 0.5 L 0 0 L 0 1 z" style="fill:url(#grad0-265)"/>
			<path d="M 0.5 0.5 L 1 0 L 1 1 z" style="fill:url(#grad0-266)"/>
			<path d="M 0.5 0.5 L 0 0 L 1 0 z" style="fill:url(#grad0-267)"/>
			<path d="M 0.5 0.5 L 0 1 L 1 1 z" style="fill:url(#grad0-268)"/>
		</pattern>
		<linearGradient id="grad0-265" x1="0" y1="0" x2="1" y2="0" gradientTransform="rotate(180 0.5 0.5)">
			<stop offset="0" stop-color="#e6e6e6" stop-opacity="1"/>
			<stop offset="1" stop-color="#00ffff" stop-opacity="1"/>
		</linearGradient>
		<linearGradient id="grad0-266" x1="0" y1="0" x2="1" y2="0" gradientTransform="rotate(360 0.5 0.5)">
			<stop offset="0" stop-color="#e6e6e6" stop-opacity="1"/>
			<stop offset="1" stop-color="#00ffff" stop-opacity="1"/>
		</linearGradient>
		<linearGradient id="grad0-267" x1="0" y1="0" x2="1" y2="0" gradientTransform="rotate(270 0.5 0.5)">
			<stop offset="0" stop-color="#e6e6e6" stop-opacity="1"/>
			<stop offset="1" stop-color="#00ffff" stop-opacity="1"/>
		</linearGradient>
		<linearGradient id="grad0-268" x1="0" y1="0" x2="1" y2="0" gradientTransform="rotate(90 0.5 0.5)">
			<stop offset="0" stop-color="#e6e6e6" stop-opacity="1"/>
			<stop offset="1" stop-color="#00ffff" stop-opacity="1"/>
		</linearGradient>
	</defs>
	<g v:mID="0" v:index="1" v:groupContext="foregroundPage">
		<title>页-1</title>
		<v:pageProperties v:drawingScale="39.3701" v:pageScale="1.9685" v:drawingUnits="6" v:shadowOffsetX="8.50394"
				v:shadowOffsetY="-8.50394"/>
		<g id="group1-1" transform="translate(47.5937,-278.943)" v:mID="1" v:groupContext="group">
			<title>机柜</title>
			<g id="shape2-2" v:mID="2" v:groupContext="shape" transform="translate(3.54331,0)">
				<title>工作表.2</title>
				<rect x="0" y="584.646" width="75.7134" height="10.6299" class="st1"/>
			</g>
			<g id="shape3-6" v:mID="3" v:groupContext="shape" transform="translate(3.54331,-275.23)">
				<title>工作表.3</title>
				<rect x="0" y="589.606" width="75.7134" height="5.66929" class="st1"/>
			</g>
			<g id="shape4-9" v:mID="4" v:groupContext="shape" transform="translate(3.54331,-10.6299)">
				<title>工作表.4</title>
				<path d="M70.26 595.28 L75.71 595.28 L75.71 330.68 L70.26 330.68 L70.26 595.28 ZM0 595.28 L5.46 595.28 L5.46 330.68
							 L0 330.68 L0 595.28 Z" class="st1"/>
			</g>
			<g id="shape5-12" v:mID="5" v:groupContext="shape">
				<title>工作表.5</title>
				<path d="M79.26 595.28 L82.8 595.28 L82.8 314.38 L79.26 314.38 L79.26 595.28 ZM0 595.28 L3.54 595.28 L3.54 314.38
							 L0 314.38 L0 595.28 Z" class="st1"/>
			</g>
			<g id="shape6-15" v:mID="6" v:groupContext="shape" transform="translate(0,-280.899)">
				<title>工作表.6</title>
				<v:textBlock v:margins="rect(0,0,0,0)" v:tabSpace="42.5197"/>
				<v:textRect cx="41.4" cy="588.074" width="82.81" height="14.4037"/>
				<text x="30.11" y="591.67" class="st2" v:langID="2052"><v:paragraph v:horizAlign="1"/><v:tabList/>42 U</text>			</g>
		</g>
		<g id="group13-17" transform="translate(54.7937,-321.073)" v:mID="13" v:groupContext="group">
			<title>服务器</title>
			<desc>通信服务器B</desc>
			<g id="shape14-18" v:mID="14" v:groupContext="shape" transform="translate(1.70079,0)">
				<title>工作表.14</title>
				<rect x="0" y="582.676" width="64.9984" height="12.6" class="st1"/>
			</g>
			<g id="shape15-21" v:mID="15" v:groupContext="shape" transform="translate(46.8,-6.85573)">
				<title>工作表.15</title>
				<rect x="0" y="592.99" width="9" height="2.286" class="st3"/>
			</g>
			<g id="group16-23" transform="translate(-1.70079,0)" v:mID="16" v:groupContext="group">
				<title>工作表.16</title>
				<g id="shape17-24" v:mID="17" v:groupContext="shape">
					<title>工作表.17</title>
					<rect x="0" y="588.976" width="3.40157" height="6.3" class="st1"/>
				</g>
				<g id="shape18-27" v:mID="18" v:groupContext="shape" transform="translate(1.11615,-0.225)">
					<title>工作表.18</title>
					<path d="M0 594.94 L0.58 595.28 L1.17 594.94 L1.17 594.26 L0.58 593.93 L0 594.26 L0 594.94 Z" class="st1"/>
				</g>
				<g id="shape19-30" v:mID="19" v:groupContext="shape" transform="translate(1.11615,-4.725)">
					<title>工作表.19</title>
					<path d="M0 594.94 L0.58 595.28 L1.17 594.94 L1.17 594.26 L0.58 593.93 L0 594.26 L0 594.94 Z" class="st1"/>
				</g>
			</g>
			<g id="group20-33" transform="translate(66.6992,0)" v:mID="20" v:groupContext="group">
				<title>工作表.20</title>
				<g id="shape21-34" v:mID="21" v:groupContext="shape">
					<title>工作表.21</title>
					<rect x="0" y="588.976" width="3.40157" height="6.3" class="st1"/>
				</g>
				<g id="shape22-37" v:mID="22" v:groupContext="shape" transform="translate(1.11615,-0.225)">
					<title>工作表.22</title>
					<path d="M0 594.94 L0.58 595.28 L1.17 594.94 L1.17 594.26 L0.58 593.93 L0 594.26 L0 594.94 Z" class="st1"/>
				</g>
				<g id="shape23-40" v:mID="23" v:groupContext="shape" transform="translate(1.11615,-4.725)">
					<title>工作表.23</title>
					<path d="M0 594.94 L0.58 595.28 L1.17 594.94 L1.17 594.26 L0.58 593.93 L0 594.26 L0 594.94 Z" class="st1"/>
				</g>
			</g>
			<g id="group24-43" transform="translate(-1.70079,-6.3)" v:mID="24" v:groupContext="group">
				<title>工作表.24</title>
				<g id="shape25-44" v:mID="25" v:groupContext="shape">
					<title>工作表.25</title>
					<rect x="0" y="588.976" width="3.40157" height="6.3" class="st1"/>
				</g>
				<g id="shape26-47" v:mID="26" v:groupContext="shape" transform="translate(1.11615,-0.225)">
					<title>工作表.26</title>
					<path d="M0 594.94 L0.58 595.28 L1.17 594.94 L1.17 594.26 L0.58 593.93 L0 594.26 L0 594.94 Z" class="st1"/>
				</g>
				<g id="shape27-50" v:mID="27" v:groupContext="shape" transform="translate(1.11615,-4.725)">
					<title>工作表.27</title>
					<path d="M0 594.94 L0.58 595.28 L1.17 594.94 L1.17 594.26 L0.58 593.93 L0 594.26 L0 594.94 Z" class="st1"/>
				</g>
			</g>
			<g id="group28-53" transform="translate(66.6992,-6.3)" v:mID="28" v:groupContext="group">
				<title>工作表.28</title>
				<g id="shape29-54" v:mID="29" v:groupContext="shape">
					<title>工作表.29</title>
					<rect x="0" y="588.976" width="3.40157" height="6.3" class="st1"/>
				</g>
				<g id="shape30-57" v:mID="30" v:groupContext="shape" transform="translate(1.11615,-0.225)">
					<title>工作表.30</title>
					<path d="M0 594.94 L0.58 595.28 L1.17 594.94 L1.17 594.26 L0.58 593.93 L0 594.26 L0 594.94 Z" class="st1"/>
				</g>
				<g id="shape31-60" v:mID="31" v:groupContext="shape" transform="translate(1.11615,-4.725)">
					<title>工作表.31</title>
					<path d="M0 594.94 L0.58 595.28 L1.17 594.94 L1.17 594.26 L0.58 593.93 L0 594.26 L0 594.94 Z" class="st1"/>
				</g>
			</g>
			<g id="shape32-63" v:mID="32" v:groupContext="shape" transform="translate(5.24409,0)">
				<title>工作表.32</title>
				<path d="M30.73 591.02 L57.91 591.02 L57.91 584.5 L30.73 584.5 L30.73 591.02" class="st4"/>
				<path d="M36.04 590.57 L56.14 590.57 L56.14 584.96 L36.04 584.96 L36.04 590.57" class="st4"/>
				<path d="M37.81 589.54 L54.37 589.54 L54.37 585.28 L37.81 585.28 L37.81 589.54" class="st4"/>
				<path d="M0 593.15 L57.91 593.15" class="st4"/>
				<path d="M0 586.93 L0 582.68" class="st4"/>
				<path d="M57.91 586.93 L57.91 582.68" class="st4"/>
				<path d="M30.73 591.02 L36.04 590.57" class="st4"/>
				<path d="M30.73 584.5 L36.04 584.96" class="st4"/>
				<path d="M57.91 591.02 L56.14 590.57" class="st4"/>
				<path d="M57.91 584.5 L56.14 584.96" class="st4"/>
				<path d="M43.43 585.28 L43.43 584.96" class="st4"/>
				<path d="M50.38 585.28 L50.38 584.96" class="st4"/>
			</g>
			<g id="shape33-77" v:mID="33" v:groupContext="shape" transform="translate(5.24409,-4.25197)">
				<title>工作表.33</title>
				<path d="M0 595.28 L0.45 593.23 L28.5 593.23 L28.96 595.28 L28.96 593.01 L0 593.01 L0 595.28 ZM0 591.02 L0.45 588.98
							 L28.5 588.98 L28.96 591.02 L28.96 588.76 L0 588.76 L0 591.02 Z" class="st5"/>
				<path d="M0 595.28 L28.96 595.28 L28.96 593.01 L0 593.01 L0 595.28" class="st4"/>
				<path d="M0 595.28 L0.45 593.23 L28.5 593.23 L28.96 595.28 L28.96 593.01 L0 593.01 L0 595.28" class="st4"/>
				<path d="M0 591.02 L28.96 591.02 L28.96 588.76 L0 588.76 L0 591.02" class="st4"/>
				<path d="M0 591.02 L0.45 588.98 L28.5 588.98 L28.96 591.02 L28.96 588.76 L0 588.76 L0 591.02" class="st4"/>
			</g>
			<g id="shape34-83" v:mID="34" v:groupContext="shape" transform="translate(44.8299,-5.06516)">
				<title>工作表.34</title>
				<path d="M0 594.6 a0.675 0.675 -180 1 1 1.35 0 a0.675 0.675 -180 1 1 -1.35 0 ZM2.03 594.6 a0.675 0.675 -180 1 1 1.35
							 0 a0.675 0.675 -180 1 1 -1.35 0 ZM4.73 595.28 L6.07 595.28 L6.07 593.93 L4.73 593.93 a0.675 0.675 -180
							 1 0 9.76996E-015 1.35 ZM6.07 595.28 L7.42 595.28 a0.675 0.675 -180 0 0 0 -1.35 L6.07 593.93 L6.07 595.28
							 ZM9.45 595.28 L10.8 595.28 L10.8 593.93 L9.45 593.93 a0.675 0.675 -180 1 0 8.88178E-015 1.35 ZM10.8
							 595.28 L12.15 595.28 a0.675 0.675 -180 0 0 0 -1.35 L10.8 593.93 L10.8 595.28 Z" class="st6"/>
			</g>
			<g id="shape35-85" v:mID="35" v:groupContext="shape" transform="translate(5.24409,0)">
				<title>工作表.35</title>
			</g>
			<g id="shape36-87" v:mID="36" v:groupContext="shape" transform="translate(-32.8904,0)">
				<title>工作表.36</title>
				<v:textBlock v:margins="rect(0,0,0,0)" v:tabSpace="42.5197"/>
				<v:textRect cx="9.60522" cy="588.976" width="19.22" height="12.6"/>
				<text x="2.72" y="592.58" class="st2" v:langID="2052"><v:paragraph v:horizAlign="2"/><v:tabList/>2 U</text>			</g>
			<g id="shape13-89" v:mID="13" v:groupContext="groupContent">
				<v:textBlock v:margins="rect(0,0,0,0)" v:tabSpace="42.5197"/>
				<v:textRect cx="109.862" cy="588.976" width="69.25" height="15.9788"/>
				<rect v:rectContext="textBkgnd" x="76.5982" y="580.988" width="66.528" height="15.9752" class="st7"/>
				<text x="76.6" y="592.97" class="st8" v:langID="2052"><v:paragraph v:horizAlign="1"/><v:tabList/>通信服务器<tspan
							class="st9">B</tspan></text>			</g>
		</g>
		<g id="group37-93" transform="translate(54.7937,-352.573)" v:mID="37" v:groupContext="group">
			<title>服务器.37</title>
			<desc>通信服务器A</desc>
			<g id="shape38-94" v:mID="38" v:groupContext="shape" transform="translate(1.70079,0)">
				<title>工作表.38</title>
				<rect x="0" y="582.676" width="64.9984" height="12.6" class="st1"/>
			</g>
			<g id="shape39-97" v:mID="39" v:groupContext="shape" transform="translate(46.8,-6.85573)">
				<title>工作表.39</title>
				<rect x="0" y="592.99" width="9" height="2.286" class="st3"/>
			</g>
			<g id="group40-99" transform="translate(-1.70079,0)" v:mID="40" v:groupContext="group">
				<title>工作表.40</title>
				<g id="shape41-100" v:mID="41" v:groupContext="shape">
					<title>工作表.41</title>
					<rect x="0" y="588.976" width="3.40157" height="6.3" class="st1"/>
				</g>
				<g id="shape42-103" v:mID="42" v:groupContext="shape" transform="translate(1.11615,-0.225)">
					<title>工作表.42</title>
					<path d="M0 594.94 L0.58 595.28 L1.17 594.94 L1.17 594.26 L0.58 593.93 L0 594.26 L0 594.94 Z" class="st1"/>
				</g>
				<g id="shape43-106" v:mID="43" v:groupContext="shape" transform="translate(1.11615,-4.725)">
					<title>工作表.43</title>
					<path d="M0 594.94 L0.58 595.28 L1.17 594.94 L1.17 594.26 L0.58 593.93 L0 594.26 L0 594.94 Z" class="st1"/>
				</g>
			</g>
			<g id="group44-109" transform="translate(66.6992,0)" v:mID="44" v:groupContext="group">
				<title>工作表.44</title>
				<g id="shape45-110" v:mID="45" v:groupContext="shape">
					<title>工作表.45</title>
					<rect x="0" y="588.976" width="3.40157" height="6.3" class="st1"/>
				</g>
				<g id="shape46-113" v:mID="46" v:groupContext="shape" transform="translate(1.11615,-0.225)">
					<title>工作表.46</title>
					<path d="M0 594.94 L0.58 595.28 L1.17 594.94 L1.17 594.26 L0.58 593.93 L0 594.26 L0 594.94 Z" class="st1"/>
				</g>
				<g id="shape47-116" v:mID="47" v:groupContext="shape" transform="translate(1.11615,-4.725)">
					<title>工作表.47</title>
					<path d="M0 594.94 L0.58 595.28 L1.17 594.94 L1.17 594.26 L0.58 593.93 L0 594.26 L0 594.94 Z" class="st1"/>
				</g>
			</g>
			<g id="group48-119" transform="translate(-1.70079,-6.3)" v:mID="48" v:groupContext="group">
				<title>工作表.48</title>
				<g id="shape49-120" v:mID="49" v:groupContext="shape">
					<title>工作表.49</title>
					<rect x="0" y="588.976" width="3.40157" height="6.3" class="st1"/>
				</g>
				<g id="shape50-123" v:mID="50" v:groupContext="shape" transform="translate(1.11615,-0.225)">
					<title>工作表.50</title>
					<path d="M0 594.94 L0.58 595.28 L1.17 594.94 L1.17 594.26 L0.58 593.93 L0 594.26 L0 594.94 Z" class="st1"/>
				</g>
				<g id="shape51-126" v:mID="51" v:groupContext="shape" transform="translate(1.11615,-4.725)">
					<title>工作表.51</title>
					<path d="M0 594.94 L0.58 595.28 L1.17 594.94 L1.17 594.26 L0.58 593.93 L0 594.26 L0 594.94 Z" class="st1"/>
				</g>
			</g>
			<g id="group52-129" transform="translate(66.6992,-6.3)" v:mID="52" v:groupContext="group">
				<title>工作表.52</title>
				<g id="shape53-130" v:mID="53" v:groupContext="shape">
					<title>工作表.53</title>
					<rect x="0" y="588.976" width="3.40157" height="6.3" class="st1"/>
				</g>
				<g id="shape54-133" v:mID="54" v:groupContext="shape" transform="translate(1.11615,-0.225)">
					<title>工作表.54</title>
					<path d="M0 594.94 L0.58 595.28 L1.17 594.94 L1.17 594.26 L0.58 593.93 L0 594.26 L0 594.94 Z" class="st1"/>
				</g>
				<g id="shape55-136" v:mID="55" v:groupContext="shape" transform="translate(1.11615,-4.725)">
					<title>工作表.55</title>
					<path d="M0 594.94 L0.58 595.28 L1.17 594.94 L1.17 594.26 L0.58 593.93 L0 594.26 L0 594.94 Z" class="st1"/>
				</g>
			</g>
			<g id="shape56-139" v:mID="56" v:groupContext="shape" transform="translate(5.24409,0)">
				<title>工作表.56</title>
				<path d="M30.73 591.02 L57.91 591.02 L57.91 584.5 L30.73 584.5 L30.73 591.02" class="st4"/>
				<path d="M36.04 590.57 L56.14 590.57 L56.14 584.96 L36.04 584.96 L36.04 590.57" class="st4"/>
				<path d="M37.81 589.54 L54.37 589.54 L54.37 585.28 L37.81 585.28 L37.81 589.54" class="st4"/>
				<path d="M0 593.15 L57.91 593.15" class="st4"/>
				<path d="M0 586.93 L0 582.68" class="st4"/>
				<path d="M57.91 586.93 L57.91 582.68" class="st4"/>
				<path d="M30.73 591.02 L36.04 590.57" class="st4"/>
				<path d="M30.73 584.5 L36.04 584.96" class="st4"/>
				<path d="M57.91 591.02 L56.14 590.57" class="st4"/>
				<path d="M57.91 584.5 L56.14 584.96" class="st4"/>
				<path d="M43.43 585.28 L43.43 584.96" class="st4"/>
				<path d="M50.38 585.28 L50.38 584.96" class="st4"/>
			</g>
			<g id="shape57-153" v:mID="57" v:groupContext="shape" transform="translate(5.24409,-4.25197)">
				<title>工作表.57</title>
				<path d="M0 595.28 L0.45 593.23 L28.5 593.23 L28.96 595.28 L28.96 593.01 L0 593.01 L0 595.28 ZM0 591.02 L0.45 588.98
							 L28.5 588.98 L28.96 591.02 L28.96 588.76 L0 588.76 L0 591.02 Z" class="st5"/>
				<path d="M0 595.28 L28.96 595.28 L28.96 593.01 L0 593.01 L0 595.28" class="st4"/>
				<path d="M0 595.28 L0.45 593.23 L28.5 593.23 L28.96 595.28 L28.96 593.01 L0 593.01 L0 595.28" class="st4"/>
				<path d="M0 591.02 L28.96 591.02 L28.96 588.76 L0 588.76 L0 591.02" class="st4"/>
				<path d="M0 591.02 L0.45 588.98 L28.5 588.98 L28.96 591.02 L28.96 588.76 L0 588.76 L0 591.02" class="st4"/>
			</g>
			<g id="shape58-159" v:mID="58" v:groupContext="shape" transform="translate(44.8299,-5.06516)">
				<title>工作表.58</title>
				<path d="M0 594.6 a0.675 0.675 -180 1 1 1.35 0 a0.675 0.675 -180 1 1 -1.35 0 ZM2.03 594.6 a0.675 0.675 -180 1 1 1.35
							 0 a0.675 0.675 -180 1 1 -1.35 0 ZM4.73 595.28 L6.07 595.28 L6.07 593.93 L4.73 593.93 a0.675 0.675 -180
							 1 0 9.76996E-015 1.35 ZM6.07 595.28 L7.42 595.28 a0.675 0.675 -180 0 0 0 -1.35 L6.07 593.93 L6.07 595.28
							 ZM9.45 595.28 L10.8 595.28 L10.8 593.93 L9.45 593.93 a0.675 0.675 -180 1 0 8.88178E-015 1.35 ZM10.8
							 595.28 L12.15 595.28 a0.675 0.675 -180 0 0 0 -1.35 L10.8 593.93 L10.8 595.28 Z" class="st6"/>
			</g>
			<g id="shape59-161" v:mID="59" v:groupContext="shape" transform="translate(5.24409,0)">
				<title>工作表.59</title>
			</g>
			<g id="shape60-163" v:mID="60" v:groupContext="shape" transform="translate(-32.8904,0)">
				<title>工作表.60</title>
				<v:textBlock v:margins="rect(0,0,0,0)" v:tabSpace="42.5197"/>
				<v:textRect cx="9.60522" cy="588.976" width="19.22" height="12.6"/>
				<text x="2.72" y="592.58" class="st2" v:langID="2052"><v:paragraph v:horizAlign="2"/><v:tabList/>2 U</text>			</g>
			<g id="shape37-165" v:mID="37" v:groupContext="groupContent">
				<v:textBlock v:margins="rect(0,0,0,0)" v:tabSpace="42.5197"/>
				<v:textRect cx="110.07" cy="588.976" width="69.67" height="15.9788"/>
				<rect v:rectContext="textBkgnd" x="76.5982" y="580.988" width="66.9438" height="15.9752" class="st7"/>
				<text x="76.6" y="592.97" class="st8" v:langID="2052"><v:paragraph v:horizAlign="1"/><v:tabList/>通信服务器<tspan
							class="st9">A</tspan></text>			</g>
		</g>
		<g id="group61-169" transform="translate(54.7937,-409.273)" v:mID="61" v:groupContext="group">
			<title>服务器.61</title>
			<desc>数据服务器</desc>
			<g id="shape62-170" v:mID="62" v:groupContext="shape" transform="translate(1.70079,0)">
				<title>工作表.62</title>
				<rect x="0" y="582.676" width="64.9984" height="12.6" class="st1"/>
			</g>
			<g id="shape63-173" v:mID="63" v:groupContext="shape" transform="translate(46.8,-6.85573)">
				<title>工作表.63</title>
				<rect x="0" y="592.99" width="9" height="2.286" class="st3"/>
			</g>
			<g id="group64-175" transform="translate(-1.70079,0)" v:mID="64" v:groupContext="group">
				<title>工作表.64</title>
				<g id="shape65-176" v:mID="65" v:groupContext="shape">
					<title>工作表.65</title>
					<rect x="0" y="588.976" width="3.40157" height="6.3" class="st1"/>
				</g>
				<g id="shape66-179" v:mID="66" v:groupContext="shape" transform="translate(1.11615,-0.225)">
					<title>工作表.66</title>
					<path d="M0 594.94 L0.58 595.28 L1.17 594.94 L1.17 594.26 L0.58 593.93 L0 594.26 L0 594.94 Z" class="st1"/>
				</g>
				<g id="shape67-182" v:mID="67" v:groupContext="shape" transform="translate(1.11615,-4.725)">
					<title>工作表.67</title>
					<path d="M0 594.94 L0.58 595.28 L1.17 594.94 L1.17 594.26 L0.58 593.93 L0 594.26 L0 594.94 Z" class="st1"/>
				</g>
			</g>
			<g id="group68-185" transform="translate(66.6992,0)" v:mID="68" v:groupContext="group">
				<title>工作表.68</title>
				<g id="shape69-186" v:mID="69" v:groupContext="shape">
					<title>工作表.69</title>
					<rect x="0" y="588.976" width="3.40157" height="6.3" class="st1"/>
				</g>
				<g id="shape70-189" v:mID="70" v:groupContext="shape" transform="translate(1.11615,-0.225)">
					<title>工作表.70</title>
					<path d="M0 594.94 L0.58 595.28 L1.17 594.94 L1.17 594.26 L0.58 593.93 L0 594.26 L0 594.94 Z" class="st1"/>
				</g>
				<g id="shape71-192" v:mID="71" v:groupContext="shape" transform="translate(1.11615,-4.725)">
					<title>工作表.71</title>
					<path d="M0 594.94 L0.58 595.28 L1.17 594.94 L1.17 594.26 L0.58 593.93 L0 594.26 L0 594.94 Z" class="st1"/>
				</g>
			</g>
			<g id="group72-195" transform="translate(-1.70079,-6.3)" v:mID="72" v:groupContext="group">
				<title>工作表.72</title>
				<g id="shape73-196" v:mID="73" v:groupContext="shape">
					<title>工作表.73</title>
					<rect x="0" y="588.976" width="3.40157" height="6.3" class="st1"/>
				</g>
				<g id="shape74-199" v:mID="74" v:groupContext="shape" transform="translate(1.11615,-0.225)">
					<title>工作表.74</title>
					<path d="M0 594.94 L0.58 595.28 L1.17 594.94 L1.17 594.26 L0.58 593.93 L0 594.26 L0 594.94 Z" class="st1"/>
				</g>
				<g id="shape75-202" v:mID="75" v:groupContext="shape" transform="translate(1.11615,-4.725)">
					<title>工作表.75</title>
					<path d="M0 594.94 L0.58 595.28 L1.17 594.94 L1.17 594.26 L0.58 593.93 L0 594.26 L0 594.94 Z" class="st1"/>
				</g>
			</g>
			<g id="group76-205" transform="translate(66.6992,-6.3)" v:mID="76" v:groupContext="group">
				<title>工作表.76</title>
				<g id="shape77-206" v:mID="77" v:groupContext="shape">
					<title>工作表.77</title>
					<rect x="0" y="588.976" width="3.40157" height="6.3" class="st1"/>
				</g>
				<g id="shape78-209" v:mID="78" v:groupContext="shape" transform="translate(1.11615,-0.225)">
					<title>工作表.78</title>
					<path d="M0 594.94 L0.58 595.28 L1.17 594.94 L1.17 594.26 L0.58 593.93 L0 594.26 L0 594.94 Z" class="st1"/>
				</g>
				<g id="shape79-212" v:mID="79" v:groupContext="shape" transform="translate(1.11615,-4.725)">
					<title>工作表.79</title>
					<path d="M0 594.94 L0.58 595.28 L1.17 594.94 L1.17 594.26 L0.58 593.93 L0 594.26 L0 594.94 Z" class="st1"/>
				</g>
			</g>
			<g id="shape80-215" v:mID="80" v:groupContext="shape" transform="translate(5.24409,0)">
				<title>工作表.80</title>
				<path d="M30.73 591.02 L57.91 591.02 L57.91 584.5 L30.73 584.5 L30.73 591.02" class="st4"/>
				<path d="M36.04 590.57 L56.14 590.57 L56.14 584.96 L36.04 584.96 L36.04 590.57" class="st4"/>
				<path d="M37.81 589.54 L54.37 589.54 L54.37 585.28 L37.81 585.28 L37.81 589.54" class="st4"/>
				<path d="M0 593.15 L57.91 593.15" class="st4"/>
				<path d="M0 586.93 L0 582.68" class="st4"/>
				<path d="M57.91 586.93 L57.91 582.68" class="st4"/>
				<path d="M30.73 591.02 L36.04 590.57" class="st4"/>
				<path d="M30.73 584.5 L36.04 584.96" class="st4"/>
				<path d="M57.91 591.02 L56.14 590.57" class="st4"/>
				<path d="M57.91 584.5 L56.14 584.96" class="st4"/>
				<path d="M43.43 585.28 L43.43 584.96" class="st4"/>
				<path d="M50.38 585.28 L50.38 584.96" class="st4"/>
			</g>
			<g id="shape81-229" v:mID="81" v:groupContext="shape" transform="translate(5.24409,-4.25197)">
				<title>工作表.81</title>
				<path d="M0 595.28 L0.45 593.23 L28.5 593.23 L28.96 595.28 L28.96 593.01 L0 593.01 L0 595.28 ZM0 591.02 L0.45 588.98
							 L28.5 588.98 L28.96 591.02 L28.96 588.76 L0 588.76 L0 591.02 Z" class="st5"/>
				<path d="M0 595.28 L28.96 595.28 L28.96 593.01 L0 593.01 L0 595.28" class="st4"/>
				<path d="M0 595.28 L0.45 593.23 L28.5 593.23 L28.96 595.28 L28.96 593.01 L0 593.01 L0 595.28" class="st4"/>
				<path d="M0 591.02 L28.96 591.02 L28.96 588.76 L0 588.76 L0 591.02" class="st4"/>
				<path d="M0 591.02 L0.45 588.98 L28.5 588.98 L28.96 591.02 L28.96 588.76 L0 588.76 L0 591.02" class="st4"/>
			</g>
			<g id="shape82-235" v:mID="82" v:groupContext="shape" transform="translate(44.8299,-5.06516)">
				<title>工作表.82</title>
				<path d="M0 594.6 a0.675 0.675 -180 1 1 1.35 0 a0.675 0.675 -180 1 1 -1.35 0 ZM2.03 594.6 a0.675 0.675 -180 1 1 1.35
							 0 a0.675 0.675 -180 1 1 -1.35 0 ZM4.73 595.28 L6.07 595.28 L6.07 593.93 L4.73 593.93 a0.675 0.675 -180
							 1 0 9.76996E-015 1.35 ZM6.07 595.28 L7.42 595.28 a0.675 0.675 -180 0 0 0 -1.35 L6.07 593.93 L6.07 595.28
							 ZM9.45 595.28 L10.8 595.28 L10.8 593.93 L9.45 593.93 a0.675 0.675 -180 1 0 8.88178E-015 1.35 ZM10.8
							 595.28 L12.15 595.28 a0.675 0.675 -180 0 0 0 -1.35 L10.8 593.93 L10.8 595.28 Z" class="st6"/>
			</g>
			<g id="shape83-237" v:mID="83" v:groupContext="shape" transform="translate(5.24409,0)">
				<title>工作表.83</title>
			</g>
			<g id="shape84-239" v:mID="84" v:groupContext="shape" transform="translate(-32.8904,0)">
				<title>工作表.84</title>
				<v:textBlock v:margins="rect(0,0,0,0)" v:tabSpace="42.5197"/>
				<v:textRect cx="9.60522" cy="588.976" width="19.22" height="12.6"/>
				<text x="2.72" y="592.58" class="st2" v:langID="2052"><v:paragraph v:horizAlign="2"/><v:tabList/>2 U</text>			</g>
			<g id="shape61-241" v:mID="61" v:groupContext="groupContent">
				<v:textBlock v:margins="rect(0,0,0,0)" v:tabSpace="42.5197"/>
				<v:textRect cx="106.598" cy="588.976" width="62.72" height="15.9788"/>
				<rect v:rectContext="textBkgnd" x="76.5982" y="580.988" width="60.0005" height="15.9752" class="st7"/>
				<text x="76.6" y="592.97" class="st8" v:langID="2052"><v:paragraph v:horizAlign="1"/><v:tabList/>数据服务器</text>			</g>
		</g>
		<g id="group85-244" transform="translate(64.1906,-422.362)" v:mID="85" v:groupContext="group">
			<title>显示器</title>
			<g id="shape86-245" v:mID="86" v:groupContext="shape">
				<title>工作表.86</title>
				<path d="M33.29 591.56 A38.1693 38.1693 -180 0 0 40.65 589.07 L49.61 589.07 L49.61 545.67 L0 545.67 L0 589.07 L8.96
							 589.07 A38.1693 38.1693 -180 0 0 16.51 591.61 L9.65 593.9 L8.96 595.28 L40.65 595.28 L39.96 593.9 L33.07
							 591.49 L33.29 591.56 Z" class="st10"/>
				<path d="M33.29 591.56 A38.1693 38.1693 -180 0 0 40.65 589.07 L49.61 589.07 L49.61 545.67 L0 545.67 L0 589.07 L8.96
							 589.07 A38.1693 38.1693 -180 0 0 16.51 591.61 L9.65 593.9 L8.96 595.28 L40.65 595.28 L39.96 593.9 L33.07
							 591.49" class="st11"/>
			</g>
			<g id="shape87-248" v:mID="87" v:groupContext="shape" transform="translate(8.95669,-2.75591)">
				<title>工作表.87</title>
				<path d="M0 591.83 A38.1693 38.1693 -180 0 0 31.69 591.83 L0 591.83 Z" class="st12"/>
			</g>
			<g id="shape88-251" v:mID="88" v:groupContext="shape" transform="translate(0,-6.20079)">
				<title>工作表.88</title>
				<rect x="0" y="551.87" width="49.6063" height="43.4055" class="st12"/>
			</g>
			<g id="shape89-254" v:mID="89" v:groupContext="shape" transform="translate(43.5778,-8.26772)">
				<title>工作表.89</title>
				<rect x="0" y="593.898" width="3.27264" height="1.37795" class="st13"/>
			</g>
			<g id="shape90-258" v:mID="90" v:groupContext="shape" transform="translate(8.95669,0)">
				<title>工作表.90</title>
				<path d="M0 595.28 L31.69 595.28 L31 593.9 L24.11 591.49 L7.58 591.49 L0.69 593.9 L0 595.28 Z" class="st12"/>
			</g>
			<g id="shape91-261" v:mID="91" v:groupContext="shape" transform="translate(2.75591,-10.3346)">
				<title>工作表.91</title>
				<rect x="0" y="558.76" width="44.0945" height="36.5157" class="st14"/>
			</g>
		</g>
	</g>
</svg>
