<?xml version="1.0" encoding="UTF-8" standalone="no"?>
<!DOCTYPE svg PUBLIC "-//W3C//DTD SVG 1.1//EN" "http://www.w3.org/Graphics/SVG/1.1/DTD/svg11.dtd">
<!-- 由 Microsoft Visio, SVG Export 生成 A13.svg Page-1 -->
<svg xmlns="http://www.w3.org/2000/svg" xmlns:xlink="http://www.w3.org/1999/xlink" xmlns:ev="http://www.w3.org/2001/xml-events"
		xmlns:v="http://schemas.microsoft.com/visio/2003/SVGExtensions/" width="11.6929in" height="8.26772in"
		viewBox="0 0 841.89 595.276" xml:space="preserve" color-interpolation-filters="sRGB" class="st16">
	<v:documentProperties v:langID="2052" v:metric="true" v:viewMarkup="false">
	</v:documentProperties>
	<style type="text/css">
	<![CDATA[
		.st1 {fill:url(#grad7-5);stroke:#000000;stroke-linecap:butt;stroke-width:1.25}
		.st2 {fill:#000000;font-family:Calibri;font-size:1.00001em}
		.st3 {fill:#ffffff;stroke:none;stroke-linecap:butt;stroke-width:7.2}
		.st4 {fill:#000000;font-family:黑体;font-size:1.00001em}
		.st5 {font-family:Calibri;font-size:1em}
		.st6 {fill:#339966;stroke:#000000;stroke-linecap:butt;stroke-width:1.25}
		.st7 {stroke:#000000;stroke-linecap:butt;stroke-width:1.25}
		.st8 {fill:#000000}
		.st9 {fill:#9a9a9a;stroke:#000000;stroke-linecap:butt;stroke-width:1.25}
		.st10 {font-family:黑体;font-size:1em}
		.st11 {fill:#9a9a9a;fill-opacity:0.5;stroke:#000000;stroke-linecap:butt;stroke-width:0.02}
		.st12 {fill:#000000;stroke:none;stroke-linecap:butt;stroke-width:1.25}
		.st13 {fill:#ff9900;stroke:none;stroke-linecap:butt;stroke-width:1.25}
		.st14 {fill:url(#grad0-558);stroke:#000000;stroke-linecap:butt;stroke-width:1.25}
		.st15 {fill:#000000;font-family:黑体;font-size:0.666664em}
		.st16 {fill:none;fill-rule:evenodd;font-size:12px;overflow:visible;stroke-linecap:square;stroke-miterlimit:3}
	]]>
	</style>
	<defs id="Patterns_And_Gradients">
		<radialGradient id="grad7-5" cx="0" cy="0" r="1.4">
			<stop offset="0" stop-color="#ffffff" stop-opacity="1"/>
			<stop offset="1" stop-color="#c0c0c0" stop-opacity="1"/>
		</radialGradient>
		<linearGradient id="grad0-558" x1="0" y1="0" x2="1" y2="0" gradientTransform="rotate(90 0.5 0.5)">
			<stop offset="0.01" stop-color="#00ff00" stop-opacity="1"/>
			<stop offset="0.5" stop-color="#ffff00" stop-opacity="1"/>
			<stop offset="1" stop-color="#00ff00" stop-opacity="1"/>
		</linearGradient>
	</defs>
	<g v:mID="0" v:index="1" v:groupContext="foregroundPage">
		<title>页-1</title>
		<v:pageProperties v:drawingScale="39.3701" v:pageScale="1.9685" v:drawingUnits="6" v:shadowOffsetX="8.50394"
				v:shadowOffsetY="-8.50394"/>
		<g id="group1-1" transform="translate(51.8457,-278.943)" v:mID="1" v:groupContext="group">
			<title>机柜</title>
			<g id="shape2-2" v:mID="2" v:groupContext="shape" transform="translate(3.54331,0)">
				<title>工作表.2</title>
				<rect x="0" y="584.646" width="75.7134" height="10.6299" class="st1"/>
			</g>
			<g id="shape3-6" v:mID="3" v:groupContext="shape" transform="translate(3.54331,-275.23)">
				<title>工作表.3</title>
				<rect x="0" y="589.606" width="75.7134" height="5.66929" class="st1"/>
			</g>
			<g id="shape4-9" v:mID="4" v:groupContext="shape" transform="translate(3.54331,-10.6299)">
				<title>工作表.4</title>
				<path d="M70.26 595.28 L75.71 595.28 L75.71 330.68 L70.26 330.68 L70.26 595.28 ZM0 595.28 L5.46 595.28 L5.46 330.68
							 L0 330.68 L0 595.28 Z" class="st1"/>
			</g>
			<g id="shape5-12" v:mID="5" v:groupContext="shape">
				<title>工作表.5</title>
				<path d="M79.26 595.28 L82.8 595.28 L82.8 314.38 L79.26 314.38 L79.26 595.28 ZM0 595.28 L3.54 595.28 L3.54 314.38
							 L0 314.38 L0 595.28 Z" class="st1"/>
			</g>
			<g id="shape6-15" v:mID="6" v:groupContext="shape" transform="translate(0,-280.899)">
				<title>工作表.6</title>
				<v:textBlock v:margins="rect(0,0,0,0)" v:tabSpace="42.5197"/>
				<v:textRect cx="41.4" cy="588.074" width="82.81" height="14.4037"/>
				<text x="30.11" y="591.67" class="st2" v:langID="2052"><v:paragraph v:horizAlign="1"/><v:tabList/>42 U</text>			</g>
		</g>
		<g id="group13-17" transform="translate(59.0457,-321.073)" v:mID="13" v:groupContext="group">
			<title>独立文件存储</title>
			<desc>一车间-磁盘柜Stor01</desc>
			<g id="shape14-18" v:mID="14" v:groupContext="shape" transform="translate(-1.70079,0)">
				<title>工作表.14</title>
				<rect x="0" y="582.676" width="71.8016" height="12.6" class="st1"/>
			</g>
			<g id="group15-21" transform="translate(-1.70079,0)" v:mID="15" v:groupContext="group">
				<title>工作表.15</title>
				<g id="shape16-22" v:mID="16" v:groupContext="shape" transform="translate(1.11615,-0.225)">
					<title>工作表.16</title>
					<path d="M0 594.94 L0.58 595.28 L1.17 594.94 L1.17 594.26 L0.58 593.93 L0 594.26 L0 594.94 Z" class="st1"/>
				</g>
				<g id="shape17-25" v:mID="17" v:groupContext="shape" transform="translate(1.11615,-11.025)">
					<title>工作表.17</title>
					<path d="M0 594.94 L0.58 595.28 L1.17 594.94 L1.17 594.26 L0.58 593.93 L0 594.26 L0 594.94 Z" class="st1"/>
				</g>
			</g>
			<g id="group18-28" transform="translate(66.6992,0)" v:mID="18" v:groupContext="group">
				<title>工作表.18</title>
				<g id="shape19-29" v:mID="19" v:groupContext="shape" transform="translate(1.11615,-0.225)">
					<title>工作表.19</title>
					<path d="M0 594.94 L0.58 595.28 L1.17 594.94 L1.17 594.26 L0.58 593.93 L0 594.26 L0 594.94 Z" class="st1"/>
				</g>
				<g id="shape20-32" v:mID="20" v:groupContext="shape" transform="translate(1.11615,-11.025)">
					<title>工作表.20</title>
					<path d="M0 594.94 L0.58 595.28 L1.17 594.94 L1.17 594.26 L0.58 593.93 L0 594.26 L0 594.94 Z" class="st1"/>
				</g>
			</g>
			<g id="shape21-35" v:mID="21" v:groupContext="shape" transform="translate(-32.8904,0)">
				<title>工作表.21</title>
				<v:textBlock v:margins="rect(0,0,0,0)" v:tabSpace="42.5197"/>
				<v:textRect cx="9.60522" cy="588.976" width="19.22" height="12.6"/>
				<text x="2.72" y="592.58" class="st2" v:langID="2052"><v:paragraph v:horizAlign="2"/><v:tabList/>2 U</text>			</g>
			<g id="shape13-37" v:mID="13" v:groupContext="groupContent">
				<v:textBlock v:margins="rect(0,0,0,0)" v:tabSpace="42.5197"/>
				<v:textRect cx="136.54" cy="588.976" width="122.61" height="15.9788"/>
				<rect v:rectContext="textBkgnd" x="76.5982" y="580.988" width="119.884" height="15.9752" class="st3"/>
				<text x="76.6" y="592.97" class="st4" v:langID="2052"><v:paragraph v:horizAlign="1"/><v:tabList/>一车间<tspan
							class="st5">-</tspan>磁盘柜：<tspan class="st5">Stor</tspan><tspan class="st5">01</tspan></text>			</g>
		</g>
		<g id="group22-43" transform="translate(59.0457,-339.973)" v:mID="22" v:groupContext="group">
			<title>服务器</title>
			<desc>VMAPP10510.96.80.73</desc>
			<g id="shape23-44" v:mID="23" v:groupContext="shape" transform="translate(1.70079,0)">
				<title>工作表.23</title>
				<rect x="0" y="582.676" width="64.9984" height="12.6" class="st1"/>
			</g>
			<g id="shape24-47" v:mID="24" v:groupContext="shape" transform="translate(46.8,-6.85573)">
				<title>工作表.24</title>
				<rect x="0" y="592.99" width="9" height="2.286" class="st6"/>
			</g>
			<g id="group25-49" transform="translate(-1.70079,0)" v:mID="25" v:groupContext="group">
				<title>工作表.25</title>
				<g id="shape26-50" v:mID="26" v:groupContext="shape">
					<title>工作表.26</title>
					<rect x="0" y="588.976" width="3.40157" height="6.3" class="st1"/>
				</g>
				<g id="shape27-53" v:mID="27" v:groupContext="shape" transform="translate(1.11615,-0.225)">
					<title>工作表.27</title>
					<path d="M0 594.94 L0.58 595.28 L1.17 594.94 L1.17 594.26 L0.58 593.93 L0 594.26 L0 594.94 Z" class="st1"/>
				</g>
				<g id="shape28-56" v:mID="28" v:groupContext="shape" transform="translate(1.11615,-4.725)">
					<title>工作表.28</title>
					<path d="M0 594.94 L0.58 595.28 L1.17 594.94 L1.17 594.26 L0.58 593.93 L0 594.26 L0 594.94 Z" class="st1"/>
				</g>
			</g>
			<g id="group29-59" transform="translate(66.6992,0)" v:mID="29" v:groupContext="group">
				<title>工作表.29</title>
				<g id="shape30-60" v:mID="30" v:groupContext="shape">
					<title>工作表.30</title>
					<rect x="0" y="588.976" width="3.40157" height="6.3" class="st1"/>
				</g>
				<g id="shape31-63" v:mID="31" v:groupContext="shape" transform="translate(1.11615,-0.225)">
					<title>工作表.31</title>
					<path d="M0 594.94 L0.58 595.28 L1.17 594.94 L1.17 594.26 L0.58 593.93 L0 594.26 L0 594.94 Z" class="st1"/>
				</g>
				<g id="shape32-66" v:mID="32" v:groupContext="shape" transform="translate(1.11615,-4.725)">
					<title>工作表.32</title>
					<path d="M0 594.94 L0.58 595.28 L1.17 594.94 L1.17 594.26 L0.58 593.93 L0 594.26 L0 594.94 Z" class="st1"/>
				</g>
			</g>
			<g id="group33-69" transform="translate(-1.70079,-6.3)" v:mID="33" v:groupContext="group">
				<title>工作表.33</title>
				<g id="shape34-70" v:mID="34" v:groupContext="shape">
					<title>工作表.34</title>
					<rect x="0" y="588.976" width="3.40157" height="6.3" class="st1"/>
				</g>
				<g id="shape35-73" v:mID="35" v:groupContext="shape" transform="translate(1.11615,-0.225)">
					<title>工作表.35</title>
					<path d="M0 594.94 L0.58 595.28 L1.17 594.94 L1.17 594.26 L0.58 593.93 L0 594.26 L0 594.94 Z" class="st1"/>
				</g>
				<g id="shape36-76" v:mID="36" v:groupContext="shape" transform="translate(1.11615,-4.725)">
					<title>工作表.36</title>
					<path d="M0 594.94 L0.58 595.28 L1.17 594.94 L1.17 594.26 L0.58 593.93 L0 594.26 L0 594.94 Z" class="st1"/>
				</g>
			</g>
			<g id="group37-79" transform="translate(66.6992,-6.3)" v:mID="37" v:groupContext="group">
				<title>工作表.37</title>
				<g id="shape38-80" v:mID="38" v:groupContext="shape">
					<title>工作表.38</title>
					<rect x="0" y="588.976" width="3.40157" height="6.3" class="st1"/>
				</g>
				<g id="shape39-83" v:mID="39" v:groupContext="shape" transform="translate(1.11615,-0.225)">
					<title>工作表.39</title>
					<path d="M0 594.94 L0.58 595.28 L1.17 594.94 L1.17 594.26 L0.58 593.93 L0 594.26 L0 594.94 Z" class="st1"/>
				</g>
				<g id="shape40-86" v:mID="40" v:groupContext="shape" transform="translate(1.11615,-4.725)">
					<title>工作表.40</title>
					<path d="M0 594.94 L0.58 595.28 L1.17 594.94 L1.17 594.26 L0.58 593.93 L0 594.26 L0 594.94 Z" class="st1"/>
				</g>
			</g>
			<g id="shape41-89" v:mID="41" v:groupContext="shape" transform="translate(5.24409,0)">
				<title>工作表.41</title>
				<path d="M30.73 591.02 L57.91 591.02 L57.91 584.5 L30.73 584.5 L30.73 591.02" class="st7"/>
				<path d="M36.04 590.57 L56.14 590.57 L56.14 584.96 L36.04 584.96 L36.04 590.57" class="st7"/>
				<path d="M37.81 589.54 L54.37 589.54 L54.37 585.28 L37.81 585.28 L37.81 589.54" class="st7"/>
				<path d="M0 593.15 L57.91 593.15" class="st7"/>
				<path d="M0 586.93 L0 582.68" class="st7"/>
				<path d="M57.91 586.93 L57.91 582.68" class="st7"/>
				<path d="M30.73 591.02 L36.04 590.57" class="st7"/>
				<path d="M30.73 584.5 L36.04 584.96" class="st7"/>
				<path d="M57.91 591.02 L56.14 590.57" class="st7"/>
				<path d="M57.91 584.5 L56.14 584.96" class="st7"/>
				<path d="M43.43 585.28 L43.43 584.96" class="st7"/>
				<path d="M50.38 585.28 L50.38 584.96" class="st7"/>
			</g>
			<g id="shape42-103" v:mID="42" v:groupContext="shape" transform="translate(5.24409,-4.25197)">
				<title>工作表.42</title>
				<path d="M0 595.28 L0.45 593.23 L28.5 593.23 L28.96 595.28 L28.96 593.01 L0 593.01 L0 595.28 ZM0 591.02 L0.45 588.98
							 L28.5 588.98 L28.96 591.02 L28.96 588.76 L0 588.76 L0 591.02 Z" class="st8"/>
				<path d="M0 595.28 L28.96 595.28 L28.96 593.01 L0 593.01 L0 595.28" class="st7"/>
				<path d="M0 595.28 L0.45 593.23 L28.5 593.23 L28.96 595.28 L28.96 593.01 L0 593.01 L0 595.28" class="st7"/>
				<path d="M0 591.02 L28.96 591.02 L28.96 588.76 L0 588.76 L0 591.02" class="st7"/>
				<path d="M0 591.02 L0.45 588.98 L28.5 588.98 L28.96 591.02 L28.96 588.76 L0 588.76 L0 591.02" class="st7"/>
			</g>
			<g id="shape43-109" v:mID="43" v:groupContext="shape" transform="translate(44.8299,-5.06516)">
				<title>工作表.43</title>
				<path d="M0 594.6 a0.675 0.675 -180 1 1 1.35 0 a0.675 0.675 -180 1 1 -1.35 0 ZM2.03 594.6 a0.675 0.675 -180 1 1 1.35
							 0 a0.675 0.675 -180 1 1 -1.35 0 ZM4.73 595.28 L6.07 595.28 L6.07 593.93 L4.73 593.93 a0.675 0.675 -180
							 1 0 9.76996E-015 1.35 ZM6.07 595.28 L7.42 595.28 a0.675 0.675 -180 0 0 0 -1.35 L6.07 593.93 L6.07 595.28
							 ZM9.45 595.28 L10.8 595.28 L10.8 593.93 L9.45 593.93 a0.675 0.675 -180 1 0 8.88178E-015 1.35 ZM10.8
							 595.28 L12.15 595.28 a0.675 0.675 -180 0 0 0 -1.35 L10.8 593.93 L10.8 595.28 Z" class="st9"/>
			</g>
			<g id="shape44-111" v:mID="44" v:groupContext="shape" transform="translate(5.24409,0)">
				<title>工作表.44</title>
			</g>
			<g id="shape45-113" v:mID="45" v:groupContext="shape" transform="translate(-32.8904,0)">
				<title>工作表.45</title>
				<v:textBlock v:margins="rect(0,0,0,0)" v:tabSpace="42.5197"/>
				<v:textRect cx="9.60522" cy="588.976" width="19.22" height="12.6"/>
				<text x="2.72" y="592.58" class="st2" v:langID="2052"><v:paragraph v:horizAlign="2"/><v:tabList/>2 U</text>			</g>
			<g id="shape22-115" v:mID="22" v:groupContext="groupContent">
				<v:textBlock v:margins="rect(0,0,0,0)" v:tabSpace="42.5197"/>
				<v:textRect cx="138.799" cy="588.976" width="127.12" height="15.9788"/>
				<rect v:rectContext="textBkgnd" x="76.5982" y="580.988" width="124.401" height="15.9752" class="st3"/>
				<text x="76.6" y="592.97" class="st2" v:langID="2052"><v:paragraph v:horizAlign="1"/><v:tabList/>VMAPP105<tspan
							class="st10">：</tspan>10.96.80.73</text>			</g>
		</g>
		<g id="group46-119" transform="translate(59.0457,-358.873)" v:mID="46" v:groupContext="group">
			<title>服务器.46</title>
			<desc>VMAPP10410.96.80.71</desc>
			<g id="shape47-120" v:mID="47" v:groupContext="shape" transform="translate(1.70079,0)">
				<title>工作表.47</title>
				<rect x="0" y="582.676" width="64.9984" height="12.6" class="st1"/>
			</g>
			<g id="shape48-123" v:mID="48" v:groupContext="shape" transform="translate(46.8,-6.85573)">
				<title>工作表.48</title>
				<rect x="0" y="592.99" width="9" height="2.286" class="st6"/>
			</g>
			<g id="group49-125" transform="translate(-1.70079,0)" v:mID="49" v:groupContext="group">
				<title>工作表.49</title>
				<g id="shape50-126" v:mID="50" v:groupContext="shape">
					<title>工作表.50</title>
					<rect x="0" y="588.976" width="3.40157" height="6.3" class="st1"/>
				</g>
				<g id="shape51-129" v:mID="51" v:groupContext="shape" transform="translate(1.11615,-0.225)">
					<title>工作表.51</title>
					<path d="M0 594.94 L0.58 595.28 L1.17 594.94 L1.17 594.26 L0.58 593.93 L0 594.26 L0 594.94 Z" class="st1"/>
				</g>
				<g id="shape52-132" v:mID="52" v:groupContext="shape" transform="translate(1.11615,-4.725)">
					<title>工作表.52</title>
					<path d="M0 594.94 L0.58 595.28 L1.17 594.94 L1.17 594.26 L0.58 593.93 L0 594.26 L0 594.94 Z" class="st1"/>
				</g>
			</g>
			<g id="group53-135" transform="translate(66.6992,0)" v:mID="53" v:groupContext="group">
				<title>工作表.53</title>
				<g id="shape54-136" v:mID="54" v:groupContext="shape">
					<title>工作表.54</title>
					<rect x="0" y="588.976" width="3.40157" height="6.3" class="st1"/>
				</g>
				<g id="shape55-139" v:mID="55" v:groupContext="shape" transform="translate(1.11615,-0.225)">
					<title>工作表.55</title>
					<path d="M0 594.94 L0.58 595.28 L1.17 594.94 L1.17 594.26 L0.58 593.93 L0 594.26 L0 594.94 Z" class="st1"/>
				</g>
				<g id="shape56-142" v:mID="56" v:groupContext="shape" transform="translate(1.11615,-4.725)">
					<title>工作表.56</title>
					<path d="M0 594.94 L0.58 595.28 L1.17 594.94 L1.17 594.26 L0.58 593.93 L0 594.26 L0 594.94 Z" class="st1"/>
				</g>
			</g>
			<g id="group57-145" transform="translate(-1.70079,-6.3)" v:mID="57" v:groupContext="group">
				<title>工作表.57</title>
				<g id="shape58-146" v:mID="58" v:groupContext="shape">
					<title>工作表.58</title>
					<rect x="0" y="588.976" width="3.40157" height="6.3" class="st1"/>
				</g>
				<g id="shape59-149" v:mID="59" v:groupContext="shape" transform="translate(1.11615,-0.225)">
					<title>工作表.59</title>
					<path d="M0 594.94 L0.58 595.28 L1.17 594.94 L1.17 594.26 L0.58 593.93 L0 594.26 L0 594.94 Z" class="st1"/>
				</g>
				<g id="shape60-152" v:mID="60" v:groupContext="shape" transform="translate(1.11615,-4.725)">
					<title>工作表.60</title>
					<path d="M0 594.94 L0.58 595.28 L1.17 594.94 L1.17 594.26 L0.58 593.93 L0 594.26 L0 594.94 Z" class="st1"/>
				</g>
			</g>
			<g id="group61-155" transform="translate(66.6992,-6.3)" v:mID="61" v:groupContext="group">
				<title>工作表.61</title>
				<g id="shape62-156" v:mID="62" v:groupContext="shape">
					<title>工作表.62</title>
					<rect x="0" y="588.976" width="3.40157" height="6.3" class="st1"/>
				</g>
				<g id="shape63-159" v:mID="63" v:groupContext="shape" transform="translate(1.11615,-0.225)">
					<title>工作表.63</title>
					<path d="M0 594.94 L0.58 595.28 L1.17 594.94 L1.17 594.26 L0.58 593.93 L0 594.26 L0 594.94 Z" class="st1"/>
				</g>
				<g id="shape64-162" v:mID="64" v:groupContext="shape" transform="translate(1.11615,-4.725)">
					<title>工作表.64</title>
					<path d="M0 594.94 L0.58 595.28 L1.17 594.94 L1.17 594.26 L0.58 593.93 L0 594.26 L0 594.94 Z" class="st1"/>
				</g>
			</g>
			<g id="shape65-165" v:mID="65" v:groupContext="shape" transform="translate(5.24409,0)">
				<title>工作表.65</title>
				<path d="M30.73 591.02 L57.91 591.02 L57.91 584.5 L30.73 584.5 L30.73 591.02" class="st7"/>
				<path d="M36.04 590.57 L56.14 590.57 L56.14 584.96 L36.04 584.96 L36.04 590.57" class="st7"/>
				<path d="M37.81 589.54 L54.37 589.54 L54.37 585.28 L37.81 585.28 L37.81 589.54" class="st7"/>
				<path d="M0 593.15 L57.91 593.15" class="st7"/>
				<path d="M0 586.93 L0 582.68" class="st7"/>
				<path d="M57.91 586.93 L57.91 582.68" class="st7"/>
				<path d="M30.73 591.02 L36.04 590.57" class="st7"/>
				<path d="M30.73 584.5 L36.04 584.96" class="st7"/>
				<path d="M57.91 591.02 L56.14 590.57" class="st7"/>
				<path d="M57.91 584.5 L56.14 584.96" class="st7"/>
				<path d="M43.43 585.28 L43.43 584.96" class="st7"/>
				<path d="M50.38 585.28 L50.38 584.96" class="st7"/>
			</g>
			<g id="shape66-179" v:mID="66" v:groupContext="shape" transform="translate(5.24409,-4.25197)">
				<title>工作表.66</title>
				<path d="M0 595.28 L0.45 593.23 L28.5 593.23 L28.96 595.28 L28.96 593.01 L0 593.01 L0 595.28 ZM0 591.02 L0.45 588.98
							 L28.5 588.98 L28.96 591.02 L28.96 588.76 L0 588.76 L0 591.02 Z" class="st8"/>
				<path d="M0 595.28 L28.96 595.28 L28.96 593.01 L0 593.01 L0 595.28" class="st7"/>
				<path d="M0 595.28 L0.45 593.23 L28.5 593.23 L28.96 595.28 L28.96 593.01 L0 593.01 L0 595.28" class="st7"/>
				<path d="M0 591.02 L28.96 591.02 L28.96 588.76 L0 588.76 L0 591.02" class="st7"/>
				<path d="M0 591.02 L0.45 588.98 L28.5 588.98 L28.96 591.02 L28.96 588.76 L0 588.76 L0 591.02" class="st7"/>
			</g>
			<g id="shape67-185" v:mID="67" v:groupContext="shape" transform="translate(44.8299,-5.06516)">
				<title>工作表.67</title>
				<path d="M0 594.6 a0.675 0.675 -180 1 1 1.35 0 a0.675 0.675 -180 1 1 -1.35 0 ZM2.03 594.6 a0.675 0.675 -180 1 1 1.35
							 0 a0.675 0.675 -180 1 1 -1.35 0 ZM4.73 595.28 L6.07 595.28 L6.07 593.93 L4.73 593.93 a0.675 0.675 -180
							 1 0 9.76996E-015 1.35 ZM6.07 595.28 L7.42 595.28 a0.675 0.675 -180 0 0 0 -1.35 L6.07 593.93 L6.07 595.28
							 ZM9.45 595.28 L10.8 595.28 L10.8 593.93 L9.45 593.93 a0.675 0.675 -180 1 0 8.88178E-015 1.35 ZM10.8
							 595.28 L12.15 595.28 a0.675 0.675 -180 0 0 0 -1.35 L10.8 593.93 L10.8 595.28 Z" class="st9"/>
			</g>
			<g id="shape68-187" v:mID="68" v:groupContext="shape" transform="translate(5.24409,0)">
				<title>工作表.68</title>
			</g>
			<g id="shape69-189" v:mID="69" v:groupContext="shape" transform="translate(-32.8904,0)">
				<title>工作表.69</title>
				<v:textBlock v:margins="rect(0,0,0,0)" v:tabSpace="42.5197"/>
				<v:textRect cx="9.60522" cy="588.976" width="19.22" height="12.6"/>
				<text x="2.72" y="592.58" class="st2" v:langID="2052"><v:paragraph v:horizAlign="2"/><v:tabList/>2 U</text>			</g>
			<g id="shape46-191" v:mID="46" v:groupContext="groupContent">
				<v:textBlock v:margins="rect(0,0,0,0)" v:tabSpace="42.5197"/>
				<v:textRect cx="138.799" cy="588.976" width="127.12" height="15.9788"/>
				<rect v:rectContext="textBkgnd" x="76.5982" y="580.988" width="124.401" height="15.9752" class="st3"/>
				<text x="76.6" y="592.97" class="st2" v:langID="2052"><v:paragraph v:horizAlign="1"/><v:tabList/>VMAPP104<tspan
							class="st10">：</tspan>10.96.80.71</text>			</g>
		</g>
		<g id="group70-195" transform="translate(59.0457,-377.773)" v:mID="70" v:groupContext="group">
			<title>服务器.70</title>
			<desc>VCENTER1:10.96.80.81</desc>
			<g id="shape71-196" v:mID="71" v:groupContext="shape" transform="translate(1.70079,0)">
				<title>工作表.71</title>
				<rect x="0" y="582.676" width="64.9984" height="12.6" class="st1"/>
			</g>
			<g id="shape72-199" v:mID="72" v:groupContext="shape" transform="translate(46.8,-6.85573)">
				<title>工作表.72</title>
				<rect x="0" y="592.99" width="9" height="2.286" class="st6"/>
			</g>
			<g id="group73-201" transform="translate(-1.70079,0)" v:mID="73" v:groupContext="group">
				<title>工作表.73</title>
				<g id="shape74-202" v:mID="74" v:groupContext="shape">
					<title>工作表.74</title>
					<rect x="0" y="588.976" width="3.40157" height="6.3" class="st1"/>
				</g>
				<g id="shape75-205" v:mID="75" v:groupContext="shape" transform="translate(1.11615,-0.225)">
					<title>工作表.75</title>
					<path d="M0 594.94 L0.58 595.28 L1.17 594.94 L1.17 594.26 L0.58 593.93 L0 594.26 L0 594.94 Z" class="st1"/>
				</g>
				<g id="shape76-208" v:mID="76" v:groupContext="shape" transform="translate(1.11615,-4.725)">
					<title>工作表.76</title>
					<path d="M0 594.94 L0.58 595.28 L1.17 594.94 L1.17 594.26 L0.58 593.93 L0 594.26 L0 594.94 Z" class="st1"/>
				</g>
			</g>
			<g id="group77-211" transform="translate(66.6992,0)" v:mID="77" v:groupContext="group">
				<title>工作表.77</title>
				<g id="shape78-212" v:mID="78" v:groupContext="shape">
					<title>工作表.78</title>
					<rect x="0" y="588.976" width="3.40157" height="6.3" class="st1"/>
				</g>
				<g id="shape79-215" v:mID="79" v:groupContext="shape" transform="translate(1.11615,-0.225)">
					<title>工作表.79</title>
					<path d="M0 594.94 L0.58 595.28 L1.17 594.94 L1.17 594.26 L0.58 593.93 L0 594.26 L0 594.94 Z" class="st1"/>
				</g>
				<g id="shape80-218" v:mID="80" v:groupContext="shape" transform="translate(1.11615,-4.725)">
					<title>工作表.80</title>
					<path d="M0 594.94 L0.58 595.28 L1.17 594.94 L1.17 594.26 L0.58 593.93 L0 594.26 L0 594.94 Z" class="st1"/>
				</g>
			</g>
			<g id="group81-221" transform="translate(-1.70079,-6.3)" v:mID="81" v:groupContext="group">
				<title>工作表.81</title>
				<g id="shape82-222" v:mID="82" v:groupContext="shape">
					<title>工作表.82</title>
					<rect x="0" y="588.976" width="3.40157" height="6.3" class="st1"/>
				</g>
				<g id="shape83-225" v:mID="83" v:groupContext="shape" transform="translate(1.11615,-0.225)">
					<title>工作表.83</title>
					<path d="M0 594.94 L0.58 595.28 L1.17 594.94 L1.17 594.26 L0.58 593.93 L0 594.26 L0 594.94 Z" class="st1"/>
				</g>
				<g id="shape84-228" v:mID="84" v:groupContext="shape" transform="translate(1.11615,-4.725)">
					<title>工作表.84</title>
					<path d="M0 594.94 L0.58 595.28 L1.17 594.94 L1.17 594.26 L0.58 593.93 L0 594.26 L0 594.94 Z" class="st1"/>
				</g>
			</g>
			<g id="group85-231" transform="translate(66.6992,-6.3)" v:mID="85" v:groupContext="group">
				<title>工作表.85</title>
				<g id="shape86-232" v:mID="86" v:groupContext="shape">
					<title>工作表.86</title>
					<rect x="0" y="588.976" width="3.40157" height="6.3" class="st1"/>
				</g>
				<g id="shape87-235" v:mID="87" v:groupContext="shape" transform="translate(1.11615,-0.225)">
					<title>工作表.87</title>
					<path d="M0 594.94 L0.58 595.28 L1.17 594.94 L1.17 594.26 L0.58 593.93 L0 594.26 L0 594.94 Z" class="st1"/>
				</g>
				<g id="shape88-238" v:mID="88" v:groupContext="shape" transform="translate(1.11615,-4.725)">
					<title>工作表.88</title>
					<path d="M0 594.94 L0.58 595.28 L1.17 594.94 L1.17 594.26 L0.58 593.93 L0 594.26 L0 594.94 Z" class="st1"/>
				</g>
			</g>
			<g id="shape89-241" v:mID="89" v:groupContext="shape" transform="translate(5.24409,0)">
				<title>工作表.89</title>
				<path d="M30.73 591.02 L57.91 591.02 L57.91 584.5 L30.73 584.5 L30.73 591.02" class="st7"/>
				<path d="M36.04 590.57 L56.14 590.57 L56.14 584.96 L36.04 584.96 L36.04 590.57" class="st7"/>
				<path d="M37.81 589.54 L54.37 589.54 L54.37 585.28 L37.81 585.28 L37.81 589.54" class="st7"/>
				<path d="M0 593.15 L57.91 593.15" class="st7"/>
				<path d="M0 586.93 L0 582.68" class="st7"/>
				<path d="M57.91 586.93 L57.91 582.68" class="st7"/>
				<path d="M30.73 591.02 L36.04 590.57" class="st7"/>
				<path d="M30.73 584.5 L36.04 584.96" class="st7"/>
				<path d="M57.91 591.02 L56.14 590.57" class="st7"/>
				<path d="M57.91 584.5 L56.14 584.96" class="st7"/>
				<path d="M43.43 585.28 L43.43 584.96" class="st7"/>
				<path d="M50.38 585.28 L50.38 584.96" class="st7"/>
			</g>
			<g id="shape90-255" v:mID="90" v:groupContext="shape" transform="translate(5.24409,-4.25197)">
				<title>工作表.90</title>
				<path d="M0 595.28 L0.45 593.23 L28.5 593.23 L28.96 595.28 L28.96 593.01 L0 593.01 L0 595.28 ZM0 591.02 L0.45 588.98
							 L28.5 588.98 L28.96 591.02 L28.96 588.76 L0 588.76 L0 591.02 Z" class="st8"/>
				<path d="M0 595.28 L28.96 595.28 L28.96 593.01 L0 593.01 L0 595.28" class="st7"/>
				<path d="M0 595.28 L0.45 593.23 L28.5 593.23 L28.96 595.28 L28.96 593.01 L0 593.01 L0 595.28" class="st7"/>
				<path d="M0 591.02 L28.96 591.02 L28.96 588.76 L0 588.76 L0 591.02" class="st7"/>
				<path d="M0 591.02 L0.45 588.98 L28.5 588.98 L28.96 591.02 L28.96 588.76 L0 588.76 L0 591.02" class="st7"/>
			</g>
			<g id="shape91-261" v:mID="91" v:groupContext="shape" transform="translate(44.8299,-5.06516)">
				<title>工作表.91</title>
				<path d="M0 594.6 a0.675 0.675 -180 1 1 1.35 0 a0.675 0.675 -180 1 1 -1.35 0 ZM2.03 594.6 a0.675 0.675 -180 1 1 1.35
							 0 a0.675 0.675 -180 1 1 -1.35 0 ZM4.73 595.28 L6.07 595.28 L6.07 593.93 L4.73 593.93 a0.675 0.675 -180
							 1 0 9.76996E-015 1.35 ZM6.07 595.28 L7.42 595.28 a0.675 0.675 -180 0 0 0 -1.35 L6.07 593.93 L6.07 595.28
							 ZM9.45 595.28 L10.8 595.28 L10.8 593.93 L9.45 593.93 a0.675 0.675 -180 1 0 8.88178E-015 1.35 ZM10.8
							 595.28 L12.15 595.28 a0.675 0.675 -180 0 0 0 -1.35 L10.8 593.93 L10.8 595.28 Z" class="st9"/>
			</g>
			<g id="shape92-263" v:mID="92" v:groupContext="shape" transform="translate(5.24409,0)">
				<title>工作表.92</title>
			</g>
			<g id="shape93-265" v:mID="93" v:groupContext="shape" transform="translate(-32.8904,0)">
				<title>工作表.93</title>
				<v:textBlock v:margins="rect(0,0,0,0)" v:tabSpace="42.5197"/>
				<v:textRect cx="9.60522" cy="588.976" width="19.22" height="12.6"/>
				<text x="2.72" y="592.58" class="st2" v:langID="2052"><v:paragraph v:horizAlign="2"/><v:tabList/>2 U</text>			</g>
			<g id="shape70-267" v:mID="70" v:groupContext="groupContent">
				<v:textBlock v:margins="rect(0,0,0,0)" v:tabSpace="42.5197"/>
				<v:textRect cx="132.634" cy="588.976" width="114.79" height="14.4037"/>
				<rect v:rectContext="textBkgnd" x="76.5982" y="581.776" width="112.072" height="14.4001" class="st3"/>
				<text x="76.6" y="592.58" class="st2" v:langID="2052"><v:paragraph v:horizAlign="1"/><v:tabList/>VCENTER1:10.96.80.81</text>			</g>
		</g>
		<g id="group94-270" transform="translate(59.0457,-396.673)" v:mID="94" v:groupContext="group">
			<title>服务器.94</title>
			<desc>VMAPP103:10.96.80.69</desc>
			<g id="shape95-271" v:mID="95" v:groupContext="shape" transform="translate(1.70079,0)">
				<title>工作表.95</title>
				<rect x="0" y="582.676" width="64.9984" height="12.6" class="st1"/>
			</g>
			<g id="shape96-274" v:mID="96" v:groupContext="shape" transform="translate(46.8,-6.85573)">
				<title>工作表.96</title>
				<rect x="0" y="592.99" width="9" height="2.286" class="st6"/>
			</g>
			<g id="group97-276" transform="translate(-1.70079,0)" v:mID="97" v:groupContext="group">
				<title>工作表.97</title>
				<g id="shape98-277" v:mID="98" v:groupContext="shape">
					<title>工作表.98</title>
					<rect x="0" y="588.976" width="3.40157" height="6.3" class="st1"/>
				</g>
				<g id="shape99-280" v:mID="99" v:groupContext="shape" transform="translate(1.11615,-0.225)">
					<title>工作表.99</title>
					<path d="M0 594.94 L0.58 595.28 L1.17 594.94 L1.17 594.26 L0.58 593.93 L0 594.26 L0 594.94 Z" class="st1"/>
				</g>
				<g id="shape100-283" v:mID="100" v:groupContext="shape" transform="translate(1.11615,-4.725)">
					<title>工作表.100</title>
					<path d="M0 594.94 L0.58 595.28 L1.17 594.94 L1.17 594.26 L0.58 593.93 L0 594.26 L0 594.94 Z" class="st1"/>
				</g>
			</g>
			<g id="group101-286" transform="translate(66.6992,0)" v:mID="101" v:groupContext="group">
				<title>工作表.101</title>
				<g id="shape102-287" v:mID="102" v:groupContext="shape">
					<title>工作表.102</title>
					<rect x="0" y="588.976" width="3.40157" height="6.3" class="st1"/>
				</g>
				<g id="shape103-290" v:mID="103" v:groupContext="shape" transform="translate(1.11615,-0.225)">
					<title>工作表.103</title>
					<path d="M0 594.94 L0.58 595.28 L1.17 594.94 L1.17 594.26 L0.58 593.93 L0 594.26 L0 594.94 Z" class="st1"/>
				</g>
				<g id="shape104-293" v:mID="104" v:groupContext="shape" transform="translate(1.11615,-4.725)">
					<title>工作表.104</title>
					<path d="M0 594.94 L0.58 595.28 L1.17 594.94 L1.17 594.26 L0.58 593.93 L0 594.26 L0 594.94 Z" class="st1"/>
				</g>
			</g>
			<g id="group105-296" transform="translate(-1.70079,-6.3)" v:mID="105" v:groupContext="group">
				<title>工作表.105</title>
				<g id="shape106-297" v:mID="106" v:groupContext="shape">
					<title>工作表.106</title>
					<rect x="0" y="588.976" width="3.40157" height="6.3" class="st1"/>
				</g>
				<g id="shape107-300" v:mID="107" v:groupContext="shape" transform="translate(1.11615,-0.225)">
					<title>工作表.107</title>
					<path d="M0 594.94 L0.58 595.28 L1.17 594.94 L1.17 594.26 L0.58 593.93 L0 594.26 L0 594.94 Z" class="st1"/>
				</g>
				<g id="shape108-303" v:mID="108" v:groupContext="shape" transform="translate(1.11615,-4.725)">
					<title>工作表.108</title>
					<path d="M0 594.94 L0.58 595.28 L1.17 594.94 L1.17 594.26 L0.58 593.93 L0 594.26 L0 594.94 Z" class="st1"/>
				</g>
			</g>
			<g id="group109-306" transform="translate(66.6992,-6.3)" v:mID="109" v:groupContext="group">
				<title>工作表.109</title>
				<g id="shape110-307" v:mID="110" v:groupContext="shape">
					<title>工作表.110</title>
					<rect x="0" y="588.976" width="3.40157" height="6.3" class="st1"/>
				</g>
				<g id="shape111-310" v:mID="111" v:groupContext="shape" transform="translate(1.11615,-0.225)">
					<title>工作表.111</title>
					<path d="M0 594.94 L0.58 595.28 L1.17 594.94 L1.17 594.26 L0.58 593.93 L0 594.26 L0 594.94 Z" class="st1"/>
				</g>
				<g id="shape112-313" v:mID="112" v:groupContext="shape" transform="translate(1.11615,-4.725)">
					<title>工作表.112</title>
					<path d="M0 594.94 L0.58 595.28 L1.17 594.94 L1.17 594.26 L0.58 593.93 L0 594.26 L0 594.94 Z" class="st1"/>
				</g>
			</g>
			<g id="shape113-316" v:mID="113" v:groupContext="shape" transform="translate(5.24409,0)">
				<title>工作表.113</title>
				<path d="M30.73 591.02 L57.91 591.02 L57.91 584.5 L30.73 584.5 L30.73 591.02" class="st7"/>
				<path d="M36.04 590.57 L56.14 590.57 L56.14 584.96 L36.04 584.96 L36.04 590.57" class="st7"/>
				<path d="M37.81 589.54 L54.37 589.54 L54.37 585.28 L37.81 585.28 L37.81 589.54" class="st7"/>
				<path d="M0 593.15 L57.91 593.15" class="st7"/>
				<path d="M0 586.93 L0 582.68" class="st7"/>
				<path d="M57.91 586.93 L57.91 582.68" class="st7"/>
				<path d="M30.73 591.02 L36.04 590.57" class="st7"/>
				<path d="M30.73 584.5 L36.04 584.96" class="st7"/>
				<path d="M57.91 591.02 L56.14 590.57" class="st7"/>
				<path d="M57.91 584.5 L56.14 584.96" class="st7"/>
				<path d="M43.43 585.28 L43.43 584.96" class="st7"/>
				<path d="M50.38 585.28 L50.38 584.96" class="st7"/>
			</g>
			<g id="shape114-330" v:mID="114" v:groupContext="shape" transform="translate(5.24409,-4.25197)">
				<title>工作表.114</title>
				<path d="M0 595.28 L0.45 593.23 L28.5 593.23 L28.96 595.28 L28.96 593.01 L0 593.01 L0 595.28 ZM0 591.02 L0.45 588.98
							 L28.5 588.98 L28.96 591.02 L28.96 588.76 L0 588.76 L0 591.02 Z" class="st8"/>
				<path d="M0 595.28 L28.96 595.28 L28.96 593.01 L0 593.01 L0 595.28" class="st7"/>
				<path d="M0 595.28 L0.45 593.23 L28.5 593.23 L28.96 595.28 L28.96 593.01 L0 593.01 L0 595.28" class="st7"/>
				<path d="M0 591.02 L28.96 591.02 L28.96 588.76 L0 588.76 L0 591.02" class="st7"/>
				<path d="M0 591.02 L0.45 588.98 L28.5 588.98 L28.96 591.02 L28.96 588.76 L0 588.76 L0 591.02" class="st7"/>
			</g>
			<g id="shape115-336" v:mID="115" v:groupContext="shape" transform="translate(44.8299,-5.06516)">
				<title>工作表.115</title>
				<path d="M0 594.6 a0.675 0.675 -180 1 1 1.35 0 a0.675 0.675 -180 1 1 -1.35 0 ZM2.03 594.6 a0.675 0.675 -180 1 1 1.35
							 0 a0.675 0.675 -180 1 1 -1.35 0 ZM4.73 595.28 L6.07 595.28 L6.07 593.93 L4.73 593.93 a0.675 0.675 -180
							 1 0 9.76996E-015 1.35 ZM6.07 595.28 L7.42 595.28 a0.675 0.675 -180 0 0 0 -1.35 L6.07 593.93 L6.07 595.28
							 ZM9.45 595.28 L10.8 595.28 L10.8 593.93 L9.45 593.93 a0.675 0.675 -180 1 0 8.88178E-015 1.35 ZM10.8
							 595.28 L12.15 595.28 a0.675 0.675 -180 0 0 0 -1.35 L10.8 593.93 L10.8 595.28 Z" class="st9"/>
			</g>
			<g id="shape116-338" v:mID="116" v:groupContext="shape" transform="translate(5.24409,0)">
				<title>工作表.116</title>
			</g>
			<g id="shape117-340" v:mID="117" v:groupContext="shape" transform="translate(-32.8904,0)">
				<title>工作表.117</title>
				<v:textBlock v:margins="rect(0,0,0,0)" v:tabSpace="42.5197"/>
				<v:textRect cx="9.60522" cy="588.976" width="19.22" height="12.6"/>
				<text x="2.72" y="592.58" class="st2" v:langID="2052"><v:paragraph v:horizAlign="2"/><v:tabList/>2 U</text>			</g>
			<g id="shape94-342" v:mID="94" v:groupContext="groupContent">
				<v:textBlock v:margins="rect(0,0,0,0)" v:tabSpace="42.5197"/>
				<v:textRect cx="134.404" cy="588.976" width="118.33" height="14.4037"/>
				<rect v:rectContext="textBkgnd" x="76.5982" y="581.776" width="115.612" height="14.4001" class="st3"/>
				<text x="76.6" y="592.58" class="st2" v:langID="2052"><v:paragraph v:horizAlign="1"/><v:tabList/>VMAPP103:10.96.80.69</text>			</g>
		</g>
		<g id="group118-345" transform="translate(59.0457,-415.573)" v:mID="118" v:groupContext="group">
			<title>LCD 显示器</title>
			<desc>ATEN LCD KVM 切换器</desc>
			<g id="shape119-346" v:mID="119" v:groupContext="shape" transform="translate(1.70079,0)">
				<title>工作表.119</title>
				<rect x="0" y="588.976" width="64.9984" height="6.3" class="st1"/>
			</g>
			<g id="group120-349" transform="translate(-1.70079,0)" v:mID="120" v:groupContext="group">
				<title>工作表.120</title>
				<g id="shape121-350" v:mID="121" v:groupContext="shape">
					<title>工作表.121</title>
					<rect x="0" y="588.976" width="3.40157" height="6.3" class="st1"/>
				</g>
				<g id="shape122-353" v:mID="122" v:groupContext="shape" transform="translate(1.11615,-0.225)">
					<title>工作表.122</title>
					<path d="M0 594.94 L0.58 595.28 L1.17 594.94 L1.17 594.26 L0.58 593.93 L0 594.26 L0 594.94 Z" class="st1"/>
				</g>
				<g id="shape123-356" v:mID="123" v:groupContext="shape" transform="translate(1.11615,-4.725)">
					<title>工作表.123</title>
					<path d="M0 594.94 L0.58 595.28 L1.17 594.94 L1.17 594.26 L0.58 593.93 L0 594.26 L0 594.94 Z" class="st1"/>
				</g>
			</g>
			<g id="group124-359" transform="translate(66.6992,0)" v:mID="124" v:groupContext="group">
				<title>工作表.124</title>
				<g id="shape125-360" v:mID="125" v:groupContext="shape">
					<title>工作表.125</title>
					<rect x="0" y="588.976" width="3.40157" height="6.3" class="st1"/>
				</g>
				<g id="shape126-363" v:mID="126" v:groupContext="shape" transform="translate(1.11615,-0.225)">
					<title>工作表.126</title>
					<path d="M0 594.94 L0.58 595.28 L1.17 594.94 L1.17 594.26 L0.58 593.93 L0 594.26 L0 594.94 Z" class="st1"/>
				</g>
				<g id="shape127-366" v:mID="127" v:groupContext="shape" transform="translate(1.11615,-4.725)">
					<title>工作表.127</title>
					<path d="M0 594.94 L0.58 595.28 L1.17 594.94 L1.17 594.26 L0.58 593.93 L0 594.26 L0 594.94 Z" class="st1"/>
				</g>
			</g>
			<g id="shape128-369" v:mID="128" v:groupContext="shape" transform="translate(-32.8904,0)">
				<title>工作表.128</title>
				<v:textBlock v:margins="rect(0,0,0,0)" v:tabSpace="42.5197"/>
				<v:textRect cx="9.60522" cy="592.126" width="19.22" height="6.3"/>
				<text x="2.72" y="595.73" class="st2" v:langID="2052"><v:paragraph v:horizAlign="2"/><v:tabList/>1 U</text>			</g>
			<g id="shape118-371" v:mID="118" v:groupContext="groupContent">
				<v:textBlock v:margins="rect(0,0,0,0)" v:tabSpace="42.5197"/>
				<v:textRect cx="132.93" cy="592.126" width="115.39" height="15.9788"/>
				<rect v:rectContext="textBkgnd" x="76.5982" y="584.138" width="112.665" height="15.9752" class="st3"/>
				<text x="76.6" y="596.12" class="st2" v:langID="2052"><v:paragraph v:horizAlign="1"/><v:tabList/>ATEN LCD KVM <tspan
							class="st10">切换器</tspan></text>			</g>
		</g>
		<g id="group143-375" transform="translate(59.0457,-447.073)" v:mID="143" v:groupContext="group">
			<title>服务器.143</title>
			<desc>VMAPP10210.96.80.67</desc>
			<g id="shape144-376" v:mID="144" v:groupContext="shape" transform="translate(1.70079,0)">
				<title>工作表.144</title>
				<rect x="0" y="582.676" width="64.9984" height="12.6" class="st1"/>
			</g>
			<g id="shape145-379" v:mID="145" v:groupContext="shape" transform="translate(46.8,-6.85573)">
				<title>工作表.145</title>
				<rect x="0" y="592.99" width="9" height="2.286" class="st6"/>
			</g>
			<g id="group146-381" transform="translate(-1.70079,0)" v:mID="146" v:groupContext="group">
				<title>工作表.146</title>
				<g id="shape147-382" v:mID="147" v:groupContext="shape">
					<title>工作表.147</title>
					<rect x="0" y="588.976" width="3.40157" height="6.3" class="st1"/>
				</g>
				<g id="shape148-385" v:mID="148" v:groupContext="shape" transform="translate(1.11615,-0.225)">
					<title>工作表.148</title>
					<path d="M0 594.94 L0.58 595.28 L1.17 594.94 L1.17 594.26 L0.58 593.93 L0 594.26 L0 594.94 Z" class="st1"/>
				</g>
				<g id="shape149-388" v:mID="149" v:groupContext="shape" transform="translate(1.11615,-4.725)">
					<title>工作表.149</title>
					<path d="M0 594.94 L0.58 595.28 L1.17 594.94 L1.17 594.26 L0.58 593.93 L0 594.26 L0 594.94 Z" class="st1"/>
				</g>
			</g>
			<g id="group150-391" transform="translate(66.6992,0)" v:mID="150" v:groupContext="group">
				<title>工作表.150</title>
				<g id="shape151-392" v:mID="151" v:groupContext="shape">
					<title>工作表.151</title>
					<rect x="0" y="588.976" width="3.40157" height="6.3" class="st1"/>
				</g>
				<g id="shape152-395" v:mID="152" v:groupContext="shape" transform="translate(1.11615,-0.225)">
					<title>工作表.152</title>
					<path d="M0 594.94 L0.58 595.28 L1.17 594.94 L1.17 594.26 L0.58 593.93 L0 594.26 L0 594.94 Z" class="st1"/>
				</g>
				<g id="shape153-398" v:mID="153" v:groupContext="shape" transform="translate(1.11615,-4.725)">
					<title>工作表.153</title>
					<path d="M0 594.94 L0.58 595.28 L1.17 594.94 L1.17 594.26 L0.58 593.93 L0 594.26 L0 594.94 Z" class="st1"/>
				</g>
			</g>
			<g id="group154-401" transform="translate(-1.70079,-6.3)" v:mID="154" v:groupContext="group">
				<title>工作表.154</title>
				<g id="shape155-402" v:mID="155" v:groupContext="shape">
					<title>工作表.155</title>
					<rect x="0" y="588.976" width="3.40157" height="6.3" class="st1"/>
				</g>
				<g id="shape156-405" v:mID="156" v:groupContext="shape" transform="translate(1.11615,-0.225)">
					<title>工作表.156</title>
					<path d="M0 594.94 L0.58 595.28 L1.17 594.94 L1.17 594.26 L0.58 593.93 L0 594.26 L0 594.94 Z" class="st1"/>
				</g>
				<g id="shape157-408" v:mID="157" v:groupContext="shape" transform="translate(1.11615,-4.725)">
					<title>工作表.157</title>
					<path d="M0 594.94 L0.58 595.28 L1.17 594.94 L1.17 594.26 L0.58 593.93 L0 594.26 L0 594.94 Z" class="st1"/>
				</g>
			</g>
			<g id="group158-411" transform="translate(66.6992,-6.3)" v:mID="158" v:groupContext="group">
				<title>工作表.158</title>
				<g id="shape159-412" v:mID="159" v:groupContext="shape">
					<title>工作表.159</title>
					<rect x="0" y="588.976" width="3.40157" height="6.3" class="st1"/>
				</g>
				<g id="shape160-415" v:mID="160" v:groupContext="shape" transform="translate(1.11615,-0.225)">
					<title>工作表.160</title>
					<path d="M0 594.94 L0.58 595.28 L1.17 594.94 L1.17 594.26 L0.58 593.93 L0 594.26 L0 594.94 Z" class="st1"/>
				</g>
				<g id="shape161-418" v:mID="161" v:groupContext="shape" transform="translate(1.11615,-4.725)">
					<title>工作表.161</title>
					<path d="M0 594.94 L0.58 595.28 L1.17 594.94 L1.17 594.26 L0.58 593.93 L0 594.26 L0 594.94 Z" class="st1"/>
				</g>
			</g>
			<g id="shape162-421" v:mID="162" v:groupContext="shape" transform="translate(5.24409,0)">
				<title>工作表.162</title>
				<path d="M30.73 591.02 L57.91 591.02 L57.91 584.5 L30.73 584.5 L30.73 591.02" class="st7"/>
				<path d="M36.04 590.57 L56.14 590.57 L56.14 584.96 L36.04 584.96 L36.04 590.57" class="st7"/>
				<path d="M37.81 589.54 L54.37 589.54 L54.37 585.28 L37.81 585.28 L37.81 589.54" class="st7"/>
				<path d="M0 593.15 L57.91 593.15" class="st7"/>
				<path d="M0 586.93 L0 582.68" class="st7"/>
				<path d="M57.91 586.93 L57.91 582.68" class="st7"/>
				<path d="M30.73 591.02 L36.04 590.57" class="st7"/>
				<path d="M30.73 584.5 L36.04 584.96" class="st7"/>
				<path d="M57.91 591.02 L56.14 590.57" class="st7"/>
				<path d="M57.91 584.5 L56.14 584.96" class="st7"/>
				<path d="M43.43 585.28 L43.43 584.96" class="st7"/>
				<path d="M50.38 585.28 L50.38 584.96" class="st7"/>
			</g>
			<g id="shape163-435" v:mID="163" v:groupContext="shape" transform="translate(5.24409,-4.25197)">
				<title>工作表.163</title>
				<path d="M0 595.28 L0.45 593.23 L28.5 593.23 L28.96 595.28 L28.96 593.01 L0 593.01 L0 595.28 ZM0 591.02 L0.45 588.98
							 L28.5 588.98 L28.96 591.02 L28.96 588.76 L0 588.76 L0 591.02 Z" class="st8"/>
				<path d="M0 595.28 L28.96 595.28 L28.96 593.01 L0 593.01 L0 595.28" class="st7"/>
				<path d="M0 595.28 L0.45 593.23 L28.5 593.23 L28.96 595.28 L28.96 593.01 L0 593.01 L0 595.28" class="st7"/>
				<path d="M0 591.02 L28.96 591.02 L28.96 588.76 L0 588.76 L0 591.02" class="st7"/>
				<path d="M0 591.02 L0.45 588.98 L28.5 588.98 L28.96 591.02 L28.96 588.76 L0 588.76 L0 591.02" class="st7"/>
			</g>
			<g id="shape164-441" v:mID="164" v:groupContext="shape" transform="translate(44.8299,-5.06516)">
				<title>工作表.164</title>
				<path d="M0 594.6 a0.675 0.675 -180 1 1 1.35 0 a0.675 0.675 -180 1 1 -1.35 0 ZM2.03 594.6 a0.675 0.675 -180 1 1 1.35
							 0 a0.675 0.675 -180 1 1 -1.35 0 ZM4.73 595.28 L6.07 595.28 L6.07 593.93 L4.73 593.93 a0.675 0.675 -180
							 1 0 9.76996E-015 1.35 ZM6.07 595.28 L7.42 595.28 a0.675 0.675 -180 0 0 0 -1.35 L6.07 593.93 L6.07 595.28
							 ZM9.45 595.28 L10.8 595.28 L10.8 593.93 L9.45 593.93 a0.675 0.675 -180 1 0 8.88178E-015 1.35 ZM10.8
							 595.28 L12.15 595.28 a0.675 0.675 -180 0 0 0 -1.35 L10.8 593.93 L10.8 595.28 Z" class="st9"/>
			</g>
			<g id="shape165-443" v:mID="165" v:groupContext="shape" transform="translate(5.24409,0)">
				<title>工作表.165</title>
			</g>
			<g id="shape166-445" v:mID="166" v:groupContext="shape" transform="translate(-32.8904,0)">
				<title>工作表.166</title>
				<v:textBlock v:margins="rect(0,0,0,0)" v:tabSpace="42.5197"/>
				<v:textRect cx="9.60522" cy="588.976" width="19.22" height="12.6"/>
				<text x="2.72" y="592.58" class="st2" v:langID="2052"><v:paragraph v:horizAlign="2"/><v:tabList/>2 U</text>			</g>
			<g id="shape143-447" v:mID="143" v:groupContext="groupContent">
				<v:textBlock v:margins="rect(0,0,0,0)" v:tabSpace="42.5197"/>
				<v:textRect cx="138.799" cy="588.976" width="127.12" height="15.9788"/>
				<rect v:rectContext="textBkgnd" x="76.5982" y="580.988" width="124.401" height="15.9752" class="st3"/>
				<text x="76.6" y="592.97" class="st2" v:langID="2052"><v:paragraph v:horizAlign="1"/><v:tabList/>VMAPP102<tspan
							class="st10">：</tspan>10.96.80.67</text>			</g>
		</g>
		<g id="group167-451" transform="translate(59.0457,-465.973)" v:mID="167" v:groupContext="group">
			<title>服务器.167</title>
			<desc>VMAPP101:10.96.80.65</desc>
			<g id="shape168-452" v:mID="168" v:groupContext="shape" transform="translate(1.70079,0)">
				<title>工作表.168</title>
				<rect x="0" y="582.676" width="64.9984" height="12.6" class="st1"/>
			</g>
			<g id="shape169-455" v:mID="169" v:groupContext="shape" transform="translate(46.8,-6.85573)">
				<title>工作表.169</title>
				<rect x="0" y="592.99" width="9" height="2.286" class="st6"/>
			</g>
			<g id="group170-457" transform="translate(-1.70079,0)" v:mID="170" v:groupContext="group">
				<title>工作表.170</title>
				<g id="shape171-458" v:mID="171" v:groupContext="shape">
					<title>工作表.171</title>
					<rect x="0" y="588.976" width="3.40157" height="6.3" class="st1"/>
				</g>
				<g id="shape172-461" v:mID="172" v:groupContext="shape" transform="translate(1.11615,-0.225)">
					<title>工作表.172</title>
					<path d="M0 594.94 L0.58 595.28 L1.17 594.94 L1.17 594.26 L0.58 593.93 L0 594.26 L0 594.94 Z" class="st1"/>
				</g>
				<g id="shape173-464" v:mID="173" v:groupContext="shape" transform="translate(1.11615,-4.725)">
					<title>工作表.173</title>
					<path d="M0 594.94 L0.58 595.28 L1.17 594.94 L1.17 594.26 L0.58 593.93 L0 594.26 L0 594.94 Z" class="st1"/>
				</g>
			</g>
			<g id="group174-467" transform="translate(66.6992,0)" v:mID="174" v:groupContext="group">
				<title>工作表.174</title>
				<g id="shape175-468" v:mID="175" v:groupContext="shape">
					<title>工作表.175</title>
					<rect x="0" y="588.976" width="3.40157" height="6.3" class="st1"/>
				</g>
				<g id="shape176-471" v:mID="176" v:groupContext="shape" transform="translate(1.11615,-0.225)">
					<title>工作表.176</title>
					<path d="M0 594.94 L0.58 595.28 L1.17 594.94 L1.17 594.26 L0.58 593.93 L0 594.26 L0 594.94 Z" class="st1"/>
				</g>
				<g id="shape177-474" v:mID="177" v:groupContext="shape" transform="translate(1.11615,-4.725)">
					<title>工作表.177</title>
					<path d="M0 594.94 L0.58 595.28 L1.17 594.94 L1.17 594.26 L0.58 593.93 L0 594.26 L0 594.94 Z" class="st1"/>
				</g>
			</g>
			<g id="group178-477" transform="translate(-1.70079,-6.3)" v:mID="178" v:groupContext="group">
				<title>工作表.178</title>
				<g id="shape179-478" v:mID="179" v:groupContext="shape">
					<title>工作表.179</title>
					<rect x="0" y="588.976" width="3.40157" height="6.3" class="st1"/>
				</g>
				<g id="shape180-481" v:mID="180" v:groupContext="shape" transform="translate(1.11615,-0.225)">
					<title>工作表.180</title>
					<path d="M0 594.94 L0.58 595.28 L1.17 594.94 L1.17 594.26 L0.58 593.93 L0 594.26 L0 594.94 Z" class="st1"/>
				</g>
				<g id="shape181-484" v:mID="181" v:groupContext="shape" transform="translate(1.11615,-4.725)">
					<title>工作表.181</title>
					<path d="M0 594.94 L0.58 595.28 L1.17 594.94 L1.17 594.26 L0.58 593.93 L0 594.26 L0 594.94 Z" class="st1"/>
				</g>
			</g>
			<g id="group182-487" transform="translate(66.6992,-6.3)" v:mID="182" v:groupContext="group">
				<title>工作表.182</title>
				<g id="shape183-488" v:mID="183" v:groupContext="shape">
					<title>工作表.183</title>
					<rect x="0" y="588.976" width="3.40157" height="6.3" class="st1"/>
				</g>
				<g id="shape184-491" v:mID="184" v:groupContext="shape" transform="translate(1.11615,-0.225)">
					<title>工作表.184</title>
					<path d="M0 594.94 L0.58 595.28 L1.17 594.94 L1.17 594.26 L0.58 593.93 L0 594.26 L0 594.94 Z" class="st1"/>
				</g>
				<g id="shape185-494" v:mID="185" v:groupContext="shape" transform="translate(1.11615,-4.725)">
					<title>工作表.185</title>
					<path d="M0 594.94 L0.58 595.28 L1.17 594.94 L1.17 594.26 L0.58 593.93 L0 594.26 L0 594.94 Z" class="st1"/>
				</g>
			</g>
			<g id="shape186-497" v:mID="186" v:groupContext="shape" transform="translate(5.24409,0)">
				<title>工作表.186</title>
				<path d="M30.73 591.02 L57.91 591.02 L57.91 584.5 L30.73 584.5 L30.73 591.02" class="st7"/>
				<path d="M36.04 590.57 L56.14 590.57 L56.14 584.96 L36.04 584.96 L36.04 590.57" class="st7"/>
				<path d="M37.81 589.54 L54.37 589.54 L54.37 585.28 L37.81 585.28 L37.81 589.54" class="st7"/>
				<path d="M0 593.15 L57.91 593.15" class="st7"/>
				<path d="M0 586.93 L0 582.68" class="st7"/>
				<path d="M57.91 586.93 L57.91 582.68" class="st7"/>
				<path d="M30.73 591.02 L36.04 590.57" class="st7"/>
				<path d="M30.73 584.5 L36.04 584.96" class="st7"/>
				<path d="M57.91 591.02 L56.14 590.57" class="st7"/>
				<path d="M57.91 584.5 L56.14 584.96" class="st7"/>
				<path d="M43.43 585.28 L43.43 584.96" class="st7"/>
				<path d="M50.38 585.28 L50.38 584.96" class="st7"/>
			</g>
			<g id="shape187-511" v:mID="187" v:groupContext="shape" transform="translate(5.24409,-4.25197)">
				<title>工作表.187</title>
				<path d="M0 595.28 L0.45 593.23 L28.5 593.23 L28.96 595.28 L28.96 593.01 L0 593.01 L0 595.28 ZM0 591.02 L0.45 588.98
							 L28.5 588.98 L28.96 591.02 L28.96 588.76 L0 588.76 L0 591.02 Z" class="st8"/>
				<path d="M0 595.28 L28.96 595.28 L28.96 593.01 L0 593.01 L0 595.28" class="st7"/>
				<path d="M0 595.28 L0.45 593.23 L28.5 593.23 L28.96 595.28 L28.96 593.01 L0 593.01 L0 595.28" class="st7"/>
				<path d="M0 591.02 L28.96 591.02 L28.96 588.76 L0 588.76 L0 591.02" class="st7"/>
				<path d="M0 591.02 L0.45 588.98 L28.5 588.98 L28.96 591.02 L28.96 588.76 L0 588.76 L0 591.02" class="st7"/>
			</g>
			<g id="shape188-517" v:mID="188" v:groupContext="shape" transform="translate(44.8299,-5.06516)">
				<title>工作表.188</title>
				<path d="M0 594.6 a0.675 0.675 -180 1 1 1.35 0 a0.675 0.675 -180 1 1 -1.35 0 ZM2.03 594.6 a0.675 0.675 -180 1 1 1.35
							 0 a0.675 0.675 -180 1 1 -1.35 0 ZM4.73 595.28 L6.07 595.28 L6.07 593.93 L4.73 593.93 a0.675 0.675 -180
							 1 0 9.76996E-015 1.35 ZM6.07 595.28 L7.42 595.28 a0.675 0.675 -180 0 0 0 -1.35 L6.07 593.93 L6.07 595.28
							 ZM9.45 595.28 L10.8 595.28 L10.8 593.93 L9.45 593.93 a0.675 0.675 -180 1 0 8.88178E-015 1.35 ZM10.8
							 595.28 L12.15 595.28 a0.675 0.675 -180 0 0 0 -1.35 L10.8 593.93 L10.8 595.28 Z" class="st9"/>
			</g>
			<g id="shape189-519" v:mID="189" v:groupContext="shape" transform="translate(5.24409,0)">
				<title>工作表.189</title>
			</g>
			<g id="shape190-521" v:mID="190" v:groupContext="shape" transform="translate(-32.8904,0)">
				<title>工作表.190</title>
				<v:textBlock v:margins="rect(0,0,0,0)" v:tabSpace="42.5197"/>
				<v:textRect cx="9.60522" cy="588.976" width="19.22" height="12.6"/>
				<text x="2.72" y="592.58" class="st2" v:langID="2052"><v:paragraph v:horizAlign="2"/><v:tabList/>2 U</text>			</g>
			<g id="shape167-523" v:mID="167" v:groupContext="groupContent">
				<v:textBlock v:margins="rect(0,0,0,0)" v:tabSpace="42.5197"/>
				<v:textRect cx="134.764" cy="590.698" width="118.33" height="14.4037"/>
				<rect v:rectContext="textBkgnd" x="76.9582" y="583.498" width="115.612" height="14.4001" class="st3"/>
				<text x="76.96" y="594.3" class="st2" v:langID="2052"><v:paragraph v:horizAlign="1"/><v:tabList/>VMAPP101:10.96.80.65</text>			</g>
		</g>
		<g id="group191-526" transform="translate(59.0457,-428.173)" v:mID="191" v:groupContext="group">
			<title>交换机</title>
			<desc>一车间SAN交换机Swi01</desc>
			<g id="shape192-527" v:mID="192" v:groupContext="shape" transform="translate(-1.70079,0)">
				<title>工作表.192</title>
				<rect x="0" y="588.976" width="71.8016" height="6.3" class="st1"/>
			</g>
			<g id="group193-530" transform="translate(-1.70079,0)" v:mID="193" v:groupContext="group">
				<title>工作表.193</title>
				<g id="shape194-531" v:mID="194" v:groupContext="shape" transform="translate(1.11615,-0.225)">
					<title>工作表.194</title>
					<path d="M0 594.94 L0.58 595.28 L1.17 594.94 L1.17 594.26 L0.58 593.93 L0 594.26 L0 594.94 Z" class="st1"/>
				</g>
				<g id="shape195-534" v:mID="195" v:groupContext="shape" transform="translate(1.11615,-4.725)">
					<title>工作表.195</title>
					<path d="M0 594.94 L0.58 595.28 L1.17 594.94 L1.17 594.26 L0.58 593.93 L0 594.26 L0 594.94 Z" class="st1"/>
				</g>
			</g>
			<g id="group196-537" transform="translate(66.6992,0)" v:mID="196" v:groupContext="group">
				<title>工作表.196</title>
				<g id="shape197-538" v:mID="197" v:groupContext="shape" transform="translate(1.11615,-0.225)">
					<title>工作表.197</title>
					<path d="M0 594.94 L0.58 595.28 L1.17 594.94 L1.17 594.26 L0.58 593.93 L0 594.26 L0 594.94 Z" class="st1"/>
				</g>
				<g id="shape198-541" v:mID="198" v:groupContext="shape" transform="translate(1.11615,-4.725)">
					<title>工作表.198</title>
					<path d="M0 594.94 L0.58 595.28 L1.17 594.94 L1.17 594.26 L0.58 593.93 L0 594.26 L0 594.94 Z" class="st1"/>
				</g>
			</g>
			<g id="group199-544" transform="translate(3.40157,-1.70079)" v:mID="199" v:groupContext="group">
				<title>工作表.199</title>
				<g id="shape200-545" v:mID="200" v:groupContext="shape">
					<title>工作表.200</title>
					<path d="M0 595.28 L12.76 595.28 L12.76 591.73 L0 591.73 L0 595.28 ZM14.88 595.28 L27.64 595.28 L27.64 591.73
								 L14.88 591.73 L14.88 595.28 ZM30.19 595.28 L32.31 595.28 L32.31 593.5 L30.19 593.5 L30.19 595.28
								 Z" class="st11"/>
				</g>
				<g id="shape201-547" v:mID="201" v:groupContext="shape" transform="translate(0.0765354,-0.0885827)">
					<title>工作表.201</title>
					<path d="M10.63 594.88 L11.12 594.88 L11.12 595.12 L11.37 595.12 L11.37 595.28 L11.86 595.28 L11.86 595.12 L12.11
								 595.12 L12.11 594.88 L12.6 594.88 L12.6 593.68 L10.63 593.68 L10.63 594.88 ZM8.5 594.88 L9 594.88
								 L9 595.12 L9.24 595.12 L9.24 595.28 L9.74 595.28 L9.74 595.12 L9.98 595.12 L9.98 594.88 L10.48 594.88
								 L10.48 593.68 L8.5 593.68 L8.5 594.88 ZM6.38 594.88 L6.87 594.88 L6.87 595.12 L7.12 595.12 L7.12
								 595.28 L7.61 595.28 L7.61 595.12 L7.86 595.12 L7.86 594.88 L8.35 594.88 L8.35 593.68 L6.38 593.68
								 L6.38 594.88 ZM4.25 594.88 L4.75 594.88 L4.75 595.12 L4.99 595.12 L4.99 595.28 L5.49 595.28 L5.49
								 595.12 L5.73 595.12 L5.73 594.88 L6.22 594.88 L6.22 593.68 L4.25 593.68 L4.25 594.88 ZM2.13 594.88
								 L2.62 594.88 L2.62 595.12 L2.87 595.12 L2.87 595.28 L3.36 595.28 L3.36 595.12 L3.61 595.12 L3.61
								 594.88 L4.1 594.88 L4.1 593.68 L2.13 593.68 L2.13 594.88 ZM0 594.88 L0.49 594.88 L0.49 595.12 L0.74
								 595.12 L0.74 595.28 L1.23 595.28 L1.23 595.12 L1.48 595.12 L1.48 594.88 L1.97 594.88 L1.97 593.68
								 L0 593.68 L0 594.88 ZM14.88 594.88 L15.38 594.88 L15.38 595.12 L15.62 595.12 L15.62 595.28 L16.11
								 595.28 L16.11 595.12 L16.36 595.12 L16.36 594.88 L16.85 594.88 L16.85 593.68 L14.88 593.68 L14.88
								 594.88 ZM17.01 594.88 L17.5 594.88 L17.5 595.12 L17.75 595.12 L17.75 595.28 L18.24 595.28 L18.24
								 595.12 L18.49 595.12 L18.49 594.88 L18.98 594.88 L18.98 593.68 L17.01 593.68 L17.01 594.88 ZM19.13
								 594.88 L19.63 594.88 L19.63 595.12 L19.87 595.12 L19.87 595.28 L20.37 595.28 L20.37 595.12 L20.61
								 595.12 L20.61 594.88 L21.11 594.88 L21.11 593.68 L19.13 593.68 L19.13 594.88 ZM21.26 594.88 L21.75
								 594.88 L21.75 595.12 L22 595.12 L22 595.28 L22.49 595.28 L22.49 595.12 L22.74 595.12 L22.74 594.88
								 L23.23 594.88 L23.23 593.68 L21.26 593.68 L21.26 594.88 ZM23.39 594.88 L23.88 594.88 L23.88 595.12
								 L24.13 595.12 L24.13 595.28 L24.62 595.28 L24.62 595.12 L24.87 595.12 L24.87 594.88 L25.36 594.88
								 L25.36 593.68 L23.39 593.68 L23.39 594.88 ZM25.51 594.88 L26.01 594.88 L26.01 595.12 L26.25 595.12
								 L26.25 595.28 L26.74 595.28 L26.74 595.12 L26.99 595.12 L26.99 594.88 L27.48 594.88 L27.48 593.68
								 L25.51 593.68 L25.51 594.88 ZM30.19 594.88 L30.68 594.88 L30.68 595.12 L30.93 595.12 L30.93 595.28
								 L31.42 595.28 L31.42 595.12 L31.67 595.12 L31.67 594.88 L32.16 594.88 L32.16 593.68 L30.19 593.68
								 L30.19 594.88 Z" class="st12"/>
				</g>
				<g id="shape202-549" v:mID="202" v:groupContext="shape" transform="translate(0.637795,-1.21801)">
					<title>工作表.202</title>
					<path d="M10.63 595.28 L11.48 595.28 L11.48 594.83 L10.63 594.83 L10.63 595.28 ZM8.5 595.28 L9.35 595.28 L9.35
								 594.83 L8.5 594.83 L8.5 595.28 ZM6.38 595.28 L7.23 595.28 L7.23 594.83 L6.38 594.83 L6.38 595.28
								 ZM4.25 595.28 L5.1 595.28 L5.1 594.83 L4.25 594.83 L4.25 595.28 ZM2.13 595.28 L2.98 595.28 L2.98
								 594.83 L2.13 594.83 L2.13 595.28 ZM0 595.28 L0.85 595.28 L0.85 594.83 L0 594.83 L0 595.28 ZM14.88
								 595.28 L15.73 595.28 L15.73 594.83 L14.88 594.83 L14.88 595.28 ZM17.01 595.28 L17.86 595.28 L17.86
								 594.83 L17.01 594.83 L17.01 595.28 ZM19.13 595.28 L19.98 595.28 L19.98 594.83 L19.13 594.83 L19.13
								 595.28 ZM21.26 595.28 L22.11 595.28 L22.11 594.83 L21.26 594.83 L21.26 595.28 ZM23.39 595.28 L24.24
								 595.28 L24.24 594.83 L23.39 594.83 L23.39 595.28 ZM25.51 595.28 L26.36 595.28 L26.36 594.83 L25.51
								 594.83 L25.51 595.28 ZM30.19 595.28 L31.04 595.28 L31.04 594.83 L30.19 594.83 L30.19 595.28 Z"
							class="st13"/>
				</g>
				<g id="shape203-551" v:mID="203" v:groupContext="shape" transform="translate(0.0765354,1187.1) scale(1,-1)">
					<title>工作表.203</title>
					<path d="M0 594.88 L0.49 594.88 L0.49 595.12 L0.74 595.12 L0.74 595.28 L1.23 595.28 L1.23 595.12 L1.48 595.12
								 L1.48 594.88 L1.97 594.88 L1.97 593.68 L0 593.68 L0 594.88 ZM2.13 594.88 L2.62 594.88 L2.62 595.12
								 L2.87 595.12 L2.87 595.28 L3.36 595.28 L3.36 595.12 L3.61 595.12 L3.61 594.88 L4.1 594.88 L4.1 593.68
								 L2.13 593.68 L2.13 594.88 ZM4.25 594.88 L4.75 594.88 L4.75 595.12 L4.99 595.12 L4.99 595.28 L5.49
								 595.28 L5.49 595.12 L5.73 595.12 L5.73 594.88 L6.22 594.88 L6.22 593.68 L4.25 593.68 L4.25 594.88
								 ZM6.38 594.88 L6.87 594.88 L6.87 595.12 L7.12 595.12 L7.12 595.28 L7.61 595.28 L7.61 595.12 L7.86
								 595.12 L7.86 594.88 L8.35 594.88 L8.35 593.68 L6.38 593.68 L6.38 594.88 ZM8.5 594.88 L9 594.88 L9
								 595.12 L9.24 595.12 L9.24 595.28 L9.74 595.28 L9.74 595.12 L9.98 595.12 L9.98 594.88 L10.48 594.88
								 L10.48 593.68 L8.5 593.68 L8.5 594.88 ZM10.63 594.88 L11.12 594.88 L11.12 595.12 L11.37 595.12 L11.37
								 595.28 L11.86 595.28 L11.86 595.12 L12.11 595.12 L12.11 594.88 L12.6 594.88 L12.6 593.68 L10.63
								 593.68 L10.63 594.88 ZM14.88 594.88 L15.38 594.88 L15.38 595.12 L15.62 595.12 L15.62 595.28 L16.11
								 595.28 L16.11 595.12 L16.36 595.12 L16.36 594.88 L16.85 594.88 L16.85 593.68 L14.88 593.68 L14.88
								 594.88 ZM17.01 594.88 L17.5 594.88 L17.5 595.12 L17.75 595.12 L17.75 595.28 L18.24 595.28 L18.24
								 595.12 L18.49 595.12 L18.49 594.88 L18.98 594.88 L18.98 593.68 L17.01 593.68 L17.01 594.88 ZM19.13
								 594.88 L19.63 594.88 L19.63 595.12 L19.87 595.12 L19.87 595.28 L20.37 595.28 L20.37 595.12 L20.61
								 595.12 L20.61 594.88 L21.11 594.88 L21.11 593.68 L19.13 593.68 L19.13 594.88 ZM21.26 594.88 L21.75
								 594.88 L21.75 595.12 L22 595.12 L22 595.28 L22.49 595.28 L22.49 595.12 L22.74 595.12 L22.74 594.88
								 L23.23 594.88 L23.23 593.68 L21.26 593.68 L21.26 594.88 ZM23.39 594.88 L23.88 594.88 L23.88 595.12
								 L24.13 595.12 L24.13 595.28 L24.62 595.28 L24.62 595.12 L24.87 595.12 L24.87 594.88 L25.36 594.88
								 L25.36 593.68 L23.39 593.68 L23.39 594.88 ZM25.51 594.88 L26.01 594.88 L26.01 595.12 L26.25 595.12
								 L26.25 595.28 L26.74 595.28 L26.74 595.12 L26.99 595.12 L26.99 594.88 L27.48 594.88 L27.48 593.68
								 L25.51 593.68 L25.51 594.88 Z" class="st12"/>
				</g>
				<g id="shape204-553" v:mID="204" v:groupContext="shape" transform="translate(0.637795,-1.99311)">
					<title>工作表.204</title>
					<path d="M10.63 595.28 L11.48 595.28 L11.48 594.83 L10.63 594.83 L10.63 595.28 ZM8.5 595.28 L9.35 595.28 L9.35
								 594.83 L8.5 594.83 L8.5 595.28 ZM6.38 595.28 L7.23 595.28 L7.23 594.83 L6.38 594.83 L6.38 595.28
								 ZM4.25 595.28 L5.1 595.28 L5.1 594.83 L4.25 594.83 L4.25 595.28 ZM2.13 595.28 L2.98 595.28 L2.98
								 594.83 L2.13 594.83 L2.13 595.28 ZM0 595.28 L0.85 595.28 L0.85 594.83 L0 594.83 L0 595.28 ZM14.88
								 595.28 L15.73 595.28 L15.73 594.83 L14.88 594.83 L14.88 595.28 ZM17.01 595.28 L17.86 595.28 L17.86
								 594.83 L17.01 594.83 L17.01 595.28 ZM19.13 595.28 L19.98 595.28 L19.98 594.83 L19.13 594.83 L19.13
								 595.28 ZM21.26 595.28 L22.11 595.28 L22.11 594.83 L21.26 594.83 L21.26 595.28 ZM23.39 595.28 L24.24
								 595.28 L24.24 594.83 L23.39 594.83 L23.39 595.28 ZM25.51 595.28 L26.36 595.28 L26.36 594.83 L25.51
								 594.83 L25.51 595.28 Z" class="st13"/>
				</g>
			</g>
			<g id="shape205-555" v:mID="205" v:groupContext="shape" transform="translate(35.7165,-0.340157)">
				<title>工作表.205</title>
				<path d="M27.52 590.49 a0.531496 0.531496 -180 1 0 -1.06299 0 a0.531496 0.531496 -180 1 0 1.06299 0 ZM27.52 591.91
							 a0.531496 0.531496 -180 1 0 -1.06299 0 a0.531496 0.531496 -180 1 0 1.06299 0 ZM27.52 593.33 a0.531496
							 0.531496 -180 1 0 -1.06299 0 a0.531496 0.531496 -180 1 0 1.06299 0 ZM27.52 594.74 a0.531496 0.531496
							 -180 1 0 -1.06299 0 a0.531496 0.531496 -180 1 0 1.06299 0 ZM25.36 590.49 a0.531496 0.531496 -180 1 0
							 -1.06299 0 a0.531496 0.531496 -180 1 0 1.06299 0 ZM25.36 591.91 a0.531496 0.531496 -180 1 0 -1.06299
							 0 a0.531496 0.531496 -180 1 0 1.06299 0 ZM25.36 593.33 a0.531496 0.531496 -180 1 0 -1.06299 0 a0.531496
							 0.531496 -180 1 0 1.06299 0 ZM25.36 594.74 a0.531496 0.531496 -180 1 0 -1.06299 0 a0.531496 0.531496
							 -180 1 0 1.06299 0 ZM23.2 590.49 a0.531496 0.531496 -180 1 0 -1.06299 0 a0.531496 0.531496 -180 1 0
							 1.06299 0 ZM23.2 591.91 a0.531496 0.531496 -180 1 0 -1.06299 0 a0.531496 0.531496 -180 1 0 1.06299 0
							 ZM23.2 593.33 a0.531496 0.531496 -180 1 0 -1.06299 0 a0.531496 0.531496 -180 1 0 1.06299 0 ZM23.2 594.74
							 a0.531496 0.531496 -180 1 0 -1.06299 0 a0.531496 0.531496 -180 1 0 1.06299 0 ZM21.04 590.49 a0.531496
							 0.531496 -180 1 0 -1.06299 0 a0.531496 0.531496 -180 1 0 1.06299 0 ZM21.04 591.91 a0.531496 0.531496
							 -180 1 0 -1.06299 0 a0.531496 0.531496 -180 1 0 1.06299 0 ZM21.04 593.33 a0.531496 0.531496 -180 1 0
							 -1.06299 0 a0.531496 0.531496 -180 1 0 1.06299 0 ZM21.04 594.74 a0.531496 0.531496 -180 1 0 -1.06299
							 0 a0.531496 0.531496 -180 1 0 1.06299 0 ZM18.88 590.49 a0.531496 0.531496 -180 1 0 -1.06299 0 a0.531496
							 0.531496 -180 1 0 1.06299 0 ZM18.88 591.91 a0.531496 0.531496 -180 1 0 -1.06299 0 a0.531496 0.531496
							 -180 1 0 1.06299 0 ZM18.88 593.33 a0.531496 0.531496 -180 1 0 -1.06299 0 a0.531496 0.531496 -180 1 0
							 1.06299 0 ZM18.88 594.74 a0.531496 0.531496 -180 1 0 -1.06299 0 a0.531496 0.531496 -180 1 0 1.06299
							 0 ZM16.72 590.49 a0.531496 0.531496 -180 1 0 -1.06299 0 a0.531496 0.531496 -180 1 0 1.06299 0 ZM16.72
							 591.91 a0.531496 0.531496 -180 1 0 -1.06299 0 a0.531496 0.531496 -180 1 0 1.06299 0 ZM16.72 593.33 a0.531496
							 0.531496 -180 1 0 -1.06299 0 a0.531496 0.531496 -180 1 0 1.06299 0 ZM16.72 594.74 a0.531496 0.531496
							 -180 1 0 -1.06299 0 a0.531496 0.531496 -180 1 0 1.06299 0 ZM12.4 590.49 a0.531496 0.531496 -180 1 0
							 -1.06299 0 a0.531496 0.531496 -180 1 0 1.06299 0 ZM12.4 591.91 a0.531496 0.531496 -180 1 0 -1.06299
							 0 a0.531496 0.531496 -180 1 0 1.06299 0 ZM12.4 593.33 a0.531496 0.531496 -180 1 0 -1.06299 0 a0.531496
							 0.531496 -180 1 0 1.06299 0 ZM12.4 594.74 a0.531496 0.531496 -180 1 0 -1.06299 0 a0.531496 0.531496
							 -180 1 0 1.06299 0 ZM10.25 590.49 a0.531496 0.531496 -180 1 0 -1.06299 0 a0.531496 0.531496 -180 1 0
							 1.06299 0 ZM10.25 591.91 a0.531496 0.531496 -180 1 0 -1.06299 0 a0.531496 0.531496 -180 1 0 1.06299
							 0 ZM10.25 593.33 a0.531496 0.531496 -180 1 0 -1.06299 0 a0.531496 0.531496 -180 1 0 1.06299 0 ZM10.25
							 594.74 a0.531496 0.531496 -180 1 0 -1.06299 0 a0.531496 0.531496 -180 1 0 1.06299 0 ZM8.09 590.49 a0.531496
							 0.531496 -180 1 0 -1.06299 0 a0.531496 0.531496 -180 1 0 1.06299 0 ZM8.09 591.91 a0.531496 0.531496
							 -180 1 0 -1.06299 0 a0.531496 0.531496 -180 1 0 1.06299 0 ZM8.09 593.33 a0.531496 0.531496 -180 1 0
							 -1.06299 0 a0.531496 0.531496 -180 1 0 1.06299 0 ZM8.09 594.74 a0.531496 0.531496 -180 1 0 -1.06299
							 0 a0.531496 0.531496 -180 1 0 1.06299 0 ZM5.93 590.49 a0.531496 0.531496 -180 1 0 -1.06299 0 a0.531496
							 0.531496 -180 1 0 1.06299 0 ZM5.93 591.91 a0.531496 0.531496 -180 1 0 -1.06299 0 a0.531496 0.531496
							 -180 1 0 1.06299 0 ZM5.93 593.33 a0.531496 0.531496 -180 1 0 -1.06299 0 a0.531496 0.531496 -180 1 0
							 1.06299 0 ZM5.93 594.74 a0.531496 0.531496 -180 1 0 -1.06299 0 a0.531496 0.531496 -180 1 0 1.06299 0
							 ZM3.77 590.49 a0.531496 0.531496 -180 1 0 -1.06299 0 a0.531496 0.531496 -180 1 0 1.06299 0 ZM3.77 591.91
							 a0.531496 0.531496 -180 1 0 -1.06299 0 a0.531496 0.531496 -180 1 0 1.06299 0 ZM3.77 593.33 a0.531496
							 0.531496 -180 1 0 -1.06299 0 a0.531496 0.531496 -180 1 0 1.06299 0 ZM3.77 594.74 a0.531496 0.531496
							 -180 1 0 -1.06299 0 a0.531496 0.531496 -180 1 0 1.06299 0 ZM1.61 590.49 a0.531496 0.531496 -180 1 0
							 -1.06299 0 a0.531496 0.531496 -180 1 0 1.06299 0 ZM1.61 591.91 a0.531496 0.531496 -180 1 0 -1.06299
							 0 a0.531496 0.531496 -180 1 0 1.06299 0 ZM1.61 593.33 a0.531496 0.531496 -180 1 0 -1.06299 0 a0.531496
							 0.531496 -180 1 0 1.06299 0 ZM1.61 594.74 a0.531496 0.531496 -180 1 0 -1.06299 0 a0.531496 0.531496
							 -180 1 0 1.06299 0 Z" class="st14"/>
			</g>
			<g id="shape206-559" v:mID="206" v:groupContext="shape" transform="translate(-32.8904,0)">
				<title>工作表.206</title>
				<v:textBlock v:margins="rect(0,0,0,0)" v:tabSpace="42.5197"/>
				<v:textRect cx="9.60522" cy="592.126" width="19.22" height="6.3"/>
				<text x="2.72" y="595.73" class="st2" v:langID="2052"><v:paragraph v:horizAlign="2"/><v:tabList/>1 U</text>			</g>
			<g id="shape191-561" v:mID="191" v:groupContext="groupContent">
				<v:textBlock v:margins="rect(0,0,0,0)" v:tabSpace="42.5197"/>
				<v:textRect cx="143.205" cy="592.126" width="135.94" height="15.9788"/>
				<rect v:rectContext="textBkgnd" x="76.5982" y="584.138" width="133.214" height="15.9752" class="st3"/>
				<text x="76.6" y="596.12" class="st4" v:langID="2052"><v:paragraph v:horizAlign="1"/><v:tabList/>一车间<tspan
							class="st5">SAN</tspan>交换机：<tspan class="st5">Swi</tspan><tspan class="st5">01</tspan></text>			</g>
		</g>
		<g id="group207-567" transform="translate(59.0457,-478.573)" v:mID="207" v:groupContext="group">
			<title>交换机.207</title>
			<desc>中式车间SAN交换机Swi03</desc>
			<g id="shape208-568" v:mID="208" v:groupContext="shape" transform="translate(-1.70079,0)">
				<title>工作表.208</title>
				<rect x="0" y="588.976" width="71.8016" height="6.3" class="st1"/>
			</g>
			<g id="group209-571" transform="translate(-1.70079,0)" v:mID="209" v:groupContext="group">
				<title>工作表.209</title>
				<g id="shape210-572" v:mID="210" v:groupContext="shape" transform="translate(1.11615,-0.225)">
					<title>工作表.210</title>
					<path d="M0 594.94 L0.58 595.28 L1.17 594.94 L1.17 594.26 L0.58 593.93 L0 594.26 L0 594.94 Z" class="st1"/>
				</g>
				<g id="shape211-575" v:mID="211" v:groupContext="shape" transform="translate(1.11615,-4.725)">
					<title>工作表.211</title>
					<path d="M0 594.94 L0.58 595.28 L1.17 594.94 L1.17 594.26 L0.58 593.93 L0 594.26 L0 594.94 Z" class="st1"/>
				</g>
			</g>
			<g id="group212-578" transform="translate(66.6992,0)" v:mID="212" v:groupContext="group">
				<title>工作表.212</title>
				<g id="shape213-579" v:mID="213" v:groupContext="shape" transform="translate(1.11615,-0.225)">
					<title>工作表.213</title>
					<path d="M0 594.94 L0.58 595.28 L1.17 594.94 L1.17 594.26 L0.58 593.93 L0 594.26 L0 594.94 Z" class="st1"/>
				</g>
				<g id="shape214-582" v:mID="214" v:groupContext="shape" transform="translate(1.11615,-4.725)">
					<title>工作表.214</title>
					<path d="M0 594.94 L0.58 595.28 L1.17 594.94 L1.17 594.26 L0.58 593.93 L0 594.26 L0 594.94 Z" class="st1"/>
				</g>
			</g>
			<g id="group215-585" transform="translate(3.40157,-1.70079)" v:mID="215" v:groupContext="group">
				<title>工作表.215</title>
				<g id="shape216-586" v:mID="216" v:groupContext="shape">
					<title>工作表.216</title>
					<path d="M0 595.28 L12.76 595.28 L12.76 591.73 L0 591.73 L0 595.28 ZM14.88 595.28 L27.64 595.28 L27.64 591.73
								 L14.88 591.73 L14.88 595.28 ZM30.19 595.28 L32.31 595.28 L32.31 593.5 L30.19 593.5 L30.19 595.28
								 Z" class="st11"/>
				</g>
				<g id="shape217-588" v:mID="217" v:groupContext="shape" transform="translate(0.0765354,-0.0885827)">
					<title>工作表.217</title>
					<path d="M10.63 594.88 L11.12 594.88 L11.12 595.12 L11.37 595.12 L11.37 595.28 L11.86 595.28 L11.86 595.12 L12.11
								 595.12 L12.11 594.88 L12.6 594.88 L12.6 593.68 L10.63 593.68 L10.63 594.88 ZM8.5 594.88 L9 594.88
								 L9 595.12 L9.24 595.12 L9.24 595.28 L9.74 595.28 L9.74 595.12 L9.98 595.12 L9.98 594.88 L10.48 594.88
								 L10.48 593.68 L8.5 593.68 L8.5 594.88 ZM6.38 594.88 L6.87 594.88 L6.87 595.12 L7.12 595.12 L7.12
								 595.28 L7.61 595.28 L7.61 595.12 L7.86 595.12 L7.86 594.88 L8.35 594.88 L8.35 593.68 L6.38 593.68
								 L6.38 594.88 ZM4.25 594.88 L4.75 594.88 L4.75 595.12 L4.99 595.12 L4.99 595.28 L5.49 595.28 L5.49
								 595.12 L5.73 595.12 L5.73 594.88 L6.22 594.88 L6.22 593.68 L4.25 593.68 L4.25 594.88 ZM2.13 594.88
								 L2.62 594.88 L2.62 595.12 L2.87 595.12 L2.87 595.28 L3.36 595.28 L3.36 595.12 L3.61 595.12 L3.61
								 594.88 L4.1 594.88 L4.1 593.68 L2.13 593.68 L2.13 594.88 ZM0 594.88 L0.49 594.88 L0.49 595.12 L0.74
								 595.12 L0.74 595.28 L1.23 595.28 L1.23 595.12 L1.48 595.12 L1.48 594.88 L1.97 594.88 L1.97 593.68
								 L0 593.68 L0 594.88 ZM14.88 594.88 L15.38 594.88 L15.38 595.12 L15.62 595.12 L15.62 595.28 L16.11
								 595.28 L16.11 595.12 L16.36 595.12 L16.36 594.88 L16.85 594.88 L16.85 593.68 L14.88 593.68 L14.88
								 594.88 ZM17.01 594.88 L17.5 594.88 L17.5 595.12 L17.75 595.12 L17.75 595.28 L18.24 595.28 L18.24
								 595.12 L18.49 595.12 L18.49 594.88 L18.98 594.88 L18.98 593.68 L17.01 593.68 L17.01 594.88 ZM19.13
								 594.88 L19.63 594.88 L19.63 595.12 L19.87 595.12 L19.87 595.28 L20.37 595.28 L20.37 595.12 L20.61
								 595.12 L20.61 594.88 L21.11 594.88 L21.11 593.68 L19.13 593.68 L19.13 594.88 ZM21.26 594.88 L21.75
								 594.88 L21.75 595.12 L22 595.12 L22 595.28 L22.49 595.28 L22.49 595.12 L22.74 595.12 L22.74 594.88
								 L23.23 594.88 L23.23 593.68 L21.26 593.68 L21.26 594.88 ZM23.39 594.88 L23.88 594.88 L23.88 595.12
								 L24.13 595.12 L24.13 595.28 L24.62 595.28 L24.62 595.12 L24.87 595.12 L24.87 594.88 L25.36 594.88
								 L25.36 593.68 L23.39 593.68 L23.39 594.88 ZM25.51 594.88 L26.01 594.88 L26.01 595.12 L26.25 595.12
								 L26.25 595.28 L26.74 595.28 L26.74 595.12 L26.99 595.12 L26.99 594.88 L27.48 594.88 L27.48 593.68
								 L25.51 593.68 L25.51 594.88 ZM30.19 594.88 L30.68 594.88 L30.68 595.12 L30.93 595.12 L30.93 595.28
								 L31.42 595.28 L31.42 595.12 L31.67 595.12 L31.67 594.88 L32.16 594.88 L32.16 593.68 L30.19 593.68
								 L30.19 594.88 Z" class="st12"/>
				</g>
				<g id="shape218-590" v:mID="218" v:groupContext="shape" transform="translate(0.637795,-1.21801)">
					<title>工作表.218</title>
					<path d="M10.63 595.28 L11.48 595.28 L11.48 594.83 L10.63 594.83 L10.63 595.28 ZM8.5 595.28 L9.35 595.28 L9.35
								 594.83 L8.5 594.83 L8.5 595.28 ZM6.38 595.28 L7.23 595.28 L7.23 594.83 L6.38 594.83 L6.38 595.28
								 ZM4.25 595.28 L5.1 595.28 L5.1 594.83 L4.25 594.83 L4.25 595.28 ZM2.13 595.28 L2.98 595.28 L2.98
								 594.83 L2.13 594.83 L2.13 595.28 ZM0 595.28 L0.85 595.28 L0.85 594.83 L0 594.83 L0 595.28 ZM14.88
								 595.28 L15.73 595.28 L15.73 594.83 L14.88 594.83 L14.88 595.28 ZM17.01 595.28 L17.86 595.28 L17.86
								 594.83 L17.01 594.83 L17.01 595.28 ZM19.13 595.28 L19.98 595.28 L19.98 594.83 L19.13 594.83 L19.13
								 595.28 ZM21.26 595.28 L22.11 595.28 L22.11 594.83 L21.26 594.83 L21.26 595.28 ZM23.39 595.28 L24.24
								 595.28 L24.24 594.83 L23.39 594.83 L23.39 595.28 ZM25.51 595.28 L26.36 595.28 L26.36 594.83 L25.51
								 594.83 L25.51 595.28 ZM30.19 595.28 L31.04 595.28 L31.04 594.83 L30.19 594.83 L30.19 595.28 Z"
							class="st13"/>
				</g>
				<g id="shape219-592" v:mID="219" v:groupContext="shape" transform="translate(0.0765354,1187.1) scale(1,-1)">
					<title>工作表.219</title>
					<path d="M0 594.88 L0.49 594.88 L0.49 595.12 L0.74 595.12 L0.74 595.28 L1.23 595.28 L1.23 595.12 L1.48 595.12
								 L1.48 594.88 L1.97 594.88 L1.97 593.68 L0 593.68 L0 594.88 ZM2.13 594.88 L2.62 594.88 L2.62 595.12
								 L2.87 595.12 L2.87 595.28 L3.36 595.28 L3.36 595.12 L3.61 595.12 L3.61 594.88 L4.1 594.88 L4.1 593.68
								 L2.13 593.68 L2.13 594.88 ZM4.25 594.88 L4.75 594.88 L4.75 595.12 L4.99 595.12 L4.99 595.28 L5.49
								 595.28 L5.49 595.12 L5.73 595.12 L5.73 594.88 L6.22 594.88 L6.22 593.68 L4.25 593.68 L4.25 594.88
								 ZM6.38 594.88 L6.87 594.88 L6.87 595.12 L7.12 595.12 L7.12 595.28 L7.61 595.28 L7.61 595.12 L7.86
								 595.12 L7.86 594.88 L8.35 594.88 L8.35 593.68 L6.38 593.68 L6.38 594.88 ZM8.5 594.88 L9 594.88 L9
								 595.12 L9.24 595.12 L9.24 595.28 L9.74 595.28 L9.74 595.12 L9.98 595.12 L9.98 594.88 L10.48 594.88
								 L10.48 593.68 L8.5 593.68 L8.5 594.88 ZM10.63 594.88 L11.12 594.88 L11.12 595.12 L11.37 595.12 L11.37
								 595.28 L11.86 595.28 L11.86 595.12 L12.11 595.12 L12.11 594.88 L12.6 594.88 L12.6 593.68 L10.63
								 593.68 L10.63 594.88 ZM14.88 594.88 L15.38 594.88 L15.38 595.12 L15.62 595.12 L15.62 595.28 L16.11
								 595.28 L16.11 595.12 L16.36 595.12 L16.36 594.88 L16.85 594.88 L16.85 593.68 L14.88 593.68 L14.88
								 594.88 ZM17.01 594.88 L17.5 594.88 L17.5 595.12 L17.75 595.12 L17.75 595.28 L18.24 595.28 L18.24
								 595.12 L18.49 595.12 L18.49 594.88 L18.98 594.88 L18.98 593.68 L17.01 593.68 L17.01 594.88 ZM19.13
								 594.88 L19.63 594.88 L19.63 595.12 L19.87 595.12 L19.87 595.28 L20.37 595.28 L20.37 595.12 L20.61
								 595.12 L20.61 594.88 L21.11 594.88 L21.11 593.68 L19.13 593.68 L19.13 594.88 ZM21.26 594.88 L21.75
								 594.88 L21.75 595.12 L22 595.12 L22 595.28 L22.49 595.28 L22.49 595.12 L22.74 595.12 L22.74 594.88
								 L23.23 594.88 L23.23 593.68 L21.26 593.68 L21.26 594.88 ZM23.39 594.88 L23.88 594.88 L23.88 595.12
								 L24.13 595.12 L24.13 595.28 L24.62 595.28 L24.62 595.12 L24.87 595.12 L24.87 594.88 L25.36 594.88
								 L25.36 593.68 L23.39 593.68 L23.39 594.88 ZM25.51 594.88 L26.01 594.88 L26.01 595.12 L26.25 595.12
								 L26.25 595.28 L26.74 595.28 L26.74 595.12 L26.99 595.12 L26.99 594.88 L27.48 594.88 L27.48 593.68
								 L25.51 593.68 L25.51 594.88 Z" class="st12"/>
				</g>
				<g id="shape220-594" v:mID="220" v:groupContext="shape" transform="translate(0.637795,-1.99311)">
					<title>工作表.220</title>
					<path d="M10.63 595.28 L11.48 595.28 L11.48 594.83 L10.63 594.83 L10.63 595.28 ZM8.5 595.28 L9.35 595.28 L9.35
								 594.83 L8.5 594.83 L8.5 595.28 ZM6.38 595.28 L7.23 595.28 L7.23 594.83 L6.38 594.83 L6.38 595.28
								 ZM4.25 595.28 L5.1 595.28 L5.1 594.83 L4.25 594.83 L4.25 595.28 ZM2.13 595.28 L2.98 595.28 L2.98
								 594.83 L2.13 594.83 L2.13 595.28 ZM0 595.28 L0.85 595.28 L0.85 594.83 L0 594.83 L0 595.28 ZM14.88
								 595.28 L15.73 595.28 L15.73 594.83 L14.88 594.83 L14.88 595.28 ZM17.01 595.28 L17.86 595.28 L17.86
								 594.83 L17.01 594.83 L17.01 595.28 ZM19.13 595.28 L19.98 595.28 L19.98 594.83 L19.13 594.83 L19.13
								 595.28 ZM21.26 595.28 L22.11 595.28 L22.11 594.83 L21.26 594.83 L21.26 595.28 ZM23.39 595.28 L24.24
								 595.28 L24.24 594.83 L23.39 594.83 L23.39 595.28 ZM25.51 595.28 L26.36 595.28 L26.36 594.83 L25.51
								 594.83 L25.51 595.28 Z" class="st13"/>
				</g>
			</g>
			<g id="shape221-596" v:mID="221" v:groupContext="shape" transform="translate(35.7165,-0.340157)">
				<title>工作表.221</title>
				<path d="M27.52 590.49 a0.531496 0.531496 -180 1 0 -1.06299 0 a0.531496 0.531496 -180 1 0 1.06299 0 ZM27.52 591.91
							 a0.531496 0.531496 -180 1 0 -1.06299 0 a0.531496 0.531496 -180 1 0 1.06299 0 ZM27.52 593.33 a0.531496
							 0.531496 -180 1 0 -1.06299 0 a0.531496 0.531496 -180 1 0 1.06299 0 ZM27.52 594.74 a0.531496 0.531496
							 -180 1 0 -1.06299 0 a0.531496 0.531496 -180 1 0 1.06299 0 ZM25.36 590.49 a0.531496 0.531496 -180 1 0
							 -1.06299 0 a0.531496 0.531496 -180 1 0 1.06299 0 ZM25.36 591.91 a0.531496 0.531496 -180 1 0 -1.06299
							 0 a0.531496 0.531496 -180 1 0 1.06299 0 ZM25.36 593.33 a0.531496 0.531496 -180 1 0 -1.06299 0 a0.531496
							 0.531496 -180 1 0 1.06299 0 ZM25.36 594.74 a0.531496 0.531496 -180 1 0 -1.06299 0 a0.531496 0.531496
							 -180 1 0 1.06299 0 ZM23.2 590.49 a0.531496 0.531496 -180 1 0 -1.06299 0 a0.531496 0.531496 -180 1 0
							 1.06299 0 ZM23.2 591.91 a0.531496 0.531496 -180 1 0 -1.06299 0 a0.531496 0.531496 -180 1 0 1.06299 0
							 ZM23.2 593.33 a0.531496 0.531496 -180 1 0 -1.06299 0 a0.531496 0.531496 -180 1 0 1.06299 0 ZM23.2 594.74
							 a0.531496 0.531496 -180 1 0 -1.06299 0 a0.531496 0.531496 -180 1 0 1.06299 0 ZM21.04 590.49 a0.531496
							 0.531496 -180 1 0 -1.06299 0 a0.531496 0.531496 -180 1 0 1.06299 0 ZM21.04 591.91 a0.531496 0.531496
							 -180 1 0 -1.06299 0 a0.531496 0.531496 -180 1 0 1.06299 0 ZM21.04 593.33 a0.531496 0.531496 -180 1 0
							 -1.06299 0 a0.531496 0.531496 -180 1 0 1.06299 0 ZM21.04 594.74 a0.531496 0.531496 -180 1 0 -1.06299
							 0 a0.531496 0.531496 -180 1 0 1.06299 0 ZM18.88 590.49 a0.531496 0.531496 -180 1 0 -1.06299 0 a0.531496
							 0.531496 -180 1 0 1.06299 0 ZM18.88 591.91 a0.531496 0.531496 -180 1 0 -1.06299 0 a0.531496 0.531496
							 -180 1 0 1.06299 0 ZM18.88 593.33 a0.531496 0.531496 -180 1 0 -1.06299 0 a0.531496 0.531496 -180 1 0
							 1.06299 0 ZM18.88 594.74 a0.531496 0.531496 -180 1 0 -1.06299 0 a0.531496 0.531496 -180 1 0 1.06299
							 0 ZM16.72 590.49 a0.531496 0.531496 -180 1 0 -1.06299 0 a0.531496 0.531496 -180 1 0 1.06299 0 ZM16.72
							 591.91 a0.531496 0.531496 -180 1 0 -1.06299 0 a0.531496 0.531496 -180 1 0 1.06299 0 ZM16.72 593.33 a0.531496
							 0.531496 -180 1 0 -1.06299 0 a0.531496 0.531496 -180 1 0 1.06299 0 ZM16.72 594.74 a0.531496 0.531496
							 -180 1 0 -1.06299 0 a0.531496 0.531496 -180 1 0 1.06299 0 ZM12.4 590.49 a0.531496 0.531496 -180 1 0
							 -1.06299 0 a0.531496 0.531496 -180 1 0 1.06299 0 ZM12.4 591.91 a0.531496 0.531496 -180 1 0 -1.06299
							 0 a0.531496 0.531496 -180 1 0 1.06299 0 ZM12.4 593.33 a0.531496 0.531496 -180 1 0 -1.06299 0 a0.531496
							 0.531496 -180 1 0 1.06299 0 ZM12.4 594.74 a0.531496 0.531496 -180 1 0 -1.06299 0 a0.531496 0.531496
							 -180 1 0 1.06299 0 ZM10.25 590.49 a0.531496 0.531496 -180 1 0 -1.06299 0 a0.531496 0.531496 -180 1 0
							 1.06299 0 ZM10.25 591.91 a0.531496 0.531496 -180 1 0 -1.06299 0 a0.531496 0.531496 -180 1 0 1.06299
							 0 ZM10.25 593.33 a0.531496 0.531496 -180 1 0 -1.06299 0 a0.531496 0.531496 -180 1 0 1.06299 0 ZM10.25
							 594.74 a0.531496 0.531496 -180 1 0 -1.06299 0 a0.531496 0.531496 -180 1 0 1.06299 0 ZM8.09 590.49 a0.531496
							 0.531496 -180 1 0 -1.06299 0 a0.531496 0.531496 -180 1 0 1.06299 0 ZM8.09 591.91 a0.531496 0.531496
							 -180 1 0 -1.06299 0 a0.531496 0.531496 -180 1 0 1.06299 0 ZM8.09 593.33 a0.531496 0.531496 -180 1 0
							 -1.06299 0 a0.531496 0.531496 -180 1 0 1.06299 0 ZM8.09 594.74 a0.531496 0.531496 -180 1 0 -1.06299
							 0 a0.531496 0.531496 -180 1 0 1.06299 0 ZM5.93 590.49 a0.531496 0.531496 -180 1 0 -1.06299 0 a0.531496
							 0.531496 -180 1 0 1.06299 0 ZM5.93 591.91 a0.531496 0.531496 -180 1 0 -1.06299 0 a0.531496 0.531496
							 -180 1 0 1.06299 0 ZM5.93 593.33 a0.531496 0.531496 -180 1 0 -1.06299 0 a0.531496 0.531496 -180 1 0
							 1.06299 0 ZM5.93 594.74 a0.531496 0.531496 -180 1 0 -1.06299 0 a0.531496 0.531496 -180 1 0 1.06299 0
							 ZM3.77 590.49 a0.531496 0.531496 -180 1 0 -1.06299 0 a0.531496 0.531496 -180 1 0 1.06299 0 ZM3.77 591.91
							 a0.531496 0.531496 -180 1 0 -1.06299 0 a0.531496 0.531496 -180 1 0 1.06299 0 ZM3.77 593.33 a0.531496
							 0.531496 -180 1 0 -1.06299 0 a0.531496 0.531496 -180 1 0 1.06299 0 ZM3.77 594.74 a0.531496 0.531496
							 -180 1 0 -1.06299 0 a0.531496 0.531496 -180 1 0 1.06299 0 ZM1.61 590.49 a0.531496 0.531496 -180 1 0
							 -1.06299 0 a0.531496 0.531496 -180 1 0 1.06299 0 ZM1.61 591.91 a0.531496 0.531496 -180 1 0 -1.06299
							 0 a0.531496 0.531496 -180 1 0 1.06299 0 ZM1.61 593.33 a0.531496 0.531496 -180 1 0 -1.06299 0 a0.531496
							 0.531496 -180 1 0 1.06299 0 ZM1.61 594.74 a0.531496 0.531496 -180 1 0 -1.06299 0 a0.531496 0.531496
							 -180 1 0 1.06299 0 Z" class="st14"/>
			</g>
			<g id="shape222-599" v:mID="222" v:groupContext="shape" transform="translate(-32.8904,0)">
				<title>工作表.222</title>
				<v:textBlock v:margins="rect(0,0,0,0)" v:tabSpace="42.5197"/>
				<v:textRect cx="9.60522" cy="592.126" width="19.22" height="6.3"/>
				<text x="2.72" y="595.73" class="st2" v:langID="2052"><v:paragraph v:horizAlign="2"/><v:tabList/>1 U</text>			</g>
			<g id="shape207-601" v:mID="207" v:groupContext="groupContent">
				<v:textBlock v:margins="rect(0,0,0,0)" v:tabSpace="42.5197"/>
				<v:textRect cx="124.55" cy="592.126" width="98.63" height="10.6536"/>
				<rect v:rectContext="textBkgnd" x="76.1461" y="586.801" width="96.8082" height="10.6501" class="st3"/>
				<text x="76.15" y="594.79" class="st15" v:langID="2052"><v:paragraph v:horizAlign="1"/><v:tabList/>中式车间<tspan
							class="st5">SAN</tspan>交换机：<tspan class="st5">Swi</tspan><tspan class="st5">03</tspan></text>			</g>
		</g>
		<g id="group223-607" transform="translate(59.0457,-497.473)" v:mID="223" v:groupContext="group">
			<title>独立文件存储.223</title>
			<desc>IBM DS3512磁盘柜无标签</desc>
			<g id="shape224-608" v:mID="224" v:groupContext="shape" transform="translate(-1.70079,0)">
				<title>工作表.224</title>
				<rect x="0" y="582.676" width="71.8016" height="12.6" class="st1"/>
			</g>
			<g id="group225-611" transform="translate(-1.70079,0)" v:mID="225" v:groupContext="group">
				<title>工作表.225</title>
				<g id="shape226-612" v:mID="226" v:groupContext="shape" transform="translate(1.11615,-0.225)">
					<title>工作表.226</title>
					<path d="M0 594.94 L0.58 595.28 L1.17 594.94 L1.17 594.26 L0.58 593.93 L0 594.26 L0 594.94 Z" class="st1"/>
				</g>
				<g id="shape227-615" v:mID="227" v:groupContext="shape" transform="translate(1.11615,-11.025)">
					<title>工作表.227</title>
					<path d="M0 594.94 L0.58 595.28 L1.17 594.94 L1.17 594.26 L0.58 593.93 L0 594.26 L0 594.94 Z" class="st1"/>
				</g>
			</g>
			<g id="group228-618" transform="translate(66.6992,0)" v:mID="228" v:groupContext="group">
				<title>工作表.228</title>
				<g id="shape229-619" v:mID="229" v:groupContext="shape" transform="translate(1.11615,-0.225)">
					<title>工作表.229</title>
					<path d="M0 594.94 L0.58 595.28 L1.17 594.94 L1.17 594.26 L0.58 593.93 L0 594.26 L0 594.94 Z" class="st1"/>
				</g>
				<g id="shape230-622" v:mID="230" v:groupContext="shape" transform="translate(1.11615,-11.025)">
					<title>工作表.230</title>
					<path d="M0 594.94 L0.58 595.28 L1.17 594.94 L1.17 594.26 L0.58 593.93 L0 594.26 L0 594.94 Z" class="st1"/>
				</g>
			</g>
			<g id="shape231-625" v:mID="231" v:groupContext="shape" transform="translate(-32.8904,0)">
				<title>工作表.231</title>
				<v:textBlock v:margins="rect(0,0,0,0)" v:tabSpace="42.5197"/>
				<v:textRect cx="9.60522" cy="588.976" width="19.22" height="12.6"/>
				<text x="2.72" y="592.58" class="st2" v:langID="2052"><v:paragraph v:horizAlign="2"/><v:tabList/>2 U</text>			</g>
			<g id="shape223-627" v:mID="223" v:groupContext="groupContent">
				<v:textBlock v:margins="rect(0,0,0,0)" v:tabSpace="42.5197"/>
				<v:textRect cx="148.473" cy="588.976" width="146.47" height="15.9788"/>
				<rect v:rectContext="textBkgnd" x="76.5982" y="580.988" width="143.749" height="15.9752" class="st3"/>
				<text x="76.6" y="592.97" class="st2" v:langID="2052"><v:paragraph v:horizAlign="1"/><v:tabList/>IBM DS3512<tspan
							class="st10">磁盘柜</tspan><tspan class="st10">，</tspan><tspan class="st10">无标签</tspan></text>			</g>
		</g>
		<g id="group232-633" transform="translate(59.0457,-528.973)" v:mID="232" v:groupContext="group">
			<title>服务器.232</title>
			<desc>VCENTER3:10.96.98.235</desc>
			<g id="shape233-634" v:mID="233" v:groupContext="shape" transform="translate(1.70079,0)">
				<title>工作表.233</title>
				<rect x="0" y="582.676" width="64.9984" height="12.6" class="st1"/>
			</g>
			<g id="shape234-637" v:mID="234" v:groupContext="shape" transform="translate(46.8,-6.85573)">
				<title>工作表.234</title>
				<rect x="0" y="592.99" width="9" height="2.286" class="st6"/>
			</g>
			<g id="group235-639" transform="translate(-1.70079,0)" v:mID="235" v:groupContext="group">
				<title>工作表.235</title>
				<g id="shape236-640" v:mID="236" v:groupContext="shape">
					<title>工作表.236</title>
					<rect x="0" y="588.976" width="3.40157" height="6.3" class="st1"/>
				</g>
				<g id="shape237-643" v:mID="237" v:groupContext="shape" transform="translate(1.11615,-0.225)">
					<title>工作表.237</title>
					<path d="M0 594.94 L0.58 595.28 L1.17 594.94 L1.17 594.26 L0.58 593.93 L0 594.26 L0 594.94 Z" class="st1"/>
				</g>
				<g id="shape238-646" v:mID="238" v:groupContext="shape" transform="translate(1.11615,-4.725)">
					<title>工作表.238</title>
					<path d="M0 594.94 L0.58 595.28 L1.17 594.94 L1.17 594.26 L0.58 593.93 L0 594.26 L0 594.94 Z" class="st1"/>
				</g>
			</g>
			<g id="group239-649" transform="translate(66.6992,0)" v:mID="239" v:groupContext="group">
				<title>工作表.239</title>
				<g id="shape240-650" v:mID="240" v:groupContext="shape">
					<title>工作表.240</title>
					<rect x="0" y="588.976" width="3.40157" height="6.3" class="st1"/>
				</g>
				<g id="shape241-653" v:mID="241" v:groupContext="shape" transform="translate(1.11615,-0.225)">
					<title>工作表.241</title>
					<path d="M0 594.94 L0.58 595.28 L1.17 594.94 L1.17 594.26 L0.58 593.93 L0 594.26 L0 594.94 Z" class="st1"/>
				</g>
				<g id="shape242-656" v:mID="242" v:groupContext="shape" transform="translate(1.11615,-4.725)">
					<title>工作表.242</title>
					<path d="M0 594.94 L0.58 595.28 L1.17 594.94 L1.17 594.26 L0.58 593.93 L0 594.26 L0 594.94 Z" class="st1"/>
				</g>
			</g>
			<g id="group243-659" transform="translate(-1.70079,-6.3)" v:mID="243" v:groupContext="group">
				<title>工作表.243</title>
				<g id="shape244-660" v:mID="244" v:groupContext="shape">
					<title>工作表.244</title>
					<rect x="0" y="588.976" width="3.40157" height="6.3" class="st1"/>
				</g>
				<g id="shape245-663" v:mID="245" v:groupContext="shape" transform="translate(1.11615,-0.225)">
					<title>工作表.245</title>
					<path d="M0 594.94 L0.58 595.28 L1.17 594.94 L1.17 594.26 L0.58 593.93 L0 594.26 L0 594.94 Z" class="st1"/>
				</g>
				<g id="shape246-666" v:mID="246" v:groupContext="shape" transform="translate(1.11615,-4.725)">
					<title>工作表.246</title>
					<path d="M0 594.94 L0.58 595.28 L1.17 594.94 L1.17 594.26 L0.58 593.93 L0 594.26 L0 594.94 Z" class="st1"/>
				</g>
			</g>
			<g id="group247-669" transform="translate(66.6992,-6.3)" v:mID="247" v:groupContext="group">
				<title>工作表.247</title>
				<g id="shape248-670" v:mID="248" v:groupContext="shape">
					<title>工作表.248</title>
					<rect x="0" y="588.976" width="3.40157" height="6.3" class="st1"/>
				</g>
				<g id="shape249-673" v:mID="249" v:groupContext="shape" transform="translate(1.11615,-0.225)">
					<title>工作表.249</title>
					<path d="M0 594.94 L0.58 595.28 L1.17 594.94 L1.17 594.26 L0.58 593.93 L0 594.26 L0 594.94 Z" class="st1"/>
				</g>
				<g id="shape250-676" v:mID="250" v:groupContext="shape" transform="translate(1.11615,-4.725)">
					<title>工作表.250</title>
					<path d="M0 594.94 L0.58 595.28 L1.17 594.94 L1.17 594.26 L0.58 593.93 L0 594.26 L0 594.94 Z" class="st1"/>
				</g>
			</g>
			<g id="shape251-679" v:mID="251" v:groupContext="shape" transform="translate(5.24409,0)">
				<title>工作表.251</title>
				<path d="M30.73 591.02 L57.91 591.02 L57.91 584.5 L30.73 584.5 L30.73 591.02" class="st7"/>
				<path d="M36.04 590.57 L56.14 590.57 L56.14 584.96 L36.04 584.96 L36.04 590.57" class="st7"/>
				<path d="M37.81 589.54 L54.37 589.54 L54.37 585.28 L37.81 585.28 L37.81 589.54" class="st7"/>
				<path d="M0 593.15 L57.91 593.15" class="st7"/>
				<path d="M0 586.93 L0 582.68" class="st7"/>
				<path d="M57.91 586.93 L57.91 582.68" class="st7"/>
				<path d="M30.73 591.02 L36.04 590.57" class="st7"/>
				<path d="M30.73 584.5 L36.04 584.96" class="st7"/>
				<path d="M57.91 591.02 L56.14 590.57" class="st7"/>
				<path d="M57.91 584.5 L56.14 584.96" class="st7"/>
				<path d="M43.43 585.28 L43.43 584.96" class="st7"/>
				<path d="M50.38 585.28 L50.38 584.96" class="st7"/>
			</g>
			<g id="shape252-693" v:mID="252" v:groupContext="shape" transform="translate(5.24409,-4.25197)">
				<title>工作表.252</title>
				<path d="M0 595.28 L0.45 593.23 L28.5 593.23 L28.96 595.28 L28.96 593.01 L0 593.01 L0 595.28 ZM0 591.02 L0.45 588.98
							 L28.5 588.98 L28.96 591.02 L28.96 588.76 L0 588.76 L0 591.02 Z" class="st8"/>
				<path d="M0 595.28 L28.96 595.28 L28.96 593.01 L0 593.01 L0 595.28" class="st7"/>
				<path d="M0 595.28 L0.45 593.23 L28.5 593.23 L28.96 595.28 L28.96 593.01 L0 593.01 L0 595.28" class="st7"/>
				<path d="M0 591.02 L28.96 591.02 L28.96 588.76 L0 588.76 L0 591.02" class="st7"/>
				<path d="M0 591.02 L0.45 588.98 L28.5 588.98 L28.96 591.02 L28.96 588.76 L0 588.76 L0 591.02" class="st7"/>
			</g>
			<g id="shape253-699" v:mID="253" v:groupContext="shape" transform="translate(44.8299,-5.06516)">
				<title>工作表.253</title>
				<path d="M0 594.6 a0.675 0.675 -180 1 1 1.35 0 a0.675 0.675 -180 1 1 -1.35 0 ZM2.03 594.6 a0.675 0.675 -180 1 1 1.35
							 0 a0.675 0.675 -180 1 1 -1.35 0 ZM4.73 595.28 L6.07 595.28 L6.07 593.93 L4.73 593.93 a0.675 0.675 -180
							 1 0 9.76996E-015 1.35 ZM6.07 595.28 L7.42 595.28 a0.675 0.675 -180 0 0 0 -1.35 L6.07 593.93 L6.07 595.28
							 ZM9.45 595.28 L10.8 595.28 L10.8 593.93 L9.45 593.93 a0.675 0.675 -180 1 0 8.88178E-015 1.35 ZM10.8
							 595.28 L12.15 595.28 a0.675 0.675 -180 0 0 0 -1.35 L10.8 593.93 L10.8 595.28 Z" class="st9"/>
			</g>
			<g id="shape254-701" v:mID="254" v:groupContext="shape" transform="translate(5.24409,0)">
				<title>工作表.254</title>
			</g>
			<g id="shape255-703" v:mID="255" v:groupContext="shape" transform="translate(-32.8904,0)">
				<title>工作表.255</title>
				<v:textBlock v:margins="rect(0,0,0,0)" v:tabSpace="42.5197"/>
				<v:textRect cx="9.60522" cy="588.976" width="19.22" height="12.6"/>
				<text x="2.72" y="592.58" class="st2" v:langID="2052"><v:paragraph v:horizAlign="2"/><v:tabList/>2 U</text>			</g>
			<g id="shape232-705" v:mID="232" v:groupContext="groupContent">
				<v:textBlock v:margins="rect(0,0,0,0)" v:tabSpace="42.5197"/>
				<v:textRect cx="135.675" cy="588.976" width="120.88" height="14.4037"/>
				<rect v:rectContext="textBkgnd" x="76.5982" y="581.776" width="118.154" height="14.4001" class="st3"/>
				<text x="76.6" y="592.58" class="st2" v:langID="2052"><v:paragraph v:horizAlign="1"/><v:tabList/>VCENTER3:10.96.98.235</text>			</g>
		</g>
	</g>
</svg>
