<?xml version="1.0" encoding="UTF-8" standalone="no"?>
<!DOCTYPE svg PUBLIC "-//W3C//DTD SVG 1.1//EN" "http://www.w3.org/Graphics/SVG/1.1/DTD/svg11.dtd">
<!-- 由 Microsoft Visio, SVG Export 生成 A17.svg Page-1 -->
<svg xmlns="http://www.w3.org/2000/svg" xmlns:xlink="http://www.w3.org/1999/xlink" xmlns:ev="http://www.w3.org/2001/xml-events"
		xmlns:v="http://schemas.microsoft.com/visio/2003/SVGExtensions/" width="11.6929in" height="8.26772in"
		viewBox="0 0 841.89 595.276" xml:space="preserve" color-interpolation-filters="sRGB" class="st9">
	<v:documentProperties v:langID="2052" v:metric="true" v:viewMarkup="false">
	</v:documentProperties>
	<style type="text/css">
	<![CDATA[
		.st1 {fill:url(#grad7-5);stroke:#000000;stroke-linecap:butt;stroke-width:1.25}
		.st2 {fill:#000000;font-family:Calibri;font-size:1.00001em}
		.st3 {fill:#339966;stroke:#000000;stroke-linecap:butt;stroke-width:1.25}
		.st4 {stroke:#000000;stroke-linecap:butt;stroke-width:1.25}
		.st5 {fill:#000000}
		.st6 {fill:#9a9a9a;stroke:#000000;stroke-linecap:butt;stroke-width:1.25}
		.st7 {fill:#ffffff;stroke:none;stroke-linecap:butt;stroke-width:7.2}
		.st8 {font-family:黑体;font-size:1em}
		.st9 {fill:none;fill-rule:evenodd;font-size:12px;overflow:visible;stroke-linecap:square;stroke-miterlimit:3}
	]]>
	</style>
	<defs id="Patterns_And_Gradients">
		<radialGradient id="grad7-5" cx="0" cy="0" r="1.4">
			<stop offset="0" stop-color="#ffffff" stop-opacity="1"/>
			<stop offset="1" stop-color="#c0c0c0" stop-opacity="1"/>
		</radialGradient>
	</defs>
	<g v:mID="0" v:index="1" v:groupContext="foregroundPage">
		<title>页-1</title>
		<v:pageProperties v:drawingScale="39.3701" v:pageScale="1.9685" v:drawingUnits="6" v:shadowOffsetX="8.50394"
				v:shadowOffsetY="-8.50394"/>
		<g id="group7-1" transform="translate(44.7591,-283.465)" v:mID="7" v:groupContext="group">
			<title>机柜</title>
			<g id="shape8-2" v:mID="8" v:groupContext="shape" transform="translate(3.54331,0)">
				<title>工作表.8</title>
				<rect x="0" y="584.646" width="75.7134" height="10.6299" class="st1"/>
			</g>
			<g id="shape9-6" v:mID="9" v:groupContext="shape" transform="translate(3.54331,-275.23)">
				<title>工作表.9</title>
				<rect x="0" y="589.606" width="75.7134" height="5.66929" class="st1"/>
			</g>
			<g id="shape10-9" v:mID="10" v:groupContext="shape" transform="translate(3.54331,-10.6299)">
				<title>工作表.10</title>
				<path d="M70.26 595.28 L75.71 595.28 L75.71 330.68 L70.26 330.68 L70.26 595.28 ZM0 595.28 L5.46 595.28 L5.46 330.68
							 L0 330.68 L0 595.28 Z" class="st1"/>
			</g>
			<g id="shape11-12" v:mID="11" v:groupContext="shape">
				<title>工作表.11</title>
				<path d="M79.26 595.28 L82.8 595.28 L82.8 314.38 L79.26 314.38 L79.26 595.28 ZM0 595.28 L3.54 595.28 L3.54 314.38
							 L0 314.38 L0 595.28 Z" class="st1"/>
			</g>
			<g id="shape12-15" v:mID="12" v:groupContext="shape" transform="translate(0,-280.899)">
				<title>工作表.12</title>
				<v:textBlock v:margins="rect(0,0,0,0)" v:tabSpace="42.5197"/>
				<v:textRect cx="41.4" cy="588.074" width="82.81" height="14.4037"/>
				<text x="30.11" y="591.67" class="st2" v:langID="2052"><v:paragraph v:horizAlign="1"/><v:tabList/>42 U</text>			</g>
		</g>
		<g id="group19-17" transform="translate(51.9591,-350.794)" v:mID="19" v:groupContext="group">
			<title>服务器</title>
			<desc>IBM x3850 X5无标签</desc>
			<g id="shape20-18" v:mID="20" v:groupContext="shape" transform="translate(1.70079,0)">
				<title>工作表.20</title>
				<rect x="0" y="570.076" width="64.9984" height="25.2" class="st1"/>
			</g>
			<g id="shape21-21" v:mID="21" v:groupContext="shape" transform="translate(46.8,-13.4463)">
				<title>工作表.21</title>
				<rect x="0" y="592.99" width="9" height="2.286" class="st3"/>
			</g>
			<g id="group22-23" transform="translate(-1.70079,0)" v:mID="22" v:groupContext="group">
				<title>工作表.22</title>
				<g id="shape23-24" v:mID="23" v:groupContext="shape">
					<title>工作表.23</title>
					<rect x="0" y="588.976" width="3.40157" height="6.3" class="st1"/>
				</g>
				<g id="shape24-27" v:mID="24" v:groupContext="shape" transform="translate(1.11615,-0.225)">
					<title>工作表.24</title>
					<path d="M0 594.94 L0.58 595.28 L1.17 594.94 L1.17 594.26 L0.58 593.93 L0 594.26 L0 594.94 Z" class="st1"/>
				</g>
				<g id="shape25-30" v:mID="25" v:groupContext="shape" transform="translate(1.11615,-4.725)">
					<title>工作表.25</title>
					<path d="M0 594.94 L0.58 595.28 L1.17 594.94 L1.17 594.26 L0.58 593.93 L0 594.26 L0 594.94 Z" class="st1"/>
				</g>
			</g>
			<g id="group26-33" transform="translate(66.6992,0)" v:mID="26" v:groupContext="group">
				<title>工作表.26</title>
				<g id="shape27-34" v:mID="27" v:groupContext="shape">
					<title>工作表.27</title>
					<rect x="0" y="588.976" width="3.40157" height="6.3" class="st1"/>
				</g>
				<g id="shape28-37" v:mID="28" v:groupContext="shape" transform="translate(1.11615,-0.225)">
					<title>工作表.28</title>
					<path d="M0 594.94 L0.58 595.28 L1.17 594.94 L1.17 594.26 L0.58 593.93 L0 594.26 L0 594.94 Z" class="st1"/>
				</g>
				<g id="shape29-40" v:mID="29" v:groupContext="shape" transform="translate(1.11615,-4.725)">
					<title>工作表.29</title>
					<path d="M0 594.94 L0.58 595.28 L1.17 594.94 L1.17 594.26 L0.58 593.93 L0 594.26 L0 594.94 Z" class="st1"/>
				</g>
			</g>
			<g id="group30-43" transform="translate(-1.70079,-18.9)" v:mID="30" v:groupContext="group">
				<title>工作表.30</title>
				<g id="shape31-44" v:mID="31" v:groupContext="shape">
					<title>工作表.31</title>
					<rect x="0" y="588.976" width="3.40157" height="6.3" class="st1"/>
				</g>
				<g id="shape32-47" v:mID="32" v:groupContext="shape" transform="translate(1.11615,-0.225)">
					<title>工作表.32</title>
					<path d="M0 594.94 L0.58 595.28 L1.17 594.94 L1.17 594.26 L0.58 593.93 L0 594.26 L0 594.94 Z" class="st1"/>
				</g>
				<g id="shape33-50" v:mID="33" v:groupContext="shape" transform="translate(1.11615,-4.725)">
					<title>工作表.33</title>
					<path d="M0 594.94 L0.58 595.28 L1.17 594.94 L1.17 594.26 L0.58 593.93 L0 594.26 L0 594.94 Z" class="st1"/>
				</g>
			</g>
			<g id="group34-53" transform="translate(66.6992,-18.9)" v:mID="34" v:groupContext="group">
				<title>工作表.34</title>
				<g id="shape35-54" v:mID="35" v:groupContext="shape">
					<title>工作表.35</title>
					<rect x="0" y="588.976" width="3.40157" height="6.3" class="st1"/>
				</g>
				<g id="shape36-57" v:mID="36" v:groupContext="shape" transform="translate(1.11615,-0.225)">
					<title>工作表.36</title>
					<path d="M0 594.94 L0.58 595.28 L1.17 594.94 L1.17 594.26 L0.58 593.93 L0 594.26 L0 594.94 Z" class="st1"/>
				</g>
				<g id="shape37-60" v:mID="37" v:groupContext="shape" transform="translate(1.11615,-4.725)">
					<title>工作表.37</title>
					<path d="M0 594.94 L0.58 595.28 L1.17 594.94 L1.17 594.26 L0.58 593.93 L0 594.26 L0 594.94 Z" class="st1"/>
				</g>
			</g>
			<g id="shape38-63" v:mID="38" v:groupContext="shape" transform="translate(5.24409,0)">
				<title>工作表.38</title>
				<path d="M30.73 586.77 L57.91 586.77 L57.91 576 L30.73 576 L30.73 586.77" class="st4"/>
				<path d="M36.04 584.96 L56.14 584.96 L56.14 577.81 L36.04 577.81 L36.04 584.96" class="st4"/>
				<path d="M37.81 583.37 L54.37 583.37 L54.37 578.69 L37.81 578.69 L37.81 583.37" class="st4"/>
				<path d="M0 593.15 L57.91 593.15" class="st4"/>
				<path d="M0 574.33 L0 570.08" class="st4"/>
				<path d="M57.91 574.33 L57.91 570.08" class="st4"/>
				<path d="M30.73 586.77 L36.04 584.96" class="st4"/>
				<path d="M30.73 576 L36.04 577.81" class="st4"/>
				<path d="M57.91 586.77 L56.14 584.96" class="st4"/>
				<path d="M57.91 576 L56.14 577.81" class="st4"/>
				<path d="M43.43 578.69 L43.43 577.81" class="st4"/>
				<path d="M50.38 578.69 L50.38 577.81" class="st4"/>
			</g>
			<g id="shape39-77" v:mID="39" v:groupContext="shape" transform="translate(5.24409,-8.50394)">
				<title>工作表.39</title>
				<path d="M0 595.28 L0.45 593.23 L28.5 593.23 L28.96 595.28 L28.96 593.01 L0 593.01 L0 595.28 ZM0 591.02 L0.45 588.98
							 L28.5 588.98 L28.96 591.02 L28.96 588.76 L0 588.76 L0 591.02 ZM0 586.77 L0.45 584.73 L28.5 584.73 L28.96
							 586.77 L28.96 584.5 L0 584.5 L0 586.77 Z" class="st5"/>
				<path d="M0 595.28 L28.96 595.28 L28.96 593.01 L0 593.01 L0 595.28" class="st4"/>
				<path d="M0 595.28 L0.45 593.23 L28.5 593.23 L28.96 595.28 L28.96 593.01 L0 593.01 L0 595.28" class="st4"/>
				<path d="M0 591.02 L28.96 591.02 L28.96 588.76 L0 588.76 L0 591.02" class="st4"/>
				<path d="M0 591.02 L0.45 588.98 L28.5 588.98 L28.96 591.02 L28.96 588.76 L0 588.76 L0 591.02" class="st4"/>
				<path d="M0 586.77 L28.96 586.77 L28.96 584.5 L0 584.5 L0 586.77" class="st4"/>
				<path d="M0 586.77 L0.45 584.73 L28.5 584.73 L28.96 586.77 L28.96 584.5 L0 584.5 L0 586.77" class="st4"/>
			</g>
			<g id="shape40-85" v:mID="40" v:groupContext="shape" transform="translate(44.8299,-11.2305)">
				<title>工作表.40</title>
				<path d="M0 594.6 a0.675 0.675 -180 1 1 1.35 0 a0.675 0.675 -180 1 1 -1.35 0 ZM2.03 594.6 a0.675 0.675 -180 1 1 1.35
							 0 a0.675 0.675 -180 1 1 -1.35 0 ZM4.73 595.28 L6.07 595.28 L6.07 593.93 L4.73 593.93 a0.675 0.675 -180
							 1 0 9.76996E-015 1.35 ZM6.07 595.28 L7.42 595.28 a0.675 0.675 -180 0 0 0 -1.35 L6.07 593.93 L6.07 595.28
							 ZM9.45 595.28 L10.8 595.28 L10.8 593.93 L9.45 593.93 a0.675 0.675 -180 1 0 8.88178E-015 1.35 ZM10.8
							 595.28 L12.15 595.28 a0.675 0.675 -180 0 0 0 -1.35 L10.8 593.93 L10.8 595.28 Z" class="st6"/>
			</g>
			<g id="shape41-87" v:mID="41" v:groupContext="shape" transform="translate(5.24409,0)">
				<title>工作表.41</title>
				<path d="M0 591.02 L0.45 588.98 L57.46 588.98 L57.91 591.02 L57.91 588.76 L0 588.76 L0 591.02 ZM0 574.02 L0.45 571.97
							 L57.46 571.97 L57.91 574.02 L57.91 571.75 L0 571.75 L0 574.02 Z" class="st5"/>
				<path d="M0 591.02 L57.91 591.02 L57.91 588.76 L0 588.76 L0 591.02" class="st4"/>
				<path d="M0 591.02 L0.45 588.98 L57.46 588.98 L57.91 591.02 L57.91 588.76 L0 588.76 L0 591.02" class="st4"/>
				<path d="M0 574.02 L57.91 574.02 L57.91 571.75 L0 571.75 L0 574.02" class="st4"/>
				<path d="M0 574.02 L0.45 571.97 L57.46 571.97 L57.91 574.02 L57.91 571.75 L0 571.75 L0 574.02" class="st4"/>
			</g>
			<g id="shape42-93" v:mID="42" v:groupContext="shape" transform="translate(-32.8904,0)">
				<title>工作表.42</title>
				<v:textBlock v:margins="rect(0,0,0,0)" v:tabSpace="42.5197"/>
				<v:textRect cx="9.60522" cy="582.676" width="19.22" height="25.2"/>
				<text x="2.72" y="586.28" class="st2" v:langID="2052"><v:paragraph v:horizAlign="2"/><v:tabList/>4 U</text>			</g>
			<g id="shape19-95" v:mID="19" v:groupContext="groupContent">
				<v:textBlock v:margins="rect(0,0,0,0)" v:tabSpace="42.5197"/>
				<v:textRect cx="134.135" cy="582.676" width="117.79" height="15.9788"/>
				<rect v:rectContext="textBkgnd" x="76.5982" y="574.688" width="115.073" height="15.9752" class="st7"/>
				<text x="76.6" y="586.67" class="st2" v:langID="2052"><v:paragraph v:horizAlign="1"/><v:tabList/>IBM x3850 X5<tspan
							class="st8">，</tspan><tspan class="st8">无标签</tspan></text>			</g>
		</g>
		<g id="group43-100" transform="translate(51.9591,-382.294)" v:mID="43" v:groupContext="group">
			<title>服务器.43</title>
			<desc>IBM x3850 X5无标签</desc>
			<g id="shape44-101" v:mID="44" v:groupContext="shape" transform="translate(1.70079,0)">
				<title>工作表.44</title>
				<rect x="0" y="570.076" width="64.9984" height="25.2" class="st1"/>
			</g>
			<g id="shape45-104" v:mID="45" v:groupContext="shape" transform="translate(46.8,-13.4463)">
				<title>工作表.45</title>
				<rect x="0" y="592.99" width="9" height="2.286" class="st3"/>
			</g>
			<g id="group46-106" transform="translate(-1.70079,0)" v:mID="46" v:groupContext="group">
				<title>工作表.46</title>
				<g id="shape47-107" v:mID="47" v:groupContext="shape">
					<title>工作表.47</title>
					<rect x="0" y="588.976" width="3.40157" height="6.3" class="st1"/>
				</g>
				<g id="shape48-110" v:mID="48" v:groupContext="shape" transform="translate(1.11615,-0.225)">
					<title>工作表.48</title>
					<path d="M0 594.94 L0.58 595.28 L1.17 594.94 L1.17 594.26 L0.58 593.93 L0 594.26 L0 594.94 Z" class="st1"/>
				</g>
				<g id="shape49-113" v:mID="49" v:groupContext="shape" transform="translate(1.11615,-4.725)">
					<title>工作表.49</title>
					<path d="M0 594.94 L0.58 595.28 L1.17 594.94 L1.17 594.26 L0.58 593.93 L0 594.26 L0 594.94 Z" class="st1"/>
				</g>
			</g>
			<g id="group50-116" transform="translate(66.6992,0)" v:mID="50" v:groupContext="group">
				<title>工作表.50</title>
				<g id="shape51-117" v:mID="51" v:groupContext="shape">
					<title>工作表.51</title>
					<rect x="0" y="588.976" width="3.40157" height="6.3" class="st1"/>
				</g>
				<g id="shape52-120" v:mID="52" v:groupContext="shape" transform="translate(1.11615,-0.225)">
					<title>工作表.52</title>
					<path d="M0 594.94 L0.58 595.28 L1.17 594.94 L1.17 594.26 L0.58 593.93 L0 594.26 L0 594.94 Z" class="st1"/>
				</g>
				<g id="shape53-123" v:mID="53" v:groupContext="shape" transform="translate(1.11615,-4.725)">
					<title>工作表.53</title>
					<path d="M0 594.94 L0.58 595.28 L1.17 594.94 L1.17 594.26 L0.58 593.93 L0 594.26 L0 594.94 Z" class="st1"/>
				</g>
			</g>
			<g id="group54-126" transform="translate(-1.70079,-18.9)" v:mID="54" v:groupContext="group">
				<title>工作表.54</title>
				<g id="shape55-127" v:mID="55" v:groupContext="shape">
					<title>工作表.55</title>
					<rect x="0" y="588.976" width="3.40157" height="6.3" class="st1"/>
				</g>
				<g id="shape56-130" v:mID="56" v:groupContext="shape" transform="translate(1.11615,-0.225)">
					<title>工作表.56</title>
					<path d="M0 594.94 L0.58 595.28 L1.17 594.94 L1.17 594.26 L0.58 593.93 L0 594.26 L0 594.94 Z" class="st1"/>
				</g>
				<g id="shape57-133" v:mID="57" v:groupContext="shape" transform="translate(1.11615,-4.725)">
					<title>工作表.57</title>
					<path d="M0 594.94 L0.58 595.28 L1.17 594.94 L1.17 594.26 L0.58 593.93 L0 594.26 L0 594.94 Z" class="st1"/>
				</g>
			</g>
			<g id="group58-136" transform="translate(66.6992,-18.9)" v:mID="58" v:groupContext="group">
				<title>工作表.58</title>
				<g id="shape59-137" v:mID="59" v:groupContext="shape">
					<title>工作表.59</title>
					<rect x="0" y="588.976" width="3.40157" height="6.3" class="st1"/>
				</g>
				<g id="shape60-140" v:mID="60" v:groupContext="shape" transform="translate(1.11615,-0.225)">
					<title>工作表.60</title>
					<path d="M0 594.94 L0.58 595.28 L1.17 594.94 L1.17 594.26 L0.58 593.93 L0 594.26 L0 594.94 Z" class="st1"/>
				</g>
				<g id="shape61-143" v:mID="61" v:groupContext="shape" transform="translate(1.11615,-4.725)">
					<title>工作表.61</title>
					<path d="M0 594.94 L0.58 595.28 L1.17 594.94 L1.17 594.26 L0.58 593.93 L0 594.26 L0 594.94 Z" class="st1"/>
				</g>
			</g>
			<g id="shape62-146" v:mID="62" v:groupContext="shape" transform="translate(5.24409,0)">
				<title>工作表.62</title>
				<path d="M30.73 586.77 L57.91 586.77 L57.91 576 L30.73 576 L30.73 586.77" class="st4"/>
				<path d="M36.04 584.96 L56.14 584.96 L56.14 577.81 L36.04 577.81 L36.04 584.96" class="st4"/>
				<path d="M37.81 583.37 L54.37 583.37 L54.37 578.69 L37.81 578.69 L37.81 583.37" class="st4"/>
				<path d="M0 593.15 L57.91 593.15" class="st4"/>
				<path d="M0 574.33 L0 570.08" class="st4"/>
				<path d="M57.91 574.33 L57.91 570.08" class="st4"/>
				<path d="M30.73 586.77 L36.04 584.96" class="st4"/>
				<path d="M30.73 576 L36.04 577.81" class="st4"/>
				<path d="M57.91 586.77 L56.14 584.96" class="st4"/>
				<path d="M57.91 576 L56.14 577.81" class="st4"/>
				<path d="M43.43 578.69 L43.43 577.81" class="st4"/>
				<path d="M50.38 578.69 L50.38 577.81" class="st4"/>
			</g>
			<g id="shape63-160" v:mID="63" v:groupContext="shape" transform="translate(5.24409,-8.50394)">
				<title>工作表.63</title>
				<path d="M0 595.28 L0.45 593.23 L28.5 593.23 L28.96 595.28 L28.96 593.01 L0 593.01 L0 595.28 ZM0 591.02 L0.45 588.98
							 L28.5 588.98 L28.96 591.02 L28.96 588.76 L0 588.76 L0 591.02 ZM0 586.77 L0.45 584.73 L28.5 584.73 L28.96
							 586.77 L28.96 584.5 L0 584.5 L0 586.77 Z" class="st5"/>
				<path d="M0 595.28 L28.96 595.28 L28.96 593.01 L0 593.01 L0 595.28" class="st4"/>
				<path d="M0 595.28 L0.45 593.23 L28.5 593.23 L28.96 595.28 L28.96 593.01 L0 593.01 L0 595.28" class="st4"/>
				<path d="M0 591.02 L28.96 591.02 L28.96 588.76 L0 588.76 L0 591.02" class="st4"/>
				<path d="M0 591.02 L0.45 588.98 L28.5 588.98 L28.96 591.02 L28.96 588.76 L0 588.76 L0 591.02" class="st4"/>
				<path d="M0 586.77 L28.96 586.77 L28.96 584.5 L0 584.5 L0 586.77" class="st4"/>
				<path d="M0 586.77 L0.45 584.73 L28.5 584.73 L28.96 586.77 L28.96 584.5 L0 584.5 L0 586.77" class="st4"/>
			</g>
			<g id="shape64-168" v:mID="64" v:groupContext="shape" transform="translate(44.8299,-11.2305)">
				<title>工作表.64</title>
				<path d="M0 594.6 a0.675 0.675 -180 1 1 1.35 0 a0.675 0.675 -180 1 1 -1.35 0 ZM2.03 594.6 a0.675 0.675 -180 1 1 1.35
							 0 a0.675 0.675 -180 1 1 -1.35 0 ZM4.73 595.28 L6.07 595.28 L6.07 593.93 L4.73 593.93 a0.675 0.675 -180
							 1 0 9.76996E-015 1.35 ZM6.07 595.28 L7.42 595.28 a0.675 0.675 -180 0 0 0 -1.35 L6.07 593.93 L6.07 595.28
							 ZM9.45 595.28 L10.8 595.28 L10.8 593.93 L9.45 593.93 a0.675 0.675 -180 1 0 8.88178E-015 1.35 ZM10.8
							 595.28 L12.15 595.28 a0.675 0.675 -180 0 0 0 -1.35 L10.8 593.93 L10.8 595.28 Z" class="st6"/>
			</g>
			<g id="shape65-170" v:mID="65" v:groupContext="shape" transform="translate(5.24409,0)">
				<title>工作表.65</title>
				<path d="M0 591.02 L0.45 588.98 L57.46 588.98 L57.91 591.02 L57.91 588.76 L0 588.76 L0 591.02 ZM0 574.02 L0.45 571.97
							 L57.46 571.97 L57.91 574.02 L57.91 571.75 L0 571.75 L0 574.02 Z" class="st5"/>
				<path d="M0 591.02 L57.91 591.02 L57.91 588.76 L0 588.76 L0 591.02" class="st4"/>
				<path d="M0 591.02 L0.45 588.98 L57.46 588.98 L57.91 591.02 L57.91 588.76 L0 588.76 L0 591.02" class="st4"/>
				<path d="M0 574.02 L57.91 574.02 L57.91 571.75 L0 571.75 L0 574.02" class="st4"/>
				<path d="M0 574.02 L0.45 571.97 L57.46 571.97 L57.91 574.02 L57.91 571.75 L0 571.75 L0 574.02" class="st4"/>
			</g>
			<g id="shape66-176" v:mID="66" v:groupContext="shape" transform="translate(-32.8904,0)">
				<title>工作表.66</title>
				<v:textBlock v:margins="rect(0,0,0,0)" v:tabSpace="42.5197"/>
				<v:textRect cx="9.60522" cy="582.676" width="19.22" height="25.2"/>
				<text x="2.72" y="586.28" class="st2" v:langID="2052"><v:paragraph v:horizAlign="2"/><v:tabList/>4 U</text>			</g>
			<g id="shape43-178" v:mID="43" v:groupContext="groupContent">
				<v:textBlock v:margins="rect(0,0,0,0)" v:tabSpace="42.5197"/>
				<v:textRect cx="134.135" cy="582.676" width="117.79" height="15.9788"/>
				<rect v:rectContext="textBkgnd" x="76.5982" y="574.688" width="115.073" height="15.9752" class="st7"/>
				<text x="76.6" y="586.67" class="st2" v:langID="2052"><v:paragraph v:horizAlign="1"/><v:tabList/>IBM x3850 X5<tspan
							class="st8">，</tspan><tspan class="st8">无标签</tspan></text>			</g>
		</g>
	</g>
</svg>
