<?xml version="1.0" encoding="UTF-8" standalone="no"?>
<!DOCTYPE svg PUBLIC "-//W3C//DTD SVG 1.0//EN" "http://www.w3.org/TR/2001/REC-SVG-20010904/DTD/svg10.dtd">
<!-- 由 Microsoft Visio 11.0, SVG Export, v1.0 生成 数码管.svg Page-1 -->
<svg xmlns="http://www.w3.org/2000/svg" xmlns:xlink="http://www.w3.org/1999/xlink" xmlns:ev="http://www.w3.org/2001/xml-events"
		xmlns:v="http://schemas.microsoft.com/visio/2003/SVGExtensions/" width="8.26772in" height="11.6929in"
		viewBox="0 0 595.276 841.89" xml:space="preserve" color-interpolation-filters="sRGB" class="st2">
	<v:documentProperties v:langID="2052" v:metric="true" v:viewMarkup="false">
		<v:userDefs>
			<v:ud v:nameU="msvSubprocessMaster" v:prompt="" v:val="VT4(Rectangle)"/>
			<v:ud v:nameU="msvNoAutoConnect" v:val="VT0(1):26"/>
		</v:userDefs>
	</v:documentProperties>

	<style type="text/css">
	<![CDATA[
		.st1 {fill:url(#grad30-4);stroke:none;stroke-linecap:round;stroke-linejoin:round;stroke-width:0.25}
		.st2 {fill:none;fill-rule:evenodd;font-size:12px;overflow:visible;stroke-linecap:square;stroke-miterlimit:3}
	]]>
	</style>

	<defs id="Patterns_And_Gradients">
		<linearGradient id="grad30-4" v:fillPattern="30" v:foreground="#000000" v:background="#000000" x1="0" y1="1" x2="0" y2="0">
			<stop offset="0" style="stop-color:#000000;stop-opacity:1"/>
			<stop offset="1" style="stop-color:#000000;stop-opacity:1"/>
		</linearGradient>
	</defs>
	<g v:mID="0" v:index="1" v:groupContext="foregroundPage">
		<v:userDefs>
			<v:ud v:nameU="msvThemeColors" v:val="VT0(36):26"/>
			<v:ud v:nameU="msvThemeEffects" v:val="VT0(16):26"/>
			<v:ud v:nameU="msvThemeOrder" v:val="VT0(0):26"/>
		</v:userDefs>
		<title>页-1</title>
		<v:pageProperties v:drawingScale="0.0393701" v:pageScale="0.0393701" v:drawingUnits="24" v:shadowOffsetX="8.50394"
				v:shadowOffsetY="-8.50394"/>
		<g id="shape4-1" v:mID="4" v:groupContext="shape" transform="translate(51.0236,-779.528)">
			<title>工作表.4</title>
			<v:userDefs>
				<v:ud v:nameU="msvThemeColors" v:val="VT0(36):26"/>
				<v:ud v:nameU="msvThemeEffects" v:val="VT0(16):26"/>
			</v:userDefs>
			<path d="M0 823.46 L28.09 806.46 L126.4 806.46 L154.49 824.17 L126.4 841.89 L28.09 841.89 L0 823.46 Z" class="st1"/>
		</g>
		<g id="shape1-5" v:mID="1" v:groupContext="shape" transform="translate(874.488,44.0787) rotate(90)">
			<title>工作表.1</title>
			<v:userDefs>
				<v:ud v:nameU="msvThemeColors" v:val="VT0(36):26"/>
				<v:ud v:nameU="msvThemeEffects" v:val="VT0(16):26"/>
			</v:userDefs>
			<path d="M0 823.46 L28.09 806.46 L126.4 806.46 L154.49 824.17 L126.4 841.89 L28.09 841.89 L0 823.46 Z" class="st1"/>
		</g>
		<g id="shape2-8" v:mID="2" v:groupContext="shape" transform="translate(1028.83,44.7874) rotate(90)">
			<title>工作表.2</title>
			<v:userDefs>
				<v:ud v:nameU="msvThemeColors" v:val="VT0(36):26"/>
				<v:ud v:nameU="msvThemeEffects" v:val="VT0(16):26"/>
			</v:userDefs>
			<path d="M0 823.46 L28.09 806.46 L126.4 806.46 L154.49 824.17 L126.4 841.89 L28.09 841.89 L0 823.46 Z" class="st1"/>
		</g>
		<g id="shape3-11" v:mID="3" v:groupContext="shape" transform="translate(50.2441,-624.898)">
			<title>工作表.3</title>
			<v:userDefs>
				<v:ud v:nameU="msvThemeColors" v:val="VT0(36):26"/>
				<v:ud v:nameU="msvThemeEffects" v:val="VT0(16):26"/>
			</v:userDefs>
			<path d="M0 823.46 L28.09 806.46 L126.4 806.46 L154.49 824.17 L126.4 841.89 L28.09 841.89 L0 823.46 Z" class="st1"/>
		</g>
		<g id="shape5-14" v:mID="5" v:groupContext="shape" transform="translate(873.78,198.496) rotate(90)">
			<title>工作表.5</title>
			<v:userDefs>
				<v:ud v:nameU="msvThemeColors" v:val="VT0(36):26"/>
				<v:ud v:nameU="msvThemeEffects" v:val="VT0(16):26"/>
			</v:userDefs>
			<path d="M0 823.46 L28.09 806.46 L126.4 806.46 L154.49 824.17 L126.4 841.89 L28.09 841.89 L0 823.46 Z" class="st1"/>
		</g>
		<g id="shape6-17" v:mID="6" v:groupContext="shape" transform="translate(1028.13,199.205) rotate(90)">
			<title>工作表.6</title>
			<v:userDefs>
				<v:ud v:nameU="msvThemeColors" v:val="VT0(36):26"/>
				<v:ud v:nameU="msvThemeEffects" v:val="VT0(16):26"/>
			</v:userDefs>
			<path d="M0 823.46 L28.09 806.46 L126.4 806.46 L154.49 824.17 L126.4 841.89 L28.09 841.89 L0 823.46 Z" class="st1"/>
		</g>
		<g id="shape7-20" v:mID="7" v:groupContext="shape" transform="translate(49.5354,-470.622)">
			<title>工作表.7</title>
			<v:userDefs>
				<v:ud v:nameU="msvThemeColors" v:val="VT0(36):26"/>
				<v:ud v:nameU="msvThemeEffects" v:val="VT0(16):26"/>
			</v:userDefs>
			<path d="M0 823.46 L28.09 806.46 L126.4 806.46 L154.49 824.17 L126.4 841.89 L28.09 841.89 L0 823.46 Z" class="st1"/>
		</g>
	</g>
</svg>
